<svg width="88" height="88" viewBox="0 0 88 88" fill="none" xmlns="http://www.w3.org/2000/svg">
<path d="M83.3942 44.3341L81.3363 43.3252C81.3513 41.8715 81.3288 40.551 81.3363 39.3078C81.3363 32.9117 79.6955 26.6288 76.5849 21.0729C77.3119 20.0245 77.348 18.6256 76.6105 17.5221C73.8768 13.4312 70.4469 9.92441 66.416 7.09912C63.776 5.24872 60.9171 3.72866 57.9187 2.58087C57.2537 2.32633 56.5085 2.65908 56.2539 3.32389C55.9994 3.98888 56.3321 4.73413 56.997 4.98867C59.798 6.06083 62.4693 7.4812 64.9362 9.21044C68.7046 11.8518 71.9112 15.1303 74.4668 18.9547C74.6281 19.1959 74.5902 19.5135 74.3773 19.7099C74.1819 19.8646 69.8769 23.9145 69.6165 24.0721C69.4856 24.1376 69.3592 24.1361 69.2848 24.1261C69.1798 24.1118 68.9837 24.056 68.8505 23.8418C67.158 21.1215 65.045 18.7064 62.57 16.6629C57.3271 12.3344 50.6986 9.95053 43.9054 9.95053C36.7621 9.95053 29.8734 12.5565 24.5078 17.2886C22.3958 19.151 20.5643 21.3005 19.0638 23.6768C18.9399 23.8729 18.7522 23.9212 18.6511 23.9324C18.5454 23.9444 18.3423 23.9381 18.1676 23.7633L13.6918 19.2873C13.4925 19.0878 13.4645 18.7734 13.6253 18.5395C15.523 15.7817 17.7881 13.2923 20.3578 11.1403C26.9517 5.61894 35.3144 2.57812 43.9056 2.57812C46.2685 2.57812 48.633 2.805 50.9335 3.25256C51.6322 3.38852 52.3091 2.93219 52.445 2.23334C52.581 1.5345 52.1246 0.857828 51.4258 0.721875C48.9635 0.242859 46.4333 0 43.9056 0C34.7103 0 25.7597 3.25463 18.7027 9.16403C15.9542 11.4658 13.5313 14.1286 11.5015 17.0784C10.7241 18.2083 10.7722 19.69 11.5709 20.7616C10.2908 22.9575 9.23341 25.272 8.42456 27.6561C8.1958 28.3302 8.55708 29.0622 9.23117 29.2909C9.3685 29.3375 9.50806 29.3595 9.64539 29.3595C10.1825 29.3595 10.6839 29.0211 10.866 28.4843C11.5432 26.4883 12.4098 24.5451 13.4442 22.6858L16.1969 25.4387C14.0107 29.8138 12.8583 34.6847 12.8583 39.5976V66.4348L5.7397 62.9447C4.90112 62.5336 4.3592 61.6646 4.3592 60.7307V48.863C4.3592 47.9291 4.90112 47.0601 5.7397 46.6489C6.17489 46.4162 7.053 46.0333 7.77969 45.6483C8.56516 45.227 9.05311 44.4113 9.05311 43.5194V39.6131C9.04383 37.9543 9.1583 36.2801 9.39325 34.6371C9.49414 33.9322 9.00447 33.2793 8.29978 33.1786C7.59595 33.0775 6.94214 33.5674 6.84125 34.272C6.58825 36.0403 6.46519 37.8421 6.47498 39.6203V43.422C6.15255 43.6 5.08142 44.084 4.55789 44.3573C2.86939 45.2076 1.78125 46.9702 1.78125 48.863V60.7307C1.78125 62.6409 2.88967 64.4187 4.60481 65.2597L13.2034 69.4753C14.1071 72.2178 16.6918 74.2036 19.7331 74.2036C23.5238 74.2036 26.6077 71.1198 26.6077 67.3291V44.1423C26.6077 40.3516 23.5238 37.2677 19.7331 37.2677C18.1144 37.2677 16.6256 37.8314 15.4496 38.771C15.5713 34.5099 16.6311 30.3065 18.5408 26.5134C18.6723 26.515 18.8044 26.5095 18.9373 26.4945C19.8921 26.388 20.7329 25.8627 21.244 25.053C22.6134 22.8841 24.2854 20.9222 26.2133 19.222C31.1076 14.9057 37.3908 12.5285 43.9056 12.5285C50.1012 12.5285 56.1467 14.7027 60.9288 18.6508C63.1881 20.5162 65.1168 22.7207 66.6615 25.2034C67.1663 26.0147 67.9964 26.5531 68.9392 26.6807C69.0815 26.6999 69.2236 26.7094 69.3651 26.7094C69.4273 26.7094 69.489 26.7044 69.5507 26.7008C71.4013 30.4437 72.4298 34.5812 72.5496 38.771C71.3736 37.8312 69.8848 37.2675 68.2659 37.2675C64.4752 37.2675 61.3913 40.3514 61.3913 44.1421V48.0081C61.3913 48.72 61.9684 49.2972 62.6803 49.2972C63.3923 49.2972 63.9694 48.72 63.9694 48.0081V44.1421C63.9694 41.773 65.8968 39.8456 68.2659 39.8456C70.6351 39.8456 72.5625 41.773 72.5625 44.1421V67.3289C72.5625 69.6979 70.6351 71.6253 68.2659 71.6253C65.8968 71.6253 63.9694 69.6979 63.9694 67.3289V54.5077C63.9694 53.7958 63.3923 53.2187 62.6803 53.2187C61.9684 53.2187 61.3913 53.7958 61.3913 54.5077V67.3289C61.3913 71.1196 64.4752 74.2034 68.2659 74.2034C69.8907 74.2034 71.3844 73.6357 72.5625 72.6897V75.7604C72.5625 76.6879 71.8078 77.4426 70.8803 77.4426H55.4355C55.0338 76.2534 53.9101 75.3938 52.5872 75.3938H42.84C41.1815 75.3938 39.8321 76.7432 39.8321 78.4016V84.9922C39.8321 86.6506 41.1815 88 42.84 88H52.5872C53.9054 88 55.0259 87.1461 55.431 85.9633H63.8001C64.512 85.9633 65.0892 85.3861 65.0892 84.6742C65.0892 83.9623 64.512 83.3852 63.8001 83.3852H55.595V80.0209H70.8803C73.2293 80.0209 75.1406 78.1096 75.1406 75.7606V69.306L78.5049 67.6567V79.1032C78.5049 81.4643 76.584 83.3852 74.223 83.3852H70.2306C69.5187 83.3852 68.9416 83.9623 68.9416 84.6742C68.9416 85.3861 69.5187 85.9633 70.2306 85.9633H74.223C78.0056 85.9633 81.083 82.8859 81.083 79.1032V66.3927L83.3942 65.2597C85.1093 64.4187 86.2178 62.641 86.2178 60.7307V48.863C86.2178 46.9528 85.1093 45.1751 83.3942 44.3341ZM19.7329 39.846C22.102 39.846 24.0294 41.7734 24.0294 44.1425V67.3293C24.0294 69.6982 22.102 71.6256 19.7329 71.6256C17.3638 71.6256 15.4364 69.6982 15.4364 67.3293V44.1423C15.4364 41.7732 17.3638 39.846 19.7329 39.846ZM42.4101 84.9922V78.402C42.4101 78.1651 42.6029 77.9723 42.8398 77.9723H46.4242V85.4219H42.8398C42.6029 85.4219 42.4101 85.229 42.4101 84.9922ZM53.0167 84.9922C53.0167 85.229 52.8238 85.4219 52.587 85.4219H49.0025V77.9723H52.587C52.8238 77.9723 53.0167 78.1651 53.0167 78.402V84.9922ZM83.6396 60.7308C83.6396 61.6648 83.0977 62.5338 82.2591 62.9449L75.1406 66.435C75.1406 63.1474 75.1406 42.2751 75.1406 39.5978C75.1406 34.7267 74.0067 29.8918 71.8554 25.5453L74.6715 22.9465C77.3452 27.9577 78.7541 33.5717 78.7582 39.2837C78.7489 40.3542 78.7747 41.7899 78.7565 43.5201C78.7484 44.3735 79.2377 45.1675 80.0034 45.5431L82.2593 46.6491C83.0979 47.0602 83.6398 47.9292 83.6398 48.8632V60.7308H83.6396Z" fill="#07A0E6"/>
<path d="M55.5934 39.8005C55.5004 38.6849 54.85 37.7812 53.9363 37.4981C53.5058 37.3647 52.3906 37.1944 51.334 38.4912C50.3514 39.6969 45.4137 48.6175 44.4339 50.3935C44.2135 50.7928 44.2206 51.2789 44.4524 51.6716C44.6843 52.0643 45.1064 52.3053 45.5624 52.3053H53.0058C52.9962 53.6731 52.9857 54.9927 52.9757 56.1639C52.9695 56.8758 53.5417 57.4578 54.2536 57.4639H54.2649C54.9715 57.4639 55.5476 56.8942 55.5537 56.1859C55.5576 55.7282 55.5703 54.2272 55.5841 52.3051H56.5387C57.2506 52.3051 57.8277 51.728 57.8277 51.0161C57.8277 50.3041 57.2506 49.727 56.5387 49.727H55.6013C55.6281 45.4002 55.6458 40.4311 55.5934 39.8005ZM53.0231 49.7272H47.7514C49.6871 46.251 52.1095 41.9801 53.0396 40.542C53.0599 41.9567 53.0469 45.7845 53.0231 49.7272Z" fill="#07A0E6"/>
<path d="M42.3523 56.2894C42.3434 55.5775 41.7659 55.0124 41.0471 55.0166C38.6989 55.0462 36.1823 55.0625 34.4595 55.0552C35.4271 53.7826 37.0099 51.6708 39.4337 48.2075C40.6036 46.4709 41.4953 44.8294 41.6113 42.9974C41.6113 39.8205 39.0267 37.2358 35.8498 37.2358C33.1027 37.2358 30.7251 39.1899 30.1963 41.8821C30.0591 42.5806 30.5142 43.2582 31.2127 43.3955C31.9114 43.5323 32.5889 43.0775 32.7261 42.379C33.0179 40.8928 34.3318 39.814 35.8498 39.814C37.5798 39.814 38.9921 41.2015 39.0324 42.9222C38.9341 44.0839 38.2978 45.2679 37.3213 46.729C34.5447 50.6962 32.887 52.867 31.9963 54.0332C30.9372 55.4199 30.6177 55.8384 30.8508 56.5964C30.9826 57.0252 31.3098 57.355 31.7485 57.5011C32.6453 57.7417 38.175 57.6077 41.0792 57.5944C41.7913 57.5855 42.3612 57.0013 42.3523 56.2894Z" fill="#07A0E6"/>
</svg>
