<svg width="70" height="26" viewBox="0 0 70 26" fill="none" xmlns="http://www.w3.org/2000/svg">
<g clip-path="url(#clip0_501_2)">
<path opacity="0.997" fill-rule="evenodd" clip-rule="evenodd" d="M-0.0175781 -0.0170898C3.95865 -0.0170898 7.93491 -0.0170898 11.9111 -0.0170898C13.3767 0.074706 14.7667 0.451274 16.0811 1.11261C17.1863 1.73095 18.0807 2.56839 18.7642 3.62493C18.787 3.68115 18.787 3.73733 18.7642 3.79355C17.3605 8.06628 15.9534 12.3378 14.543 16.6081C13.7783 16.85 12.9922 16.9904 12.1846 17.0296C10.3508 17.0775 8.51644 17.0944 6.68164 17.0802C6.68164 20.0478 6.68164 23.0153 6.68164 25.9829C4.44858 25.9829 2.21549 25.9829 -0.0175781 25.9829C-0.0175781 17.3162 -0.0175781 8.64958 -0.0175781 -0.0170898ZM6.68164 5.04128C7.83309 5.02745 8.98381 5.04431 10.1338 5.09186C12.2231 5.28158 13.294 6.41128 13.3467 8.48096C13.3692 9.39784 13.1014 10.2184 12.5435 10.9427C12.1535 11.3516 11.6807 11.627 11.125 11.7689C10.8329 11.8468 10.5367 11.903 10.2363 11.9375C9.05221 11.9854 7.8673 12.0023 6.68164 11.9881C6.68164 9.67248 6.68164 7.35689 6.68164 5.04128Z" fill="#3C3C3C"/>
<path opacity="0.999" fill-rule="evenodd" clip-rule="evenodd" d="M30.9492 -0.0170898C32.7721 -0.0170898 34.5952 -0.0170898 36.418 -0.0170898C38.1324 5.55773 39.8472 11.1332 41.562 16.7092C44 11.1454 46.4097 5.57001 48.791 -0.0170898C51.1607 -0.0170898 53.5307 -0.0170898 55.9004 -0.0170898C52.3638 8.65227 48.8204 17.3189 45.2705 25.9829C42.935 25.9829 40.5992 25.9829 38.2637 25.9829C36.703 20.9875 35.1253 15.9965 33.5298 11.0101C31.8575 15.9993 30.1884 20.9902 28.5225 25.9829C26.1982 25.9829 23.874 25.9829 21.5498 25.9829C20.3494 23.9571 19.1531 21.9281 17.9609 19.896C19.1289 16.2985 20.3138 12.707 21.5156 9.12169C21.6366 9.31536 21.7391 9.51769 21.8232 9.72869C21.9149 9.97757 22.0403 10.2024 22.1992 10.4031C22.7461 11.4823 23.293 12.5614 23.8398 13.6405C23.8879 13.8368 23.9791 14.0054 24.1133 14.1463C24.5515 15.011 24.9901 15.8765 25.4292 16.743C27.2729 11.1567 29.1129 5.57001 30.9492 -0.0170898Z" fill="#590EC7"/>
<path opacity="0.995" fill-rule="evenodd" clip-rule="evenodd" d="M60.0371 -0.0170898C60.0484 -0.0170898 60.06 -0.0170898 60.0713 -0.0170898C63.3693 8.62085 66.6734 17.2538 69.9834 25.8817C69.9834 25.9155 69.9834 25.9492 69.9834 25.9829C67.5337 25.9829 65.0844 25.9829 62.6348 25.9829C62.0763 24.4313 61.5181 22.88 60.96 21.3292C57.8038 21.3404 54.648 21.3292 51.4922 21.2955C52.1546 19.6216 52.8266 17.9524 53.5088 16.2877C55.4458 16.2708 57.3824 16.2652 59.3193 16.2708C58.4115 13.7243 57.5 11.1782 56.585 8.63272C57.7313 5.74712 58.8818 2.86384 60.0371 -0.0170898Z" fill="#3C3C3C"/>
<path opacity="0.62" fill-rule="evenodd" clip-rule="evenodd" d="M21.8242 9.729C21.9664 9.94183 22.0917 10.1666 22.2002 10.4035C22.0413 10.2027 21.9159 9.97788 21.8242 9.729Z" fill="#5309B4"/>
<path opacity="0.62" fill-rule="evenodd" clip-rule="evenodd" d="M23.8398 13.6406C23.9391 13.8027 24.0303 13.9713 24.1133 14.1465C23.9791 14.0056 23.8879 13.837 23.8398 13.6406Z" fill="#5209B3"/>
</g>
<defs>
<clipPath id="clip0_501_2">
<rect width="70" height="26" fill="white"/>
</clipPath>
</defs>
</svg>
