<svg width="36" height="34" viewBox="0 0 36 34" fill="none" xmlns="http://www.w3.org/2000/svg">
<g clip-path="url(#clip0_303_7310)">
<path d="M24.067 1.15848C21.4405 0.41327 17.9615 0.00274658 14.2708 0.00274658C10.5801 0.00274658 7.10114 0.41327 4.47469 1.15848C1.5473 1.98922 0 3.15047 0 4.51684V29.4824C0 30.8487 1.5473 32.01 4.47455 32.8407C7.101 33.5861 10.5801 33.9965 14.2708 33.9965C15.8301 33.9965 17.3609 33.9231 18.8207 33.7784C19.2068 33.7402 19.487 33.4135 19.4464 33.0488C19.4058 32.6842 19.0586 32.42 18.6739 32.4579C17.2626 32.5978 15.7812 32.6687 14.2708 32.6687C10.7133 32.6687 7.37796 32.2782 4.87912 31.5691C2.31553 30.8417 1.4059 29.9904 1.4059 29.4825V23.2272C2.14699 23.7157 3.17419 24.1499 4.47448 24.5189C7.10093 25.2643 10.58 25.6747 14.2707 25.6747C15.3477 25.6747 16.4211 25.6393 17.4612 25.5694C17.8485 25.5433 18.1401 25.2257 18.1125 24.8599C18.0849 24.4942 17.7477 24.2173 17.3614 24.2448C16.3545 24.3125 15.3146 24.3468 14.2707 24.3468C10.7132 24.3468 7.37789 23.9563 4.87912 23.2472C2.31553 22.5198 1.4059 21.6686 1.4059 21.1606V14.9054C2.14699 15.3939 3.17426 15.8282 4.47455 16.1971C7.10093 16.9424 10.58 17.3528 14.2707 17.3528C17.9614 17.3528 21.4404 16.9423 24.0668 16.1971C25.3672 15.8281 26.3945 15.3937 27.1355 14.9054V16.357C27.1355 16.7236 27.4503 17.0209 27.8385 17.0209C28.2267 17.0209 28.5415 16.7236 28.5415 16.357V4.51684C28.5416 3.15047 26.9943 1.98922 24.067 1.15848ZM27.1356 12.8387C27.1356 13.3467 26.226 14.1979 23.6624 14.9254C21.1636 15.6344 17.8283 16.025 14.2708 16.025C10.7134 16.025 7.37803 15.6344 4.8792 14.9254C2.3156 14.1979 1.40597 13.3466 1.40597 12.8387V6.58341C2.14706 7.07189 3.17426 7.50612 4.47455 7.87514C7.101 8.62049 10.5801 9.03094 14.2708 9.03094C17.9615 9.03094 21.4405 8.62042 24.067 7.87514C25.3673 7.50612 26.3945 7.07183 27.1356 6.58341L27.1356 12.8387ZM23.6624 6.60353C21.1636 7.31261 17.8283 7.70315 14.2708 7.70315C10.7134 7.70315 7.37803 7.31261 4.8792 6.60353C2.3156 5.87605 1.40597 5.02479 1.40597 4.51684C1.40597 4.00897 2.3156 3.15777 4.8792 2.43029C7.37803 1.72121 10.7134 1.33067 14.2708 1.33067C17.8283 1.33067 21.1636 1.72121 23.6624 2.43029C26.226 3.15777 27.1356 4.00904 27.1356 4.51684C27.1356 5.02472 26.2261 5.87605 23.6624 6.60353Z" fill="#07A0E6"/>
<path d="M35.3411 23.1132C35.1902 22.7755 34.7779 22.617 34.42 22.7597C34.0623 22.9023 33.8947 23.2918 34.0457 23.6297C35.0492 25.8752 34.6465 28.4127 33.0409 30.2695L28.4007 25.8877V19.6863C29.0648 19.7515 29.7267 19.9085 30.3662 20.162C30.7241 20.3039 31.1362 20.1447 31.2864 19.8065C31.4367 19.4684 31.2681 19.0793 30.91 18.9374C27.7887 17.7007 24.2253 18.3624 21.832 20.6228C20.2652 22.1026 19.4023 24.0699 19.4023 26.1627C19.4023 28.2554 20.2652 30.2228 21.8321 31.7025C23.3989 33.1823 25.482 33.9973 27.6977 33.9973C29.9136 33.9973 31.9966 33.1823 33.5634 31.7025C35.9624 29.4368 36.6602 26.0652 35.3411 23.1132ZM27.6977 32.6693C25.8575 32.6693 24.1274 31.9925 22.8262 30.7635C21.5249 29.5346 20.8083 27.9007 20.8083 26.1627C20.8083 24.4247 21.5249 22.7907 22.8262 21.5619C23.9767 20.4753 25.4528 19.8346 26.9947 19.6857V26.1627C26.9947 26.3388 27.0688 26.5077 27.2007 26.6322L32.0475 31.2091C30.8219 32.1549 29.3016 32.6693 27.6977 32.6693Z" fill="#07A0E6"/>
<path d="M33.5737 20.6326L33.5584 20.6183C33.2812 20.3616 32.836 20.3658 32.5643 20.6276C32.2925 20.8894 32.2969 21.3098 32.5741 21.5665L32.5796 21.5716C32.7169 21.7012 32.8968 21.7661 33.0767 21.7661C33.2566 21.7661 33.4365 21.7012 33.5738 21.5716C33.8483 21.3124 33.8483 20.8919 33.5737 20.6326Z" fill="#07A0E6"/>
<path d="M23.4803 3.85114C23.0921 3.85114 22.7773 4.15043 22.7773 4.51706C22.7773 4.88369 23.0921 5.18105 23.4803 5.18105C23.8685 5.18105 24.1833 4.88375 24.1833 4.51712V4.51307C24.1833 4.14651 23.8685 3.85114 23.4803 3.85114Z" fill="#07A0E6"/>
<path d="M20.7769 2.76319C19.015 2.48189 16.7047 2.32697 14.2713 2.32697C13.8831 2.32697 13.5684 2.62427 13.5684 2.9909C13.5684 3.35752 13.8831 3.65476 14.2713 3.65476C16.6285 3.65476 18.8556 3.80311 20.5424 4.07245C20.5821 4.07876 20.6215 4.08188 20.6605 4.08188C20.9972 4.08188 21.2948 3.85258 21.3529 3.52852C21.4176 3.167 21.1596 2.82435 20.7769 2.76319Z" fill="#07A0E6"/>
</g>
<defs>
<clipPath id="clip0_303_7310">
<rect width="36" height="34" fill="white"/>
</clipPath>
</defs>
</svg>
