<svg width="80" height="80" viewBox="0 0 80 80" fill="none" xmlns="http://www.w3.org/2000/svg">
<g clip-path="url(#clip0_303_5945)">
<path d="M78.8281 62.6897C79.4755 62.6897 80 62.165 80 61.5178V59.7219C80 56.4822 77.9328 53.6244 74.8553 52.6103L67.5308 50.2003V47.6644C70.0812 46.1342 71.7923 43.3425 71.7923 40.158V35.1072C71.7923 30.2834 67.868 26.3591 63.0442 26.3591C60.203 26.3591 57.6747 27.7216 56.0756 29.8264C55.1905 28.1653 53.6894 26.8698 51.8102 26.2527L44.4864 23.8414V21.3055C47.0369 19.7753 48.748 16.9836 48.748 13.7991V8.74813C48.7481 3.92437 44.8237 0 40 0C35.1763 0 31.2519 3.92437 31.2519 8.74813V13.7989C31.2519 16.9834 32.963 19.7752 35.5134 21.3053V23.8412L28.1905 26.2523C26.3108 26.8698 24.8095 28.1653 23.9244 29.8264C22.3253 27.7214 19.797 26.3591 16.9558 26.3591C12.132 26.3591 8.20766 30.2834 8.20766 35.1072V40.158C8.20766 43.3425 9.91875 46.1342 12.4692 47.6644V50.2003L5.14406 52.6105C2.06719 53.6244 0 56.4822 0 59.7219V61.5178C0 62.165 0.524531 62.6897 1.17188 62.6897C1.81922 62.6897 2.34375 62.165 2.34375 61.5178V59.7219C2.34375 57.4963 3.76391 55.533 5.87703 54.8366L12.7381 52.5789C13.3652 54.3016 15.0189 55.535 16.9556 55.535C18.8922 55.535 20.5459 54.3014 21.173 52.5789L28.0331 54.8363C29.5369 55.3319 30.702 56.4734 31.2409 57.9202L28.1897 58.9244C25.112 59.9372 23.0442 62.7947 23.0442 66.0345V67.3966H8.97297V64.4645C8.97297 63.8173 8.44844 63.2927 7.80109 63.2927C7.15375 63.2927 6.62922 63.8173 6.62922 64.4645V67.3966H2.34375V66.9919C2.34375 66.3447 1.81922 65.82 1.17188 65.82C0.524531 65.82 0 66.3447 0 66.9919V68.5684C0 69.2156 0.524531 69.7403 1.17188 69.7403H23.0442V78.8278C23.0442 79.475 23.5688 79.9997 24.2161 79.9997H55.7837C56.4311 79.9997 56.9556 79.475 56.9556 78.8278V77.2625C56.9556 76.6153 56.4311 76.0906 55.7837 76.0906C55.1364 76.0906 54.6119 76.6153 54.6119 77.2625V77.6562H50.3266V70.7784C50.3266 70.1312 49.802 69.6066 49.1547 69.6066C48.5073 69.6066 47.9828 70.1312 47.9828 70.7784V77.6562H32.0172V70.7784C32.0172 70.1312 31.4927 69.6066 30.8453 69.6066C30.198 69.6066 29.6734 70.1312 29.6734 70.7784V77.6562H25.388V66.0348C25.388 63.8094 26.8083 61.8466 28.9223 61.1509L35.7827 58.8931C36.4098 60.6155 38.0634 61.8489 40 61.8489C41.9366 61.8489 43.5902 60.6156 44.2173 58.8931L51.0777 61.1509C53.1917 61.8467 54.612 63.8094 54.612 66.0348V71.7914C54.612 72.4386 55.1366 72.9633 55.7839 72.9633C56.4313 72.9633 56.9558 72.4386 56.9558 71.7914V69.7406H78.8281C79.4755 69.7406 80 69.2159 80 68.5687V66.9922C80 66.345 79.4755 65.8203 78.8281 65.8203C78.1808 65.8203 77.6562 66.345 77.6562 66.9922V67.3969H73.3708V64.4648C73.3708 63.8177 72.8463 63.293 72.1989 63.293C71.5516 63.293 71.027 63.8177 71.027 64.4648V67.3969H56.9556V66.0348C56.9556 62.7948 54.8878 59.9375 51.8102 58.9247L48.7589 57.9205C49.2978 56.4739 50.4628 55.3323 51.9661 54.8367L58.8269 52.5792C59.4539 54.3017 61.1077 55.5353 63.0442 55.5353C64.9809 55.5353 66.6347 54.3017 67.2617 52.5792L74.1222 54.8367C76.2361 55.533 77.6562 57.4963 77.6562 59.7219V61.5178C77.6562 62.165 78.1808 62.6897 78.8281 62.6897ZM63.0442 28.7027C66.5756 28.7027 69.4486 31.5756 69.4486 35.107V40.1578C69.4486 43.6892 66.5755 46.5622 63.0442 46.5622C59.513 46.5622 56.64 43.6892 56.64 40.1578V35.107C56.64 31.5756 59.513 28.7027 63.0442 28.7027ZM33.5956 13.7989V8.74813C33.5956 5.21672 36.4686 2.34375 40 2.34375C43.5314 2.34375 46.4044 5.21672 46.4044 8.74813V13.7989C46.4044 17.3303 43.5312 20.2033 40 20.2033C36.4688 20.2033 33.5956 17.3303 33.5956 13.7989ZM40 22.547C40.7391 22.547 41.4567 22.4541 42.1428 22.2806V24.6583C42.1425 24.6694 42.1427 24.6803 42.1428 24.6912C42.1419 25.872 41.1811 26.8323 40.0002 26.8323C38.8192 26.8323 37.8583 25.872 37.8575 24.6912C37.8575 24.6802 37.8577 24.6692 37.8575 24.6583V22.2806C38.5433 22.4539 39.2609 22.547 40 22.547ZM28.9227 28.4788L35.7825 26.2202C36.4095 27.9427 38.0633 29.1761 39.9998 29.1761C41.9364 29.1761 43.5902 27.9427 44.2172 26.2202L51.0778 28.4789C53.0367 29.1223 54.3952 30.8378 54.585 32.8772C54.397 33.5894 54.2959 34.3366 54.2959 35.107V40.1578C54.2959 40.4547 54.3111 40.7481 54.3402 41.0375H48.7381C48.5369 36.3909 44.695 32.6723 39.9997 32.6723C35.3044 32.6723 31.4625 36.3909 31.2613 41.0375H25.6592C25.6883 40.7481 25.7034 40.4547 25.7034 40.1578V35.107C25.7034 34.3366 25.6023 33.5895 25.4144 32.8772C25.6045 30.838 26.9631 29.1225 28.9227 28.4788ZM40 52.8756C36.4686 52.8756 33.5956 50.0027 33.5956 46.4712V41.4205C33.5956 37.8891 36.4688 35.0161 40 35.0161C43.5312 35.0161 46.4044 37.8891 46.4044 41.4205V46.4712C46.4044 50.0027 43.5314 52.8756 40 52.8756ZM10.5513 40.1578V35.107C10.5513 31.5756 13.4244 28.7027 16.9556 28.7027C20.4869 28.7027 23.3598 31.5756 23.3598 35.107V40.1578C23.3598 43.6892 20.4869 46.5622 16.9556 46.5622C13.4244 46.5622 10.5513 43.6892 10.5513 40.1578ZM19.0983 51.0486C19.0983 52.2302 18.1372 53.1913 16.9556 53.1913C15.7741 53.1913 14.8128 52.23 14.8128 51.0486V48.6395C15.4988 48.813 16.2164 48.9059 16.9556 48.9059C17.6947 48.9059 18.4123 48.813 19.0983 48.6395V51.0486ZM28.7663 52.6103L21.4422 50.2003V47.6642C23.0811 46.6809 24.3716 45.1761 25.0858 43.3813H31.2519V46.4712C31.2519 49.6558 32.963 52.4475 35.5134 53.9777V56.5141L33.4667 57.1877C32.6969 55.0403 30.9858 53.3419 28.7663 52.6103ZM40 59.505C38.8184 59.505 37.8572 58.5438 37.8572 57.3622V57.348C37.8572 57.3456 37.8572 57.3433 37.8572 57.3411V54.9531C38.5431 55.1266 39.2608 55.2195 40 55.2195C40.7392 55.2195 41.4567 55.1266 42.1428 54.9531V57.3411V57.348V57.3622C42.1428 58.5438 41.1816 59.505 40 59.505ZM51.2333 52.6105C49.0142 53.3419 47.3031 55.0403 46.5334 57.1878L44.4866 56.5142V53.9778C47.037 52.4477 48.7481 49.6559 48.7481 46.4714V43.3813H54.9142C55.6284 45.1763 56.9189 46.6811 58.5578 47.6642V50.2003L51.2333 52.6105ZM63.0442 53.1914C61.8627 53.1914 60.9016 52.2302 60.9016 51.0488V48.6397C61.5875 48.8131 62.3052 48.9061 63.0442 48.9061C63.7833 48.9061 64.5009 48.8131 65.187 48.6397V51.0488C65.187 52.2302 64.2258 53.1914 63.0442 53.1914Z" fill="#07A0E6"/>
</g>
<defs>
<clipPath id="clip0_303_5945">
<rect width="80" height="80" fill="white"/>
</clipPath>
</defs>
</svg>
