<svg width="25" height="25" viewBox="0 0 25 25" fill="none" xmlns="http://www.w3.org/2000/svg">
<path d="M23.4888 3.79209L20.0331 0.336523C19.8161 0.119531 19.5275 0 19.2206 0H4.67129C4.03774 0 3.52227 0.515478 3.52227 1.14902V12.5252H2.71426C1.86484 12.5252 1.17383 13.2163 1.17383 14.0656V21.111C1.17383 21.9604 1.86484 22.6515 2.71426 22.6515H14.848C15.4816 22.6515 15.9971 22.136 15.9971 21.5025V16.0228C15.9971 15.3892 15.4816 14.8737 14.848 14.8737H2.71426C2.2687 14.8737 1.90625 14.5112 1.90625 14.0657C1.90625 13.6201 2.2687 13.2577 2.71426 13.2577H3.52227V13.6744C3.52227 13.8767 3.68623 14.0406 3.88848 14.0406C4.09072 14.0406 4.25469 13.8767 4.25469 13.6744V1.14902C4.25469 0.919287 4.4416 0.732422 4.67129 0.732422H18.7874V4.28032C18.7874 4.6981 19.1272 5.03799 19.545 5.03799H23.0929V23.851C23.0929 24.0807 22.906 24.2676 22.6763 24.2676H4.67129C4.44155 24.2676 4.25469 24.0807 4.25469 23.851C4.25469 23.6487 4.09072 23.4848 3.88848 23.4848C3.68623 23.4848 3.52227 23.6487 3.52227 23.851C3.52227 24.4846 4.03774 25 4.67129 25H22.6763C23.3099 25 23.8253 24.4845 23.8253 23.851V4.60459C23.8253 4.29771 23.7058 4.00913 23.4888 3.79209ZM2.71426 15.6061H14.848C15.0778 15.6061 15.2646 15.793 15.2646 16.0228V21.5025C15.2646 21.7323 15.0777 21.9191 14.848 21.9191H2.71426C2.2687 21.9191 1.90625 21.5566 1.90625 21.1111V15.3767C2.14126 15.5222 2.41812 15.6061 2.71426 15.6061ZM19.5198 4.28032V0.859033L22.9664 4.30557H19.545C19.5311 4.30557 19.5198 4.29424 19.5198 4.28032Z" fill="white"/>
<path d="M11.5518 20.6831C11.754 20.6831 11.918 20.5191 11.918 20.3169V19.0995H12.7115C12.9137 19.0995 13.0777 18.9355 13.0777 18.7333C13.0777 18.531 12.9137 18.367 12.7115 18.367H11.918V17.5747H12.8116C13.0138 17.5747 13.1778 17.4107 13.1778 17.2085C13.1778 17.0062 13.0138 16.8423 12.8116 16.8423H11.5518C11.3495 16.8423 11.1855 17.0062 11.1855 17.2085V20.3168C11.1855 20.5191 11.3495 20.6831 11.5518 20.6831Z" fill="white"/>
<path d="M7.70225 20.5417C7.77085 20.6099 7.86362 20.648 7.96026 20.648H7.96162C7.98765 20.6479 8.60117 20.6456 8.84624 20.6413C9.75117 20.6255 10.408 19.8354 10.408 18.7625C10.408 17.6347 9.76773 16.877 8.8147 16.877H7.9541C7.85684 16.877 7.76362 16.9156 7.69492 16.9845C7.62622 17.0533 7.5877 17.1466 7.58789 17.2438V17.2462V17.2463V20.2325C7.58789 20.2576 7.59043 20.2822 7.59526 20.3059C7.60112 20.3947 7.63872 20.4787 7.70225 20.5417ZM8.8147 17.6094C9.44946 17.6094 9.67559 18.205 9.67559 18.7625C9.67559 19.5443 9.25264 19.9017 8.83345 19.909C8.71694 19.911 8.50908 19.9126 8.3252 19.9138C8.32402 19.5545 8.32158 17.9831 8.32095 17.6094H8.8147Z" fill="white"/>
<path d="M4.65918 20.6943C4.86143 20.6943 5.02539 20.5304 5.02539 20.3281V19.3322C5.20723 19.3313 5.41396 19.3303 5.53105 19.3303C6.22978 19.3303 6.79824 18.7697 6.79824 18.0805C6.79824 17.3913 6.22978 16.8306 5.53105 16.8306H4.65918C4.56187 16.8306 4.46855 16.8693 4.3998 16.9382C4.33135 17.0069 4.29302 17.0999 4.29302 17.1968L4.29297 20.3281C4.29297 20.5304 4.45693 20.6943 4.65918 20.6943ZM5.53105 17.563C5.82095 17.563 6.06582 17.8 6.06582 18.0805C6.06582 18.361 5.82095 18.5979 5.53105 18.5979C5.41475 18.5979 5.2106 18.5989 5.02944 18.5998C5.02847 18.4127 5.027 17.7588 5.02646 17.5631H5.53105V17.563Z" fill="white"/>
<path d="M11.5208 10.6182C10.6207 10.9022 9.69696 11.2955 9.20419 11.8041C8.7976 12.2238 8.72392 12.7107 9.00199 13.14C9.19071 13.4314 9.45014 13.5837 9.74184 13.5837C9.8538 13.5837 9.97055 13.5612 10.0898 13.5156C10.5202 13.3511 10.9849 12.883 11.5106 12.0845C11.6804 11.8267 11.8522 11.5402 12.0232 11.2303C12.0855 11.212 12.149 11.1938 12.2139 11.1756C13.2474 10.8865 14.4166 10.6766 15.4428 10.5889C16.0683 11.1938 16.7149 11.6651 17.2662 11.7936C17.8725 11.9351 18.3533 11.6578 18.5519 11.0518C18.6722 10.6848 18.5337 10.3387 18.1814 10.1261C17.8192 9.90737 17.1897 9.80175 16.311 9.81181C16.1238 9.81396 15.9263 9.82158 15.7207 9.83432C15.3259 9.42719 14.9152 8.94062 14.5196 8.40326C14.2132 7.987 13.9392 7.57045 13.7076 7.17451C13.7328 7.08774 13.7567 7.00214 13.7794 6.91806C14.0298 5.98969 14.1191 5.2789 14.0448 4.80536C13.9375 4.12153 13.4962 4.02441 13.3114 4.01445C12.6823 3.98041 12.2585 4.29784 12.1779 4.86352C12.1138 5.31288 12.2649 5.93115 12.627 6.70107C12.7131 6.88408 12.8096 7.0727 12.9156 7.26533C12.8761 7.39208 12.8333 7.52397 12.7869 7.66122C12.4493 8.65995 11.9921 9.72416 11.5208 10.6182ZM9.76215 12.8493C9.73602 12.8526 9.69198 12.8581 9.61669 12.7418C9.55541 12.6472 9.55209 12.5758 9.60438 12.4784C9.72665 12.2504 10.1441 11.9306 10.9518 11.6002C10.3881 12.4747 9.96674 12.8238 9.76215 12.8493ZM17.862 10.7989C17.8614 10.8034 17.86 10.8115 17.8559 10.8238C17.7644 11.1029 17.6415 11.1292 17.4325 11.0805C17.1773 11.0209 16.8532 10.8324 16.4917 10.5439C17.4706 10.5517 17.8121 10.7281 17.862 10.7989ZM12.9029 4.96694C12.9179 4.86225 12.9346 4.74452 13.2132 4.74452C13.2308 4.74452 13.2494 4.74501 13.269 4.74594C13.3524 4.84755 13.3953 5.29965 13.2023 6.19438C12.975 5.67314 12.864 5.24013 12.9029 4.96694ZM13.4129 8.09213C13.5736 8.33915 13.7465 8.58862 13.9298 8.83754C14.1927 9.19467 14.4896 9.56542 14.8038 9.91933C14.4404 9.96318 14.0656 10.0198 13.6906 10.0878C13.4369 10.1339 12.9946 10.2207 12.4768 10.3499C12.5916 10.1118 12.7049 9.86493 12.8157 9.61113C13.0359 9.10678 13.2384 8.59072 13.4129 8.09213Z" fill="white"/>
</svg>
