<svg width="78" height="78" viewBox="0 0 78 78" fill="none" xmlns="http://www.w3.org/2000/svg">
<g clip-path="url(#clip0_303_5952)">
<path d="M74.4938 41.8334C75.1249 41.8334 75.6367 41.3217 75.6367 40.6905V29.4072C75.6367 28.776 75.1249 28.2643 74.4938 28.2643H67.3941C66.7629 28.2643 66.2514 28.776 66.2514 29.4072V31.3167L61.7805 32.4373C61.722 32.4519 59.7429 33.2755 56.7067 33.8524V26.8567C56.7067 26.2255 56.195 25.7138 55.564 25.7138C54.9328 25.7138 54.4211 26.2255 54.4211 26.8567V34.2101C53.6536 34.3052 52.8361 34.3815 51.9746 34.4298V16.4833H54.4211V21.8779C54.4211 22.5091 54.9328 23.0208 55.564 23.0208C56.1952 23.0208 56.7067 22.5091 56.7067 21.8779V15.3404C56.7067 14.7092 56.195 14.1975 55.564 14.1975H50.8319C50.2007 14.1975 49.689 14.7092 49.689 15.3404V34.4871C48.8999 34.4821 48.0827 34.4515 47.241 34.3893V24.8047C47.241 24.1736 46.7293 23.6619 46.0983 23.6619H41.3662C40.735 23.6619 40.2234 24.1736 40.2234 24.8047V33.6331C39.3335 33.7041 38.4974 33.8861 37.777 34.1072V20.0726C37.777 19.4415 37.2652 18.9298 36.6341 18.9298H31.902C31.2708 18.9298 30.7591 19.4415 30.7591 20.0726V34.174C29.9533 34.043 29.1308 34.0097 28.3111 34.0281V24.8049C28.3111 24.1737 27.7994 23.662 27.1682 23.662H22.4361C21.8049 23.662 21.2932 24.1737 21.2932 24.8049V34.3262C18.105 33.8285 14.828 32.3147 11.7486 31.3673V29.4075C11.7486 28.7763 11.2368 28.2646 10.6057 28.2646H3.50616C2.875 28.2646 2.36328 28.7763 2.36328 29.4075V39.9322C2.36328 40.5633 2.875 41.0751 3.50616 41.0751C4.13732 41.0751 4.64905 40.5633 4.64905 39.9322V30.5504H9.46311V32.1655C9.46204 32.1946 9.46204 32.2236 9.46311 32.2524V54.293H4.64905V44.9128C4.64905 44.2816 4.13732 43.7699 3.50616 43.7699C2.875 43.7699 2.36328 44.2816 2.36328 44.9128V55.4359C2.36328 56.0671 2.875 56.5788 3.50616 56.5788H10.6058C11.237 56.5788 11.7487 56.0671 11.7487 55.4359V54.1285C12.5974 54.7149 13.4126 55.407 13.6462 55.9245C13.8631 56.4098 14.0887 57.1717 14.3278 57.9784C14.7612 59.4415 15.1765 60.8433 15.8087 61.7959L15.1803 62.8844C13.2795 66.177 16.5364 70.0243 20.0222 68.9878C20.5639 71.2536 23.0701 72.7027 25.3047 72.0394C26.0005 74.9444 29.6333 76.3301 32.0746 74.2964C33.2718 76.486 36.44 77.1249 38.4035 75.5262L41.5907 77.4072C44.5628 79.1232 48.4192 76.9043 48.4016 73.4604C51.6884 74.8801 55.5145 71.9068 54.6073 68.2117C57.1181 67.9278 59.0761 65.3628 58.5521 62.799C61.742 62.6006 63.8166 59.058 62.2964 56.155C64.0166 55.8489 64.9165 55.445 66.2517 54.4885V55.4357C66.2517 56.0669 66.7634 56.5786 67.3944 56.5786H74.4941C75.1252 56.5786 75.637 56.0669 75.637 55.4357V45.6711C75.637 45.04 75.1252 44.5282 74.4941 44.5282C73.8629 44.5282 73.3514 45.04 73.3514 45.6711V54.2927H68.5373V30.5501H73.3514V40.6907C73.3511 41.3219 73.8626 41.8334 74.4938 41.8334ZM44.9552 25.9475V34.1472C44.2665 34.052 42.623 33.7452 42.5088 33.7254V25.9475H44.9552ZM33.0447 21.2154H35.4912V35.1175L34.414 35.7394C33.9748 35.3884 33.5167 35.1044 33.0447 34.8762V21.2154ZM26.0253 25.9475V34.1777C25.2106 34.2575 24.3951 34.3281 23.5788 34.389V25.9475H26.0253ZM17.8918 66.6246C17.1129 66.0242 16.5922 65.0095 17.1595 64.0267L20.2352 58.6996C21.4224 56.6432 24.782 58.4567 23.5403 60.6078L20.4646 65.935C19.9456 66.8343 18.7913 67.1438 17.8918 66.6246ZM23.176 69.6755C22.2703 69.1321 21.8934 68.0315 22.444 67.0779L25.5197 61.7507C26.7034 59.7008 30.071 61.5005 28.8248 63.6588L25.7491 68.986C25.2781 69.8104 23.9742 70.1363 23.176 69.6755ZM28.4608 72.7268C27.5868 72.1329 27.145 71.1319 27.7285 70.129L30.8042 64.8018C31.9916 62.7463 35.3512 64.5592 34.1093 66.7101L31.0336 72.0373C30.5144 72.9364 29.3604 73.2458 28.4608 72.7268ZM34.7977 73.9292C33.8451 73.2533 33.6123 72.3843 34.0992 71.3226L35.5643 68.785C36.8766 66.5119 40.0499 68.6485 38.8694 70.6933L37.4045 73.2307C36.8784 74.1419 35.709 74.4554 34.7977 73.9292ZM60.2292 59.3959C59.4308 60.5211 58.4046 60.7961 57.1507 60.2209L51.2563 56.8177C50.7097 56.5018 50.0108 56.6892 49.6953 57.236C49.3796 57.7826 49.567 58.4814 50.1136 58.7971L55.2822 61.7812C56.364 62.5822 56.6214 63.598 56.055 64.8286C55.4337 65.9048 54.0526 66.2747 52.9764 65.6536L47.0935 62.2571C46.5469 61.9413 45.848 62.1288 45.5325 62.6754C45.2168 63.222 45.4042 63.921 45.9508 64.2365L51.3292 67.3416C52.451 68.1401 52.7246 69.1656 52.1501 70.4178C51.5289 71.494 50.1477 71.864 49.0711 71.2426L44.1535 68.406C43.6067 68.0906 42.9079 68.278 42.5925 68.8249C42.2772 69.3717 42.4647 70.0705 43.0115 70.3858L45.0549 71.5645C46.1237 72.366 46.3762 73.3788 45.8123 74.6026C45.1909 75.6787 43.8099 76.0488 42.7432 75.433L39.7817 73.685L40.8491 71.8359C42.5426 68.9026 40.0866 65.1006 36.6423 65.584C36.5219 62.9524 33.9083 60.9594 31.249 61.7487C30.7155 59.5204 28.3012 58.0027 25.9625 58.6982C25.1347 55.2346 20.051 54.4473 18.2559 57.5567L17.1866 59.4089C16.9325 58.7233 16.6953 57.9223 16.5194 57.3286C16.2582 56.4473 16.0116 55.6149 15.7314 54.9875C15.0074 53.3829 12.6239 51.925 11.7489 51.4312V33.7604L19.7113 36.2877C21.586 36.9225 23.7996 36.6882 25.6943 36.5054C27.7721 36.3049 30.2503 35.9904 32.2027 37.0162L25.2445 41.0335C22.8224 42.432 21.9896 45.5403 23.3879 47.9624C24.7715 50.3587 27.9202 51.203 30.3167 49.819L36.6816 46.1441C40.0842 49.6544 43.8124 51.9638 49.8886 51.9635C50.4846 51.9635 51.1032 51.9413 51.7463 51.8959L59.4046 56.3174C60.5295 57.1158 60.8045 58.142 60.2292 59.3959ZM60.217 54.1474L52.5825 49.7396C52.575 49.7353 52.5677 49.7312 52.5601 49.7271C52.5569 49.7253 52.5535 49.7236 52.5503 49.7218C52.5465 49.7198 52.5427 49.7177 52.5389 49.7157C52.5345 49.7134 52.5299 49.711 52.5255 49.7088C52.5246 49.7084 52.5237 49.7079 52.5228 49.7075C52.3243 49.6077 52.1088 49.5713 51.9007 49.5917C44.9775 50.1627 41.3459 47.8477 37.7322 43.9283C37.3699 43.5353 36.7834 43.4458 36.3206 43.7133L29.1738 47.8396C27.6232 48.5507 26.3544 48.2107 25.3672 46.8195C24.5989 45.4888 25.0566 43.7811 26.3871 43.0129C26.3871 43.0129 37.0765 36.8426 37.1269 36.8161C38.7608 36.0339 40.6107 35.6824 42.3933 36.0316C53.238 38.1977 61.4242 35.043 62.4201 34.6335L66.2514 33.6731V51.6226C63.7668 53.5589 63.4732 53.749 60.217 54.1474Z" fill="#07A0E6"/>
<path d="M25.6101 20.8633L34.2669 12.223L38.1921 16.1481C38.6383 16.5943 39.3619 16.5943 39.8083 16.1481L52.0547 3.90168V5.87514C52.0547 6.5063 52.5665 7.01802 53.1975 7.01802C53.8285 7.01802 54.3403 6.5063 54.3403 5.87514V1.14441C54.341 0.522844 53.8244 0 53.1976 0H48.4652C47.834 0 47.3225 0.511723 47.3225 1.14288C47.3225 1.77404 47.8342 2.28577 48.4652 2.28577H50.4387L39.0002 13.724L35.0759 9.79966C34.63 9.3536 33.9069 9.3533 33.4604 9.7989L23.9955 19.2457C23.5488 19.6916 23.5175 20.448 23.9939 20.862C24.4008 21.2154 25.0581 21.3514 25.6101 20.8633Z" fill="#07A0E6"/>
<path d="M19.5597 7.95585H20.5794C20.9729 7.95585 21.293 8.27592 21.293 8.66943C21.293 9.06293 20.9729 9.383 20.5794 9.383H19.4293C19.1915 9.383 18.9859 9.2299 18.9175 9.00214C18.736 8.39749 18.0991 8.05441 17.4944 8.23601C16.8898 8.41745 16.5468 9.05455 16.7283 9.65905C17.0398 10.6971 17.8919 11.441 18.9267 11.6246V12.4835C18.9267 13.1147 19.4385 13.6264 20.0696 13.6264C20.7008 13.6264 21.2125 13.1147 21.2125 12.4835V11.6014C22.5633 11.3102 23.5787 10.1062 23.5787 8.66943C23.5787 7.01558 22.2334 5.67023 20.5795 5.67023H19.5599C19.1664 5.67023 18.8463 5.35016 18.8463 4.95666C18.8463 4.56315 19.1664 4.24308 19.5599 4.24308H20.4709C20.7087 4.24308 20.9144 4.39618 20.9828 4.62394C21.1639 5.22844 21.801 5.57182 22.4057 5.39023C23.0102 5.20894 23.3532 4.57184 23.172 3.96734C22.8849 3.01031 22.1383 2.30329 21.2125 2.05481V1.14288C21.2125 0.511723 20.7008 0 20.0696 0C19.4385 0 18.9267 0.511723 18.9267 1.14288V2.02495C17.5759 2.31623 16.5605 3.52021 16.5605 4.95696C16.5605 6.6105 17.906 7.95585 19.5597 7.95585Z" fill="#07A0E6"/>
</g>
<defs>
<clipPath id="clip0_303_5952">
<rect width="78" height="78" fill="white"/>
</clipPath>
</defs>
</svg>
