<svg width="34" height="37" viewBox="0 0 34 37" fill="none" xmlns="http://www.w3.org/2000/svg">
<g clip-path="url(#clip0_336_2)">
<path d="M30.8781 25.1077H32.2714C33.2075 25.1028 33.9652 24.3005 33.9698 23.3093C33.9698 22.3161 33.2094 21.511 32.2714 21.511H31.0722C30.9374 20.2049 30.5762 18.9364 30.0067 17.7691V2.32799C30.0067 1.3347 29.2463 0.529541 28.3083 0.529541H26.0436C25.1056 0.529541 24.3451 1.3347 24.3451 2.32793V12.544C23.9744 12.4047 23.5963 12.2884 23.2128 12.1957V10.121C23.2128 9.12777 22.4524 8.32261 21.5143 8.32261H19.2497C18.3117 8.32261 17.5512 9.12777 17.5512 10.121V12.544C17.1645 12.6881 16.7863 12.8568 16.4189 13.0494V4.12637C16.4189 3.13315 15.6585 2.32799 14.7204 2.32799H12.4558C11.5178 2.32799 10.7573 3.13315 10.7573 4.12637V21.511H9.62501V16.1157C9.62501 15.1225 8.86458 14.3174 7.92654 14.3174H5.66167C4.72363 14.3174 3.9632 15.1225 3.9632 16.1157V21.511H1.69856C1.25038 21.5069 0.819873 21.6959 0.505642 22.0343C0.179914 22.3685 -0.00268872 22.8292 2.99285e-05 23.3094C2.99285e-05 24.3026 0.760459 25.1078 1.69851 25.1078H11.0182C11.7699 28.6239 14.1332 31.5087 17.3144 32.7934C20.4957 34.0781 24.073 33.5924 26.8453 31.4993L27.9476 32.67C27.8447 33.0805 27.9553 33.518 28.238 33.8192L30.1064 35.7974C30.675 36.4208 31.5169 36.6708 32.3087 36.4513C33.1006 36.2319 33.7189 35.5772 33.9261 34.7388C34.1334 33.9004 33.8973 33.0089 33.3085 32.4069L31.4402 30.4287C31.1538 30.1275 30.7374 30.0113 30.3481 30.1235L29.2486 28.9558C30.0285 27.8008 30.5825 26.4925 30.8781 25.1077ZM32.2714 22.7099C32.5841 22.7099 32.8376 22.9783 32.8376 23.3093C32.8379 23.4711 32.775 23.6258 32.6638 23.7368C32.5605 23.8481 32.4188 23.9102 32.2714 23.9088H31.0723C31.1151 23.5107 31.1374 23.1105 31.1391 22.7099H32.2714ZM25.4775 2.32799C25.4775 1.99689 25.7309 1.72853 26.0436 1.72853H28.3083C28.621 1.72853 28.8744 1.99689 28.8744 2.32799V15.9311C28.6485 15.6343 28.4081 15.3502 28.1543 15.0799C27.3716 14.2543 26.4675 13.5686 25.4774 13.0495V2.32799H25.4775ZM18.6835 10.1211C18.6835 9.78996 18.937 9.5216 19.2497 9.5216H21.5143C21.827 9.5216 22.0804 9.78996 22.0804 10.1211V11.9902C21.7045 11.9449 21.3265 11.9213 20.9481 11.9194C20.1859 11.9221 19.4263 12.0147 18.6835 12.1958V10.1211ZM12.4557 3.52691H14.7203C15.033 3.52691 15.2865 3.79528 15.2865 4.12637V13.7346C13.8502 14.7538 12.6815 16.1418 11.8895 17.7691V4.12637C11.8895 3.79528 12.143 3.52691 12.4557 3.52691ZM5.09552 16.1157C5.09552 15.7846 5.34897 15.5163 5.66167 15.5163H7.92631C8.23901 15.5163 8.49247 15.7846 8.49247 16.1157V21.511H5.09552V16.1157ZM1.69856 23.9088C1.38586 23.9088 1.1324 23.6404 1.1324 23.3093C1.13212 23.1475 1.19499 22.9929 1.30623 22.8819C1.40954 22.7706 1.55113 22.7084 1.69856 22.7099H10.7572C10.7589 23.1105 10.7812 23.5107 10.824 23.9088H1.69856ZM14.5431 29.4916C11.4874 26.2558 11.0161 21.1851 13.4173 17.3806C15.8186 13.5761 20.4236 12.0973 24.4162 13.8487C28.4087 15.6002 30.6768 20.0939 29.8334 24.5818C28.9899 29.0697 25.2698 32.3018 20.9481 32.3013C18.5443 32.3084 16.2379 31.2966 14.5431 29.4916ZM32.5058 33.2521C32.9479 33.7203 32.9479 34.4792 32.5058 34.9474C32.0578 35.4005 31.3526 35.4005 30.9047 34.9474L29.0363 32.9692L30.6375 31.2739L32.5058 33.2521ZM29.4372 30.8543L28.6355 31.7019L27.733 30.7427C27.874 30.609 28.0161 30.4814 28.1543 30.3387C28.2924 30.196 28.4084 30.0432 28.5347 29.8939L29.4372 30.8543Z" fill="#367AFF"/>
<path d="M26.5536 16.7751C23.8799 13.9438 19.6896 13.5066 16.5454 15.7308C13.4011 17.9551 12.1786 22.2213 13.6255 25.9204C15.0724 29.6196 18.7856 31.7215 22.4944 30.9406C26.2032 30.1597 28.8747 26.7136 28.8749 22.7098C28.881 20.4827 28.0451 18.3456 26.5536 16.7751ZM25.7525 27.7963C23.4605 30.2229 19.8688 30.5974 17.1739 28.6906C14.479 26.7838 13.4314 23.1269 14.6719 19.9563C15.9124 16.7858 19.0954 14.9844 22.2743 15.6541C25.4533 16.3238 27.7427 19.2779 27.7426 22.7098C27.7476 24.6187 27.031 26.4504 25.7525 27.7963Z" fill="#367AFF"/>
<path fill-rule="evenodd" clip-rule="evenodd" d="M20.9491 16.7152C19.4467 16.7106 18.0051 17.3432 16.9463 18.4717C16.7991 18.6222 16.7401 18.8451 16.7919 19.0547C16.8437 19.2643 16.9983 19.4279 17.1963 19.4828C17.3942 19.5377 17.6047 19.4752 17.7468 19.3193C18.5939 18.4165 19.7471 17.9104 20.9491 17.9142C21.2618 17.9142 21.5152 17.6458 21.5152 17.3147C21.5152 16.9836 21.2618 16.7152 20.9491 16.7152Z" fill="#367AFF"/>
<path d="M1.69848 10.1211H7.92628C8.86433 10.1211 9.62476 9.3159 9.62476 8.32267V2.32799C9.62476 1.3347 8.86433 0.529541 7.92628 0.529541H1.69848C0.760429 0.529541 0 1.3347 0 2.32799V8.32267C0 9.3159 0.760429 10.1211 1.69848 10.1211ZM1.13232 2.32799C1.13232 1.99689 1.38578 1.72853 1.69848 1.72853H7.92628C8.23898 1.72853 8.49244 1.99689 8.49244 2.32799V8.32267C8.49244 8.65377 8.23898 8.92213 7.92628 8.92213H1.69848C1.38578 8.92213 1.13232 8.65377 1.13232 8.32267V2.32799Z" fill="#367AFF"/>
<path fill-rule="evenodd" clip-rule="evenodd" d="M2.83178 4.72578H3.39794C3.71064 4.72578 3.9641 4.45741 3.9641 4.12632C3.9641 3.79522 3.71064 3.52686 3.39794 3.52686H2.83178C2.51908 3.52686 2.26562 3.79522 2.26562 4.12632C2.26562 4.45741 2.51908 4.72578 2.83178 4.72578Z" fill="#367AFF"/>
<path fill-rule="evenodd" clip-rule="evenodd" d="M5.09546 4.72578H6.79393C7.10663 4.72578 7.36009 4.45741 7.36009 4.12632C7.36009 3.79522 7.10663 3.52686 6.79393 3.52686H5.09546C4.78275 3.52686 4.5293 3.79522 4.5293 4.12632C4.5293 4.45741 4.78281 4.72578 5.09546 4.72578Z" fill="#367AFF"/>
<path fill-rule="evenodd" clip-rule="evenodd" d="M2.83178 7.12361H6.79495C7.10765 7.12361 7.36111 6.85524 7.36111 6.52414C7.36111 6.19305 7.10765 5.92468 6.79495 5.92468H2.83178C2.51908 5.92468 2.26562 6.19305 2.26562 6.52414C2.26562 6.85524 2.51908 7.12361 2.83178 7.12361Z" fill="#367AFF"/>
</g>
<defs>
<clipPath id="clip0_336_2">
<rect width="34" height="36" fill="white" transform="translate(0 0.529541)"/>
</clipPath>
</defs>
</svg>
