<svg width="37" height="37" viewBox="0 0 37 37" fill="none" xmlns="http://www.w3.org/2000/svg">
<g clip-path="url(#clip0_303_7292)">
<path d="M31.6059 13.506L30.8802 14.2322C30.7824 14.3291 30.6854 14.4137 30.5889 14.4917C31.4243 16.363 31.8936 18.433 31.8936 20.6115C31.8936 28.916 25.137 35.672 16.8321 35.672C8.52679 35.672 1.7703 28.916 1.7703 20.6115C1.7703 12.3079 8.52686 5.55232 16.8321 5.55232C18.562 5.55232 20.2227 5.84934 21.7715 6.38815V6.38764C21.9191 6.15321 22.0914 5.91972 22.3272 5.68219L22.6999 5.30893C20.8774 4.60969 18.9004 4.22278 16.8326 4.22278C7.7813 4.22336 0.441406 11.561 0.441406 20.611C0.441406 29.6624 7.7813 37 16.8322 37C25.8844 37 33.2226 29.6623 33.2226 20.611C33.2225 18.0659 32.6423 15.6553 31.6059 13.506Z" fill="#07A0E6"/>
<path d="M26.8768 15.5073H25.387C26.1449 16.8931 26.5763 18.4811 26.5763 20.1683C26.5763 25.5416 22.2044 29.9131 16.8309 29.9131C11.4571 29.9131 7.08526 25.5416 7.08526 20.1683C7.08519 14.7956 11.4571 10.4242 16.8309 10.4242C18.3414 10.4242 19.7735 10.7697 21.0508 11.3862V9.93036C19.75 9.39371 18.3251 9.0954 16.8309 9.0954C10.7142 9.0954 5.75586 14.0533 5.75586 20.1683C5.75586 26.2833 10.7142 31.2421 16.8309 31.2421C22.9464 31.2421 27.9056 26.2833 27.9056 20.1683C27.9057 18.5027 27.5351 16.9244 26.8768 15.5073Z" fill="#07A0E6"/>
<path d="M36.4558 5.47732C36.3523 5.27634 36.1848 5.13586 36.0192 5.05116C35.8522 4.96567 35.6817 4.92557 35.5072 4.90757L32.3439 4.59206C32.2795 4.58722 32.1782 4.5427 32.0989 4.46169C32.0179 4.38234 31.9733 4.28103 31.9689 4.21671L31.6521 1.05219C31.6274 0.820871 31.5662 0.590849 31.405 0.376725C31.3248 0.270928 31.2151 0.172286 31.0824 0.103561C30.9501 0.0348361 30.7977 -0.000429644 30.6541 3.95025e-06C30.4695 0.000509811 30.3056 0.0523966 30.1677 0.123362C30.0298 0.195627 29.9126 0.288128 29.8068 0.393419L23.4222 6.77803C23.1627 7.04107 22.9781 7.35745 22.8361 7.6958C22.6978 8.03552 22.6039 8.39028 22.6013 8.75992V12.4061C22.6021 12.6559 22.6665 12.8886 22.7718 13.0975L20.0246 15.9267C19.1345 15.256 18.0317 14.8529 16.8314 14.8529C13.895 14.8529 11.5156 17.2331 11.5156 20.1681C11.5156 23.1031 13.895 25.4833 16.8314 25.4833C19.7664 25.4833 22.1471 23.1031 22.1471 20.1681C22.1471 18.9123 21.7087 17.76 20.9799 16.8502L23.8254 13.9205C23.9312 13.943 24.0396 13.9562 24.1524 13.9566H27.8007C28.1704 13.954 28.5251 13.8606 28.8643 13.7222C29.2032 13.5798 29.5195 13.3953 29.783 13.1358L36.1663 6.75288C36.2716 6.64708 36.3636 6.52994 36.436 6.39162C36.5069 6.25367 36.5593 6.08984 36.5593 5.90563C36.5607 5.7624 36.5254 5.60956 36.4558 5.47732ZM16.8314 24.155C14.6327 24.155 12.8441 22.3669 12.8441 20.1686C12.8441 17.9708 14.6326 16.1822 16.8314 16.1822C17.6699 16.1822 18.448 16.4439 19.0908 16.888L16.3545 19.7062C16.0989 19.9693 16.1052 20.3901 16.3683 20.6456C16.6313 20.9012 17.0526 20.895 17.3082 20.6319L20.0427 17.8163C20.5277 18.4764 20.8181 19.288 20.8181 20.1684C20.8181 22.3669 19.0296 24.155 16.8314 24.155ZM23.9311 11.9052V8.76049C23.9285 8.64328 23.9765 8.41369 24.0651 8.20484C24.1493 7.99513 24.2779 7.799 24.363 7.71792L30.3828 1.69861L30.6476 4.34982C30.6661 4.52825 30.7172 4.69352 30.7851 4.84817L23.9311 11.9052ZM28.8436 12.1969C28.7616 12.2815 28.5664 12.4097 28.3567 12.4948C28.1478 12.5834 27.9183 12.6313 27.801 12.6287H25.0806L31.7292 5.78235C31.8798 5.84674 32.0389 5.89559 32.212 5.91409L34.8619 6.17844L28.8436 12.1969Z" fill="#07A0E6"/>
</g>
<defs>
<clipPath id="clip0_303_7292">
<rect width="37" height="37" fill="white"/>
</clipPath>
</defs>
</svg>
