<svg width="60" height="60" viewBox="0 0 60 60" fill="none" xmlns="http://www.w3.org/2000/svg">
<path d="M43.2286 16.1401H48.8639C49.3493 16.1401 49.7429 15.7466 49.7429 15.2612C49.7429 14.7758 49.3493 14.3823 48.8639 14.3823H43.5215V1.77375C46.7968 1.9841 49.868 3.37277 52.1995 5.70434C54.531 8.03578 55.9196 11.107 56.13 14.3823H52.9655C52.4801 14.3823 52.0866 14.7758 52.0866 15.2612C52.0866 15.7466 52.4801 16.1401 52.9655 16.1401H56.4382C56.836 16.1401 57.222 15.9755 57.4974 15.6885C57.7713 15.403 57.919 15.0131 57.9026 14.6189C57.7439 10.7862 56.1599 7.17891 53.4425 4.46133C50.725 1.74387 47.1176 0.159843 43.2849 0.0011713C42.8911 -0.0147662 42.5008 0.132538 42.2153 0.406406C41.9282 0.681796 41.7637 1.06781 41.7637 1.46555V14.6752C41.7637 15.4829 42.4209 16.1401 43.2286 16.1401Z" fill="#07A0E6"/>
<path d="M53.7276 38.3186C54.213 38.3186 54.6065 37.9251 54.6065 37.4397V37.3861C54.6065 36.1501 53.6009 35.1446 52.365 35.1446H51.776V34.4858C51.776 34.0004 51.3825 33.6069 50.8971 33.6069C50.4117 33.6069 50.0182 34.0004 50.0182 34.4858V35.1446H49.4291C48.1931 35.1446 47.1875 36.1501 47.1875 37.3861V38.5049C47.1875 39.7409 48.1931 40.7463 49.4291 40.7463H52.365C52.6317 40.7463 52.8487 40.9634 52.8487 41.2301V42.3489C52.8487 42.6156 52.6317 42.8325 52.365 42.8325H49.4291C49.1623 42.8325 48.9453 42.6155 48.9453 42.3489C48.9453 41.8635 48.5518 41.47 48.0664 41.47C47.581 41.47 47.1875 41.8635 47.1875 42.3489C47.1875 43.5849 48.1931 44.5903 49.4291 44.5903H50.0182V45.249C50.0182 45.7344 50.4117 46.1279 50.8971 46.1279C51.3825 46.1279 51.776 45.7344 51.776 45.249V44.5903H52.365C53.6009 44.5903 54.6065 43.5847 54.6065 42.3489V41.2301C54.6065 39.9941 53.6009 38.9885 52.365 38.9885H49.4291C49.1623 38.9885 48.9453 38.7715 48.9453 38.5049V37.3861C48.9453 37.1194 49.1623 36.9024 49.4291 36.9024H52.365C52.6317 36.9024 52.8487 37.1194 52.8487 37.3861V37.4397C52.8487 37.9251 53.2422 38.3186 53.7276 38.3186Z" fill="#07A0E6"/>
<path d="M57.0371 58.2422H54.6078V49.3272C54.6078 48.5194 53.9506 47.8622 53.1429 47.8622H48.6538C47.846 47.8622 47.1888 48.5194 47.1888 49.3272V58.2422H44.1582V42.9372C44.1582 42.1294 43.501 41.4722 42.6932 41.4722H38.2041C37.3963 41.4722 36.7392 42.1294 36.7392 42.9372V58.2422H33.7087V38.7973C33.7087 37.9895 33.0515 37.3323 32.2438 37.3323H27.7547C26.9468 37.3323 26.2897 37.9895 26.2897 38.7973V58.2422H23.2592V31.597C23.2592 30.7892 22.602 30.132 21.7943 30.132H17.3052C16.4974 30.132 15.8402 30.7892 15.8402 31.597V58.2422H12.8096V55.0202C12.8096 54.5348 12.4161 54.1413 11.9307 54.1413C11.4453 54.1413 11.0518 54.5348 11.0518 55.0202V58.2422H7.14805V28.0498H11.0514V50.9185C11.0514 51.4039 11.445 51.7974 11.9304 51.7974C12.4157 51.7974 12.8093 51.4039 12.8093 50.9185V27.757C12.8093 26.9492 12.1521 26.292 11.3443 26.292H6.8552C6.04742 26.292 5.39023 26.9492 5.39023 27.757V58.2422H2.96094C2.47555 58.2422 2.08203 58.6357 2.08203 59.1211C2.08203 59.6065 2.47555 60 2.96094 60H57.037C57.5224 60 57.9159 59.6065 57.9159 59.1211C57.9159 58.6357 57.5225 58.2422 57.0371 58.2422ZM21.5012 58.2422H17.5977V31.8898H21.5012V58.2422ZM31.9508 58.2422H28.0473V39.0902H31.9508V58.2422ZM42.4004 58.2422H38.4969V43.23H42.4004V58.2422ZM52.85 58.2422H48.9466V49.62H52.85V58.2422Z" fill="#07A0E6"/>
<path d="M3.54699 23.5229H11.0729C11.5583 23.5229 11.9518 23.1294 11.9518 22.644C11.9518 22.1586 11.5583 21.7651 11.0729 21.7651H3.83984V14.8964H29.0061V21.7651H15.1745C14.6891 21.7651 14.2955 22.1586 14.2955 22.644C14.2955 23.1294 14.6891 23.5229 15.1745 23.5229H23.6252C25.3835 30.0167 31.3269 34.8081 38.3693 34.8081C42.337 34.8081 46.0966 33.2938 48.9554 30.5442C51.8061 27.8025 53.4661 24.1207 53.6293 20.1771V20.177C53.6456 19.7827 53.4978 19.3929 53.2239 19.1074C52.9486 18.8204 52.5625 18.6558 52.1649 18.6558H39.2482V5.739C39.2482 5.34126 39.0835 4.95525 38.7965 4.67986C38.5111 4.40599 38.1234 4.25857 37.727 4.27462C33.7834 4.43798 30.1016 6.09783 27.3598 8.94853C26.1627 10.1933 25.2015 11.6095 24.4959 13.1386H3.54699C2.73922 13.1386 2.08203 13.7958 2.08203 14.6035V22.0579C2.08203 22.8657 2.73922 23.5229 3.54699 23.5229ZM39.2482 20.4136H51.8567C51.6406 23.7854 50.1849 26.9228 47.737 29.2773C45.4194 31.5063 42.4325 32.8179 39.2482 33.0222V20.4136ZM28.6268 10.167C30.9813 7.719 34.1184 6.2633 37.4904 6.04732V33.0221C31.812 32.6559 27.0805 28.7661 25.4577 23.523H29.2991C30.1068 23.523 30.764 22.8658 30.764 22.0581V14.6036C30.764 13.7959 30.1068 13.1387 29.2991 13.1387H26.462C27.0391 12.0662 27.7625 11.0656 28.6268 10.167Z" fill="#07A0E6"/>
<path d="M25.5176 18.3306C25.5176 17.8452 25.1241 17.4517 24.6387 17.4517H8.20703C7.72164 17.4517 7.32812 17.8452 7.32812 18.3306C7.32812 18.816 7.72164 19.2095 8.20703 19.2095H24.6387C25.1241 19.2095 25.5176 18.816 25.5176 18.3306Z" fill="#07A0E6"/>
<path d="M2.96094 6.84521H22.3164C22.8018 6.84521 23.1954 6.4517 23.1954 5.96631C23.1954 5.48092 22.8018 5.0874 22.3164 5.0874H2.96094C2.47555 5.0874 2.08203 5.48092 2.08203 5.96631C2.08203 6.4517 2.47555 6.84521 2.96094 6.84521Z" fill="#07A0E6"/>
<path d="M2.96094 10.6321H6.88016C7.36555 10.6321 7.75906 10.2386 7.75906 9.75317C7.75906 9.26778 7.36555 8.87427 6.88016 8.87427H2.96094C2.47555 8.87427 2.08203 9.26778 2.08203 9.75317C2.08203 10.2386 2.47555 10.6321 2.96094 10.6321Z" fill="#07A0E6"/>
<path d="M22.3178 8.87427H10.1602C9.67477 8.87427 9.28125 9.26778 9.28125 9.75317C9.28125 10.2386 9.67477 10.6321 10.1602 10.6321H22.3178C22.8032 10.6321 23.1967 10.2386 23.1967 9.75317C23.1967 9.26778 22.8032 8.87427 22.3178 8.87427Z" fill="#07A0E6"/>
</svg>
