<svg width="35" height="35" viewBox="0 0 35 35" fill="none" xmlns="http://www.w3.org/2000/svg">
<g clip-path="url(#clip0_303_7414)">
<path d="M26.5411 0H3.20769C1.59769 0.00189584 0.292911 1.30667 0.291016 2.91668V21.5834C0.29087 22.9138 1.19096 24.0756 2.47911 24.4079L2.77078 23.2786C1.99764 23.0792 1.4574 22.3819 1.45769 21.5834V2.91668C1.45769 1.95016 2.24118 1.16667 3.20769 1.16667H26.5411C27.5076 1.16667 28.2911 1.95016 28.2911 2.91668V3.50001H29.4578V2.91668C29.4559 1.30667 28.1511 0.00189584 26.5411 0Z" fill="white"/>
<path d="M3.79167 2.33331H2.625V3.49998H3.79167V2.33331Z" fill="white"/>
<path d="M6.12566 2.33331H4.95898V3.49998H6.12566V2.33331Z" fill="white"/>
<path d="M8.45769 2.33331H7.29102V3.49998H8.45769V2.33331Z" fill="white"/>
<path d="M34.5375 32.2544L29.0046 26.7214C29.2952 26.2026 29.5277 25.6533 29.6976 25.0834H30.6251V23.9168H29.9484C30.1681 22.5047 29.9987 21.0595 29.4584 19.7366V14.0001H28.2918V17.7147C27.9453 17.2722 27.5544 16.8664 27.1251 16.5037V11.6667H25.9584V15.6882C25.585 15.4718 25.1948 15.2855 24.7917 15.1311V9.33337H23.6251V14.7771C23.2407 14.6941 22.8508 14.6393 22.4584 14.6131V10.5H21.2917V14.6131C20.8994 14.6393 20.5095 14.6941 20.1251 14.7771V12.8334H18.9584V15.1311C18.5553 15.2855 18.1652 15.4718 17.7917 15.6882V12.2501H16.625V16.5037C16.1957 16.8664 15.8048 17.2722 15.4584 17.7147V13.4167H14.2917V19.7366C13.7514 21.0595 13.582 22.5047 13.8017 23.9168H6.125V25.0834H14.0525C15.3319 29.3988 19.8674 31.8599 24.1827 30.5805C25.033 30.3284 25.8366 29.9391 26.5616 29.4281L31.9627 34.8292C32.1905 35.0569 32.5597 35.0569 32.7875 34.8292L34.5375 33.0792C34.7653 32.8514 34.7653 32.4822 34.5375 32.2544ZM21.8751 29.7501C18.0108 29.746 14.8792 26.6144 14.875 22.7501C14.875 18.8841 18.0091 15.7501 21.8751 15.7501C25.7411 15.7501 28.8751 18.8841 28.8751 22.7501C28.8751 26.6161 25.7411 29.7501 21.8751 29.7501ZM32.3751 33.592L27.4681 28.685C27.786 28.3845 28.0796 28.0594 28.346 27.7125L33.3003 32.6668L32.3751 33.592Z" fill="white"/>
<path d="M21.8744 16.9167C18.6527 16.9167 16.041 19.5284 16.041 22.7501C16.041 25.9718 18.6527 28.5835 21.8744 28.5835C25.0961 28.5835 27.7077 25.9718 27.7077 22.7501C27.7042 19.5299 25.0946 16.9202 21.8744 16.9167ZM21.8744 27.4168C20.2092 27.4147 18.6714 26.5255 17.8389 25.0834H25.9099C25.0773 26.5255 23.5395 27.4147 21.8744 27.4168ZM17.3611 23.9168C16.8917 22.1405 17.5185 20.2549 18.9577 19.113V22.7501H20.1244V18.427C20.4984 18.2756 20.8907 18.1737 21.291 18.1237V22.7501H22.4577V18.1237C22.8581 18.1737 23.2503 18.2756 23.6244 18.427V22.7501H24.7911V19.113C26.2303 20.2549 26.857 22.1405 26.3876 23.9168H17.3611Z" fill="white"/>
<path d="M30.0411 4.66669H6.70769C5.09769 4.66858 3.79291 5.97336 3.79102 7.58337V26.2501C3.79291 27.8601 5.09769 29.1649 6.70769 29.1668H14.2911V28.0001H6.70769C5.74118 28.0001 4.95769 27.2166 4.95769 26.2501V7.58337C4.95769 6.61685 5.74118 5.83336 6.70769 5.83336H30.0411C31.0076 5.83336 31.7911 6.61685 31.7911 7.58337V26.2501C31.7911 26.6763 31.6355 27.0878 31.3536 27.4075L32.2286 28.1792C32.6988 27.6466 32.9581 26.9605 32.9578 26.2501V7.58337C32.9559 5.97336 31.6511 4.66858 30.0411 4.66669Z" fill="white"/>
<path d="M7.29167 7H6.125V8.16667H7.29167V7Z" fill="white"/>
<path d="M9.62566 7H8.45898V8.16667H9.62566V7Z" fill="white"/>
<path d="M11.9577 7H10.791V8.16667H11.9577V7Z" fill="white"/>
<path d="M8.45769 19.2501H7.29102V22.7501H8.45769V19.2501Z" fill="white"/>
<path d="M10.7917 15.7501H9.625V22.7501H10.7917V15.7501Z" fill="white"/>
<path d="M13.1257 17.5001H11.959V22.7501H13.1257V17.5001Z" fill="white"/>
</g>
<defs>
<clipPath id="clip0_303_7414">
<rect width="35" height="35" fill="white"/>
</clipPath>
</defs>
</svg>
