<svg width="41" height="41" viewBox="0 0 41 41" fill="none" xmlns="http://www.w3.org/2000/svg">
<g clip-path="url(#clip0_303_6022)">
<path d="M41 4.78331V0.683307C41 0.674578 40.9954 0.667291 40.995 0.658643C40.9938 0.577443 40.9777 0.497205 40.9479 0.421691L40.9469 0.41993C40.9443 0.413684 40.9395 0.409119 40.9367 0.403033C40.9062 0.336408 40.865 0.275229 40.8147 0.221896C40.7981 0.20532 40.7807 0.189625 40.7626 0.174891C40.7195 0.137014 40.6717 0.104742 40.6203 0.0790371C40.5992 0.0675859 40.5775 0.0572559 40.5552 0.048207C40.4793 0.0177773 40.3985 0.00144141 40.3166 0H18.45C18.2688 8.00781e-05 18.095 0.0720703 17.9669 0.200195L0.200436 17.9666L0.199395 17.9679C0.144461 18.0248 0.0999375 18.0908 0.0678262 18.1631C0.0364355 18.2414 0.0164961 18.3238 0.00848828 18.4078C0.00752734 18.4225 0 18.435 0 18.45V22.55C0 22.9274 0.305898 23.2333 0.683307 23.2333H5.80831C7.5058 23.2351 8.88146 24.6108 8.88331 26.3083V27.0504L0.200436 35.7333C0.0730313 35.8621 0.00112109 36.0356 0 36.2167V40.3167C0 40.6941 0.305898 41 0.683307 41H22.55C22.6422 41 22.7333 40.9813 22.818 40.9449C22.8272 40.941 22.8338 40.9325 22.8428 40.9282C22.9154 40.8947 22.9815 40.8487 23.0382 40.7924L23.0448 40.7878L36.6998 26.4498L40.7998 22.3498C40.9279 22.2217 41 22.0479 41 21.8667V17.7667C41 17.758 40.9954 17.7507 40.995 17.742C40.9938 17.6608 40.9777 17.5806 40.9479 17.5051L40.9469 17.5033C40.9443 17.4971 40.9395 17.4925 40.9367 17.4864C40.8696 17.3467 40.7585 17.2329 40.6204 17.1624C40.5993 17.1509 40.5776 17.1406 40.5553 17.1315C40.4793 17.1011 40.3985 17.0847 40.3167 17.0833H35.1917C35.1335 17.0872 35.0761 17.0988 35.0209 17.1178C34.9657 17.0988 34.9083 17.0872 34.8501 17.0833C33.256 17.0784 31.9312 15.8539 31.801 14.2652L40.7994 5.2669C40.927 5.13821 40.999 4.9646 41 4.78331ZM18.7329 1.36669H38.667L22.267 17.7667H2.33292L18.7329 1.36669ZM8.88331 28.9829V32.4583C8.88146 34.1558 7.5058 35.5315 5.80831 35.5333H2.33292L8.88331 28.9829ZM21.8667 39.6333H1.36669V36.9H5.80839C8.2603 36.8972 10.2472 34.9102 10.2501 32.4583V26.3083C10.2473 23.8564 8.2603 21.8695 5.80839 21.8666H1.36669V19.1333H21.8667V21.8666H17.425C14.9731 21.8694 12.9862 23.8564 12.9833 26.3083V32.4583C12.9861 34.9102 14.9731 36.8971 17.425 36.9H21.8667V39.6333ZM39.6333 21.5837L35.7215 25.4955L23.2333 38.6081V36.4898L36.6998 22.3498L39.6334 19.4163L39.6333 21.5837ZM34.85 18.45C34.9082 18.4462 34.9656 18.4345 35.0208 18.4155C35.076 18.4345 35.1334 18.4461 35.1916 18.45H38.667L35.7215 21.3955L22.257 35.5333H17.425C15.7275 35.5315 14.3518 34.1558 14.35 32.4583V26.3083C14.3518 24.6108 15.7275 23.2351 17.425 23.2333H22.55C22.7312 23.2327 22.9049 23.1608 23.0333 23.0329L30.6433 15.4229C31.2519 17.2293 32.9439 18.4469 34.85 18.45ZM39.6333 4.50039L30.6087 13.525L30.6083 13.5254L23.2333 20.9004V18.7329L39.6333 2.33292V4.50039Z" fill="#A9A9A9"/>
<path d="M17.3458 32.1306C17.0894 32.0242 16.7941 32.0834 16.5986 32.2805C16.4737 32.4115 16.403 32.5847 16.4004 32.7657C16.4004 33.1431 16.7064 33.449 17.0837 33.449C17.4611 33.449 17.767 33.1431 17.767 32.7657C17.7687 32.488 17.6022 32.237 17.3458 32.1306Z" fill="#A9A9A9"/>
<path d="M19.9762 29.2398C19.7389 29.1821 19.4889 29.2555 19.3203 29.4321L18.637 30.1482C18.3776 30.4214 18.3882 30.8531 18.6609 31.1132C18.9336 31.3733 19.3653 31.3637 19.626 31.0918L20.3093 30.3757C20.4779 30.1991 20.5394 29.9458 20.4707 29.7115C20.402 29.4773 20.2135 29.2975 19.9762 29.2398Z" fill="#A9A9A9"/>
<path d="M22.0559 26.5686L21.3726 27.2846C21.112 27.5577 21.1222 27.9904 21.3952 28.2509C21.6683 28.5115 22.101 28.5013 22.3615 28.2283L23.0448 27.5122C23.3054 27.2391 23.2952 26.8065 23.0222 26.5459C22.749 26.2853 22.3164 26.2955 22.0559 26.5686Z" fill="#A9A9A9"/>
<path d="M24.7884 23.7051L24.105 24.4211C23.9162 24.619 23.8635 24.9104 23.9712 25.1618C24.0788 25.4133 24.326 25.5763 24.5995 25.5762C24.7864 25.5765 24.9652 25.5 25.094 25.3647L25.7773 24.6486C26.0379 24.3756 26.0277 23.9429 25.7547 23.6823C25.4816 23.4218 25.0489 23.432 24.7884 23.7051Z" fill="#A9A9A9"/>
<path d="M28.1792 20.6479C27.9415 20.5903 27.6911 20.6642 27.5227 20.8416L26.8394 21.5576C26.6506 21.7555 26.5979 22.0469 26.7055 22.2984C26.8132 22.5498 27.0604 22.7129 27.3339 22.7128C27.5207 22.713 27.6995 22.6365 27.8284 22.5012L28.5117 21.7851C28.681 21.6086 28.743 21.355 28.6743 21.1203C28.6057 20.8856 28.417 20.7055 28.1792 20.6479Z" fill="#A9A9A9"/>
<path d="M29.8042 18.5323C29.5478 18.6387 29.3813 18.8897 29.3829 19.1674C29.3797 19.3475 29.4515 19.5208 29.5811 19.6458C29.7089 19.7763 29.8836 19.85 30.0663 19.8507C30.2489 19.85 30.4237 19.7762 30.5515 19.6458C30.681 19.5207 30.7527 19.3474 30.7497 19.1674C30.7482 18.9862 30.6773 18.8125 30.5515 18.6822C30.3559 18.485 30.0606 18.4258 29.8042 18.5323Z" fill="#A9A9A9"/>
</g>
<defs>
<clipPath id="clip0_303_6022">
<rect width="41" height="41" fill="white"/>
</clipPath>
</defs>
</svg>
