<svg width="40" height="40" viewBox="0 0 40 40" fill="none" xmlns="http://www.w3.org/2000/svg">
<g clip-path="url(#clip0_303_7473)">
<path d="M14.9895 9.31506C15.3138 9.31506 15.5766 9.05225 15.5766 8.72795V8.1017C15.5766 6.74209 14.4705 5.63592 13.1109 5.63592H13.0717V4.34443C13.0717 4.02014 12.8089 3.75732 12.4846 3.75732C12.1603 3.75732 11.8975 4.02014 11.8975 4.34443V5.64967C10.4934 5.78771 9.39258 6.97506 9.39258 8.4149C9.39258 9.94717 10.6391 11.1937 12.1714 11.1937H12.7977C13.6825 11.1937 14.4023 11.9136 14.4023 12.7984C14.4023 13.6833 13.6825 14.4031 12.7977 14.4031H11.8584C11.1462 14.4031 10.5668 13.8237 10.5668 13.1115C10.5668 12.7872 10.304 12.5244 9.97969 12.5244C9.65539 12.5244 9.39258 12.7872 9.39258 13.1115C9.39258 14.4712 10.4988 15.5773 11.8584 15.5773H11.8975V16.8689C11.8975 17.1932 12.1603 17.456 12.4846 17.456C12.8089 17.456 13.0717 17.1932 13.0717 16.8689V15.5637C14.4759 15.4256 15.5766 14.2383 15.5766 12.7984C15.5766 11.2662 14.3301 10.0196 12.7978 10.0196H12.1716C11.2867 10.0196 10.5669 9.29975 10.5669 8.4149C10.5669 7.53006 11.2867 6.81021 12.1716 6.81021H13.1109C13.823 6.81021 14.4024 7.38967 14.4024 8.10178V8.72803C14.4024 9.05225 14.6652 9.31506 14.9895 9.31506Z" fill="white"/>
<path d="M8.02511 33.5707L6.14643 28.5609C6.06057 28.3318 5.84143 28.18 5.59675 28.18C5.35206 28.18 5.13292 28.3318 5.04706 28.5609L3.16839 33.5707C3.05456 33.8744 3.20839 34.2127 3.51198 34.3266C3.81565 34.4403 4.15401 34.2866 4.26784 33.983L4.82948 32.4853H6.36401L6.92565 33.983C7.04261 34.2949 7.40706 34.4476 7.71198 34.3141C7.99362 34.1909 8.13276 33.8581 8.02511 33.5707ZM5.26979 31.3112L5.59675 30.4391L5.9237 31.3112H5.26979Z" fill="white"/>
<path d="M33.1499 33.816H33.1095C33.1103 33.8031 33.1108 33.79 33.1108 33.7769V31.8982C33.1108 31.5739 32.848 31.3111 32.5237 31.3111H30.0188C29.6945 31.3111 29.4316 31.5739 29.4316 31.8982V36.908C29.4316 37.2323 29.6945 37.4951 30.0188 37.4951H33.1498C33.4741 37.4951 33.737 37.2323 33.737 36.908V34.4031C33.737 34.0788 33.4742 33.816 33.1499 33.816ZM30.6059 32.4853H31.9366V33.7769C31.9366 33.79 31.937 33.8031 31.9379 33.816H30.645C30.6319 33.816 30.6188 33.8165 30.6059 33.8173V32.4853ZM32.5628 36.3209H30.6059V34.9889C30.6188 34.9898 30.6319 34.9902 30.645 34.9902H32.5628V36.3209Z" fill="white"/>
<path d="M34.4031 18.0822C37.4892 18.0822 40 15.5714 40 12.4853C40 9.39922 37.4892 6.88844 34.4031 6.88844C31.9911 6.88844 29.9305 8.42219 29.1455 10.5657L24.9023 9.50492C24.5896 6.98297 23.2139 4.6082 21.0209 2.86312C20.767 2.66133 20.3979 2.70336 20.1959 2.95695C19.994 3.21062 20.036 3.58008 20.2897 3.78195C22.5512 5.58125 23.7965 8.005 23.7965 10.6066C23.7965 15.8077 18.7223 20.0391 12.4853 20.0391C6.24828 20.0391 1.17414 15.8077 1.17414 10.6066C1.17414 5.40555 6.24828 1.17414 12.4853 1.17414C14.3776 1.17414 16.25 1.57195 17.9002 2.32469C18.1952 2.45914 18.5434 2.32914 18.678 2.03414C18.8126 1.73914 18.6825 1.39094 18.3875 1.25633C16.5855 0.434453 14.5445 0 12.4853 0C5.60094 0 0 4.75812 0 10.6066C0 14.9037 3.02375 18.6123 7.35852 20.2773L5.19289 25.6913C2.29484 25.8992 0 28.322 0 31.272C0 34.3581 2.51078 36.8689 5.59688 36.8689C8.68297 36.8689 11.1938 34.3581 11.1938 31.272C11.1938 28.472 9.1268 26.1459 6.43867 25.7386L8.47352 20.6516C9.7332 21.0157 11.0826 21.2134 12.4853 21.2134C14.6438 21.2134 16.6761 20.7454 18.4491 19.923L27.5454 30.232C26.3986 31.2577 25.6752 32.7473 25.6752 34.4031C25.6752 37.4892 28.1859 40 31.272 40C34.3581 40 36.8689 37.4892 36.8689 34.4031C36.8689 31.317 34.3581 28.8062 31.272 28.8062C30.265 28.8062 29.3201 29.075 28.5029 29.5423L19.5216 19.3638C22.7712 17.4734 24.9197 14.3133 24.9688 10.732L28.8618 11.7052C28.826 11.9603 28.8062 12.2205 28.8062 12.4853C28.8062 15.5714 31.317 18.0822 34.4031 18.0822ZM34.4031 8.06266C36.8418 8.06266 38.8259 10.0467 38.8259 12.4854C38.8259 14.9241 36.8418 16.9081 34.4031 16.9081C31.9645 16.9081 29.9804 14.9241 29.9804 12.4854C29.9804 10.0467 31.9645 8.06266 34.4031 8.06266ZM10.0195 31.272C10.0195 33.7107 8.03547 35.6948 5.5968 35.6948C3.15812 35.6948 1.17406 33.7107 1.17406 31.272C1.17406 28.8341 3.15688 26.8505 5.59461 26.8494C5.59531 26.8494 5.59602 26.8495 5.59664 26.8495C5.59719 26.8495 5.59766 26.8494 5.5982 26.8494C8.03633 26.8501 10.0195 28.8338 10.0195 31.272ZM31.272 29.9805C33.7107 29.9805 35.6948 31.9645 35.6948 34.4032C35.6948 36.8419 33.7107 38.8259 31.272 38.8259C28.8334 38.8259 26.8493 36.8419 26.8493 34.4032C26.8493 31.9645 28.8334 29.9805 31.272 29.9805Z" fill="white"/>
<path d="M35.7184 14.1756C35.4037 14.3756 35.039 14.4813 34.6637 14.4813C33.5774 14.4813 32.6937 13.5976 32.6937 12.5113C32.6937 11.4251 33.5774 10.5414 34.6637 10.5414C35.0489 10.5414 35.4217 10.6523 35.7418 10.8622C36.013 11.04 36.377 10.9644 36.5547 10.6932C36.7324 10.4219 36.6568 10.0581 36.3856 9.8803C35.8737 9.54475 35.2782 9.36725 34.6637 9.36725C32.9301 9.36725 31.5195 10.7777 31.5195 12.5114C31.5195 14.2451 32.93 15.6557 34.6637 15.6557C35.2624 15.6557 35.8451 15.4866 36.3483 15.1667C36.6219 14.9928 36.7027 14.6301 36.5288 14.3563C36.3549 14.0826 35.9921 14.0018 35.7184 14.1756Z" fill="white"/>
</g>
<defs>
<clipPath id="clip0_303_7473">
<rect width="40" height="40" fill="white"/>
</clipPath>
</defs>
</svg>
