<svg width="24" height="24" viewBox="0 0 24 24" fill="none" xmlns="http://www.w3.org/2000/svg">
<g clip-path="url(#clip0_303_7234)">
<path d="M22.3633 20.6485C23.2658 20.6485 24 19.9143 24 19.0118V2.34375C24 1.05141 22.9486 0 21.6562 0H2.34375C1.05141 0 0 1.05141 0 2.34375V19.0118C0 19.9143 0.73425 20.6485 1.63673 20.6485H2.15625V23.0625H0.46875C0.209859 23.0625 0 23.2724 0 23.5312C0 23.7901 0.209859 24 0.46875 24H23.5312C23.7901 24 24 23.7901 24 23.5312C24 23.2724 23.7901 23.0625 23.5312 23.0625H21.8438V20.6485H22.3633ZM0.9375 2.34375C0.9375 1.56834 1.56834 0.9375 2.34375 0.9375H21.6562C22.4317 0.9375 23.0625 1.56834 23.0625 2.34375V3.375H0.984563C0.968672 3.375 0.952969 3.37584 0.9375 3.37739V2.34375ZM5.15625 23.0625H3.09375V18.8438H5.15625V23.0625ZM10.4062 23.0625H8.34375V13.6609H10.4062V23.0625ZM15.6562 23.0625H13.5938V17.625H15.6562V23.0625ZM21.375 12.0234H18.375C18.1161 12.0234 17.9062 12.2333 17.9062 12.4922V14.8593C17.9062 15.1182 18.1161 15.3281 18.375 15.3281C18.6339 15.3281 18.8438 15.1182 18.8438 14.8593V12.9609H20.9062V23.0625H18.8438V18.0117C18.8438 17.7529 18.6339 17.543 18.375 17.543C18.1161 17.543 17.9062 17.7529 17.9062 18.0117V23.0625H16.5938V17.1562C16.5938 16.8974 16.3839 16.6875 16.125 16.6875H13.125C12.8661 16.6875 12.6562 16.8974 12.6562 17.1562V23.0625H11.3438V13.1921C11.3438 12.9333 11.1339 12.7234 10.875 12.7234H7.875C7.61611 12.7234 7.40625 12.9333 7.40625 13.1921V23.0625H6.09375V18.375C6.09375 18.1162 5.88389 17.9062 5.625 17.9062H2.625C2.36611 17.9062 2.15625 18.1162 2.15625 18.375V19.711H1.63673C1.25114 19.711 0.9375 19.3973 0.9375 19.0118V4.31011C0.952969 4.31166 0.968672 4.3125 0.984563 4.3125H23.0625V19.0118C23.0625 19.3973 22.7488 19.711 22.3633 19.711H21.8438V12.4922C21.8438 12.2333 21.6339 12.0234 21.375 12.0234Z" fill="#07A0E6"/>
<path d="M21.0009 1.6875H10.4102C10.1513 1.6875 9.94141 1.89741 9.94141 2.15625C9.94141 2.41509 10.1513 2.625 10.4102 2.625H21.0009C21.2598 2.625 21.4696 2.41509 21.4696 2.15625C21.4696 1.89741 21.2598 1.6875 21.0009 1.6875Z" fill="#07A0E6"/>
<path d="M5.20641 1.82484C5.11922 1.73766 4.99828 1.6875 4.875 1.6875C4.75172 1.6875 4.63078 1.73761 4.54359 1.82484C4.45641 1.91203 4.40625 2.03297 4.40625 2.15625C4.40625 2.27953 4.45641 2.40047 4.54359 2.48761C4.63078 2.57484 4.75172 2.625 4.875 2.625C4.99828 2.625 5.11922 2.57484 5.20641 2.48761C5.29359 2.40047 5.34375 2.27953 5.34375 2.15625C5.34375 2.03297 5.29359 1.91203 5.20641 1.82484Z" fill="#07A0E6"/>
<path d="M3.33141 1.82484C3.24422 1.73766 3.12328 1.6875 3 1.6875C2.87672 1.6875 2.75578 1.73761 2.66859 1.82484C2.58141 1.91203 2.53125 2.03297 2.53125 2.15625C2.53125 2.27953 2.58141 2.40047 2.66859 2.48761C2.75578 2.57484 2.87672 2.625 3 2.625C3.12328 2.625 3.24422 2.57484 3.33141 2.48761C3.41859 2.40047 3.46875 2.27953 3.46875 2.15625C3.46875 2.03297 3.41859 1.91203 3.33141 1.82484Z" fill="#07A0E6"/>
<path d="M7.08141 1.82484C6.99422 1.73766 6.87375 1.6875 6.75 1.6875C6.62672 1.6875 6.50578 1.73761 6.41859 1.82484C6.33141 1.91203 6.28125 2.03297 6.28125 2.15625C6.28125 2.27953 6.33141 2.40047 6.41859 2.48761C6.50578 2.57484 6.62672 2.625 6.75 2.625C6.87328 2.625 6.99422 2.57484 7.08141 2.48761C7.16859 2.40047 7.21875 2.27953 7.21875 2.15625C7.21875 2.03297 7.16859 1.91203 7.08141 1.82484Z" fill="#07A0E6"/>
<path d="M18.7064 16.1986C18.6192 16.111 18.4983 16.0613 18.375 16.0613C18.2517 16.0613 18.1308 16.111 18.0436 16.1986C17.9564 16.2858 17.9062 16.4067 17.9062 16.53C17.9062 16.6533 17.9564 16.7742 18.0436 16.8614C18.1308 16.9486 18.2517 16.9988 18.375 16.9988C18.4983 16.9988 18.6192 16.9486 18.7064 16.8614C18.7936 16.7742 18.8438 16.6533 18.8438 16.53C18.8438 16.4063 18.7936 16.2858 18.7064 16.1986Z" fill="#07A0E6"/>
<path d="M19.8749 6.37213C18.9444 6.37213 18.1874 7.12912 18.1874 8.05963C18.1874 8.42924 18.3071 8.77124 18.5095 9.04954L15.3958 12.1632C15.1541 12.0295 14.8765 11.9531 14.5813 11.9531C14.3153 11.9531 14.0636 12.0152 13.8396 12.1253L10.5884 8.87408C10.7221 8.63244 10.7985 8.35485 10.7985 8.05963C10.7985 7.12912 10.0415 6.37213 9.11102 6.37213C8.1805 6.37213 7.42352 7.12912 7.42352 8.05963C7.42352 8.38485 7.51623 8.68869 7.67627 8.9466L4.90816 11.7147C4.66652 11.5809 4.38892 11.5045 4.09375 11.5045C3.16323 11.5045 2.40625 12.2615 2.40625 13.192C2.40625 14.1225 3.16323 14.8795 4.09375 14.8795C5.02427 14.8795 5.78125 14.1225 5.78125 13.192C5.78125 12.8968 5.70484 12.6192 5.57111 12.3776L8.37226 9.57641C8.59553 9.68558 8.84622 9.74708 9.11102 9.74708C9.40619 9.74708 9.68378 9.67068 9.92542 9.53694L13.1448 12.7563C12.9858 13.0136 12.8938 13.3164 12.8938 13.6405C12.8938 14.571 13.6508 15.328 14.5813 15.328C15.5118 15.328 16.2688 14.571 16.2688 13.6405C16.2688 13.3453 16.1924 13.0677 16.0587 12.826L19.2558 9.62891C19.4477 9.70494 19.6564 9.74713 19.8749 9.74713C20.8054 9.74713 21.5624 8.99015 21.5624 8.05963C21.5624 7.12912 20.8054 6.37213 19.8749 6.37213ZM4.0938 13.9421C3.68027 13.9421 3.3438 13.6056 3.3438 13.1921C3.3438 12.7786 3.68027 12.4421 4.0938 12.4421C4.50733 12.4421 4.8438 12.7786 4.8438 13.1921C4.8438 13.6056 4.50733 13.9421 4.0938 13.9421ZM9.11106 8.80963C8.69753 8.80963 8.36106 8.47316 8.36106 8.05963C8.36106 7.6461 8.69753 7.30963 9.11106 7.30963C9.52459 7.30963 9.86106 7.6461 9.86106 8.05963C9.86106 8.47316 9.52459 8.80963 9.11106 8.80963ZM14.5814 14.3906C14.1678 14.3906 13.8314 14.0541 13.8314 13.6406C13.8314 13.227 14.1678 12.8906 14.5814 12.8906C14.9949 12.8906 15.3314 13.227 15.3314 13.6406C15.3314 14.0541 14.9949 14.3906 14.5814 14.3906ZM19.8749 8.80963C19.4613 8.80963 19.1249 8.47316 19.1249 8.05963C19.1249 7.6461 19.4613 7.30963 19.8749 7.30963C20.2884 7.30963 20.6249 7.6461 20.6249 8.05963C20.6249 8.47316 20.2884 8.80963 19.8749 8.80963Z" fill="#07A0E6"/>
<path d="M6.9525 6.04456C6.86484 5.95737 6.74437 5.90717 6.62109 5.90717C6.49734 5.90717 6.37641 5.95732 6.28922 6.04456C6.20203 6.1317 6.15234 6.25263 6.15234 6.37592C6.15234 6.4992 6.20203 6.62013 6.28922 6.70732C6.37687 6.79451 6.49734 6.84467 6.62109 6.84467C6.74437 6.84467 6.86484 6.79456 6.9525 6.70732C7.03969 6.62013 7.08984 6.4992 7.08984 6.37592C7.08984 6.25263 7.03969 6.1317 6.9525 6.04456Z" fill="#07A0E6"/>
<path d="M4.875 5.90723H2.625C2.36611 5.90723 2.15625 6.11713 2.15625 6.37598C2.15625 6.63482 2.36611 6.84473 2.625 6.84473H4.875C5.13389 6.84473 5.34375 6.63482 5.34375 6.37598C5.34375 6.11713 5.13389 5.90723 4.875 5.90723Z" fill="#07A0E6"/>
<path d="M4.875 8.15723H2.625C2.36611 8.15723 2.15625 8.36713 2.15625 8.62598C2.15625 8.88482 2.36611 9.09473 2.625 9.09473H4.875C5.13389 9.09473 5.34375 8.88482 5.34375 8.62598C5.34375 8.36713 5.13389 8.15723 4.875 8.15723Z" fill="#07A0E6"/>
</g>
<defs>
<clipPath id="clip0_303_7234">
<rect width="24" height="24" fill="white"/>
</clipPath>
</defs>
</svg>
