<svg width="57" height="57" viewBox="0 0 57 57" fill="none" xmlns="http://www.w3.org/2000/svg">
<g clip-path="url(#clip0_303_6183)">
<path d="M56.6738 10.4555L46.5429 0.32608C46.3342 0.11734 46.0511 0 45.7559 0H12.6914C10.8498 0 9.35156 1.49825 9.35156 3.33984V5.4622C3.88257 7.6075 0 12.938 0 19.1586C0 19.7733 0.498527 20.2719 1.11328 20.2719H14.7054C15.3202 20.2719 15.8187 19.7733 15.8187 19.1586V5.56641C15.8187 4.95165 15.3202 4.45312 14.7054 4.45312C13.6325 4.45312 12.5864 4.56969 11.5781 4.789V3.33984C11.5781 2.72598 12.0775 2.22656 12.6914 2.22656H44.6426V9.01758C44.6426 10.8592 46.1408 12.3574 47.9824 12.3574H54.7734V53.6602C54.7734 54.274 54.274 54.7734 53.6602 54.7734H12.6914C12.0775 54.7734 11.5781 54.274 11.5781 53.6602V44.123C11.5781 43.5083 11.0796 43.0097 10.4648 43.0097C9.85009 43.0097 9.35156 43.5083 9.35156 44.123V53.6602C9.35156 55.5017 10.8498 57 12.6914 57H53.6602C55.5017 57 57 55.5017 57 53.6602V11.2427C57 10.9475 56.8827 10.6642 56.6738 10.4555ZM13.5921 6.72901V18.0453H2.27577C2.80803 12.0505 7.59736 7.26127 13.5921 6.72901ZM47.9824 10.1309C47.3686 10.1309 46.8691 9.63144 46.8691 9.01758V3.80074L53.2001 10.1309H47.9824Z" fill="#07A0E6"/>
<path d="M11.2518 39.291C11.0449 39.0839 10.7576 38.9648 10.4648 38.9648C10.1721 38.9648 9.88482 39.0839 9.67775 39.291C9.47068 39.4981 9.35156 39.7853 9.35156 40.0781C9.35156 40.3709 9.47057 40.6581 9.67775 40.8651C9.88482 41.0723 10.1721 41.1914 10.4648 41.1914C10.7576 41.1914 11.0449 41.0723 11.2518 40.8651C11.459 40.6581 11.5781 40.3709 11.5781 40.0781C11.5781 39.7853 11.459 39.4981 11.2518 39.291Z" fill="#07A0E6"/>
<path d="M18.6936 8.44067C18.0789 8.44067 17.5803 8.9392 17.5803 9.55396V22.0327H5.10156C4.48681 22.0327 3.98828 22.5313 3.98828 23.146C3.98828 31.2546 10.585 37.8514 18.6936 37.8514C26.8022 37.8514 33.3991 31.2546 33.3991 23.146C33.3991 15.0374 26.8022 8.44067 18.6936 8.44067ZM19.8069 10.7166C22.4131 10.9479 24.7912 11.9844 26.691 13.5743L19.8069 20.4583V10.7166ZM18.6936 35.6249C12.1879 35.6249 6.82893 30.6208 6.26416 24.2593H18.6936C19.0009 24.2593 19.279 24.1348 19.4805 23.9335C19.4805 23.9335 19.4807 23.9334 19.4809 23.9332L28.2657 15.1485C30.0794 17.3158 31.1725 20.1056 31.1725 23.146C31.1725 30.0269 25.5745 35.6249 18.6936 35.6249Z" fill="#07A0E6"/>
<path d="M48.7707 35.1357C46.9291 35.1357 45.4308 36.634 45.4308 38.4756C45.4308 38.9372 45.525 39.377 45.695 39.7772L39.281 46.1912C38.8403 45.9764 38.3456 45.8556 37.8232 45.8556C37.3132 45.8556 36.8298 45.971 36.3971 46.1762L32.1379 41.917C32.2855 41.5402 32.3675 41.1306 32.3675 40.702C32.3675 38.8604 30.8692 37.3622 29.0276 37.3622C27.186 37.3622 25.6878 38.8604 25.6878 40.702C25.6878 41.201 25.7985 41.6744 25.9956 42.1L21.9104 46.1852C21.4752 45.977 20.9883 45.8602 20.4746 45.8602C18.633 45.8602 17.1348 47.3585 17.1348 49.2C17.1348 51.0416 18.633 52.5399 20.4746 52.5399C22.3162 52.5399 23.8145 51.0416 23.8145 49.2C23.8145 48.6838 23.6967 48.1946 23.4867 47.7579L27.5491 43.6955C27.9952 43.9169 28.497 44.0419 29.0278 44.0419C29.6273 44.0419 30.1899 43.8823 30.6767 43.6047L34.8158 47.7438C34.6029 48.183 34.4834 48.6755 34.4834 49.1955C34.4834 51.0371 35.9816 52.5353 37.8232 52.5353C39.6648 52.5353 41.163 51.0371 41.163 49.1955C41.163 48.688 41.0488 48.2069 40.8454 47.7758L47.1995 41.4218C47.6681 41.6727 48.203 41.8154 48.7707 41.8154C50.6122 41.8154 52.1105 40.3172 52.1105 38.4756C52.1105 36.634 50.6122 35.1357 48.7707 35.1357ZM20.4745 50.3134C19.8606 50.3134 19.3612 49.814 19.3612 49.2002C19.3612 48.5863 19.8606 48.0869 20.4745 48.0869C20.7734 48.0869 21.0445 48.2059 21.2447 48.3983C21.2491 48.4029 21.253 48.4079 21.2576 48.4125C21.2629 48.4179 21.2687 48.4223 21.2742 48.4274C21.4679 48.6278 21.5878 48.9001 21.5878 49.2002C21.5878 49.8139 21.0884 50.3134 20.4745 50.3134ZM29.0276 41.8153C28.4138 41.8153 27.9143 41.3159 27.9143 40.702C27.9143 40.0882 28.4138 39.5888 29.0276 39.5888C29.6415 39.5888 30.1409 40.0882 30.1409 40.702C30.1409 41.3159 29.6415 41.8153 29.0276 41.8153ZM37.823 50.3088C37.2091 50.3088 36.7097 49.8093 36.7097 49.1955C36.7097 48.5816 37.2091 48.0822 37.823 48.0822C38.4368 48.0822 38.9363 48.5816 38.9363 49.1955C38.9363 49.8093 38.4368 50.3088 37.823 50.3088ZM48.7704 39.5888C48.1566 39.5888 47.6572 39.0893 47.6572 38.4755C47.6572 37.8616 48.1567 37.3622 48.7704 37.3622C49.3843 37.3622 49.8837 37.8616 49.8837 38.4755C49.8837 39.0893 49.3843 39.5888 48.7704 39.5888Z" fill="#07A0E6"/>
<path d="M43.2059 26.1621H37.3301C36.7153 26.1621 36.2168 26.6606 36.2168 27.2754C36.2168 27.8901 36.7152 28.3887 37.3301 28.3887H43.2059C43.8206 28.3887 44.3191 27.8901 44.3191 27.2754C44.3191 26.6606 43.8206 26.1621 43.2059 26.1621Z" fill="#07A0E6"/>
<path d="M49.0604 26.4883C48.8535 26.2812 48.5662 26.1621 48.2734 26.1621C47.9806 26.1621 47.6934 26.2811 47.4863 26.4883C47.2793 26.6954 47.1602 26.9826 47.1602 27.2754C47.1602 27.5682 47.2792 27.8554 47.4863 28.0624C47.6934 28.2694 47.9795 28.3887 48.2734 28.3887C48.5662 28.3887 48.8535 28.2696 49.0604 28.0624C49.2675 27.8554 49.3867 27.5682 49.3867 27.2754C49.3867 26.9826 49.2676 26.6954 49.0604 26.4883Z" fill="#07A0E6"/>
<path d="M50.9293 15.4746H37.3301C36.7153 15.4746 36.2168 15.9731 36.2168 16.5879C36.2168 17.2026 36.7152 17.7012 37.3301 17.7012H50.9293C51.544 17.7012 52.0425 17.2026 52.0425 16.5879C52.0425 15.9731 51.544 15.4746 50.9293 15.4746Z" fill="#07A0E6"/>
<path d="M50.9293 20.8184H37.3301C36.7153 20.8184 36.2168 21.3169 36.2168 21.9316C36.2168 22.5464 36.7152 23.0449 37.3301 23.0449H50.9293C51.544 23.0449 52.0425 22.5464 52.0425 21.9316C52.0425 21.3169 51.544 20.8184 50.9293 20.8184Z" fill="#07A0E6"/>
</g>
<defs>
<clipPath id="clip0_303_6183">
<rect width="57" height="57" rx="20" fill="white"/>
</clipPath>
</defs>
</svg>
