<svg width="50" height="48" viewBox="0 0 50 48" fill="none" xmlns="http://www.w3.org/2000/svg">
<g clip-path="url(#clip0_303_9373)">
<path d="M46.5901 41.2971C48.4703 41.2971 50 39.8286 50 38.0235V4.6875C50 2.10281 47.8096 0 45.1172 0H4.88281C2.19043 0 0 2.10281 0 4.6875V38.0235C0 39.8286 1.52969 41.2971 3.40986 41.2971H4.49219V46.125H0.976562C0.437207 46.125 0 46.5448 0 47.0625C0 47.5802 0.437207 48 0.976562 48H49.0234C49.5628 48 50 47.5802 50 47.0625C50 46.5448 49.5628 46.125 49.0234 46.125H45.5078V41.2971H46.5901ZM1.95312 4.6875C1.95312 3.13669 3.26738 1.875 4.88281 1.875H45.1172C46.7326 1.875 48.0469 3.13669 48.0469 4.6875V6.75H2.05117C2.01807 6.75 1.98535 6.75169 1.95312 6.75478V4.6875ZM10.7422 46.125H6.44531V37.6875H10.7422V46.125ZM21.6797 46.125H17.3828V27.3218H21.6797V46.125ZM32.6172 46.125H28.3203V35.25H32.6172V46.125ZM44.5312 24.0469H38.2812C37.7419 24.0469 37.3047 24.4667 37.3047 24.9844V29.7187C37.3047 30.2363 37.7419 30.6562 38.2812 30.6562C38.8206 30.6562 39.2578 30.2363 39.2578 29.7187V25.9219H43.5547V46.125H39.2578V36.0234C39.2578 35.5057 38.8206 35.0859 38.2812 35.0859C37.7419 35.0859 37.3047 35.5057 37.3047 36.0234V46.125H34.5703V34.3125C34.5703 33.7948 34.1331 33.375 33.5938 33.375H27.3438C26.8044 33.375 26.3672 33.7948 26.3672 34.3125V46.125H23.6328V26.3843C23.6328 25.8666 23.1956 25.4468 22.6562 25.4468H16.4062C15.8669 25.4468 15.4297 25.8666 15.4297 26.3843V46.125H12.6953V36.75C12.6953 36.2323 12.2581 35.8125 11.7188 35.8125H5.46875C4.92939 35.8125 4.49219 36.2323 4.49219 36.75V39.4221H3.40986C2.60654 39.4221 1.95312 38.7947 1.95312 38.0235V8.62022C1.98535 8.62331 2.01807 8.625 2.05117 8.625H48.0469V38.0235C48.0469 38.7947 47.3934 39.4221 46.5901 39.4221H45.5078V24.9844C45.5078 24.4667 45.0706 24.0469 44.5312 24.0469Z" fill="#07A0E6"/>
<path d="M43.7495 3.375H21.6855C21.1462 3.375 20.709 3.79481 20.709 4.3125C20.709 4.83019 21.1462 5.25 21.6855 5.25H43.7495C44.2889 5.25 44.7261 4.83019 44.7261 4.3125C44.7261 3.79481 44.2889 3.375 43.7495 3.375Z" fill="#07A0E6"/>
<path d="M10.8467 3.64969C10.665 3.47531 10.4131 3.375 10.1562 3.375C9.89941 3.375 9.64746 3.47522 9.46582 3.64969C9.28418 3.82406 9.17969 4.06594 9.17969 4.3125C9.17969 4.55906 9.28418 4.80094 9.46582 4.97522C9.64746 5.14969 9.89941 5.25 10.1562 5.25C10.4131 5.25 10.665 5.14969 10.8467 4.97522C11.0283 4.80094 11.1328 4.55906 11.1328 4.3125C11.1328 4.06594 11.0283 3.82406 10.8467 3.64969Z" fill="#07A0E6"/>
<path d="M6.94043 3.64969C6.75879 3.47531 6.50684 3.375 6.25 3.375C5.99316 3.375 5.74121 3.47522 5.55957 3.64969C5.37793 3.82406 5.27344 4.06594 5.27344 4.3125C5.27344 4.55906 5.37793 4.80094 5.55957 4.97522C5.74121 5.14969 5.99316 5.25 6.25 5.25C6.50684 5.25 6.75879 5.14969 6.94043 4.97522C7.12207 4.80094 7.22656 4.55906 7.22656 4.3125C7.22656 4.06594 7.12207 3.82406 6.94043 3.64969Z" fill="#07A0E6"/>
<path d="M14.7529 3.64969C14.5713 3.47531 14.3203 3.375 14.0625 3.375C13.8057 3.375 13.5537 3.47522 13.3721 3.64969C13.1904 3.82406 13.0859 4.06594 13.0859 4.3125C13.0859 4.55906 13.1904 4.80094 13.3721 4.97522C13.5537 5.14969 13.8057 5.25 14.0625 5.25C14.3193 5.25 14.5713 5.14969 14.7529 4.97522C14.9346 4.80094 15.0391 4.55906 15.0391 4.3125C15.0391 4.06594 14.9346 3.82406 14.7529 3.64969Z" fill="#07A0E6"/>
<path d="M38.9717 32.3972C38.79 32.2219 38.5381 32.1226 38.2812 32.1226C38.0244 32.1226 37.7725 32.222 37.5908 32.3972C37.4092 32.5716 37.3047 32.8135 37.3047 33.0601C37.3047 33.3066 37.4092 33.5485 37.5908 33.7229C37.7725 33.8972 38.0244 33.9976 38.2812 33.9976C38.5381 33.9976 38.79 33.8972 38.9717 33.7229C39.1533 33.5485 39.2578 33.3066 39.2578 33.0601C39.2578 32.8126 39.1533 32.5716 38.9717 32.3972Z" fill="#07A0E6"/>
<path d="M41.4066 12.7444C39.4681 12.7444 37.891 14.2584 37.891 16.1194C37.891 16.8586 38.1405 17.5426 38.562 18.0992L32.0752 24.3265C31.5718 24.0591 30.9935 23.9063 30.3784 23.9063C29.8242 23.9063 29.2998 24.0305 28.8331 24.2507L22.0598 17.7483C22.3384 17.265 22.4976 16.7098 22.4976 16.1194C22.4976 14.2584 20.9205 12.7444 18.9819 12.7444C17.0434 12.7444 15.4663 14.2584 15.4663 16.1194C15.4663 16.7698 15.6595 17.3775 15.9929 17.8933L10.226 23.4294C9.72256 23.162 9.14424 23.0092 8.5293 23.0092C6.59072 23.0092 5.01367 24.5231 5.01367 26.3842C5.01367 28.2452 6.59072 29.7592 8.5293 29.7592C10.4679 29.7592 12.0449 28.2452 12.0449 26.3842C12.0449 25.7937 11.8857 25.2385 11.6071 24.7553L17.4429 19.1529C17.908 19.3713 18.4303 19.4943 18.9819 19.4943C19.5969 19.4943 20.1752 19.3415 20.6786 19.074L27.3856 25.5127C27.0545 26.0274 26.8628 26.633 26.8628 27.2811C26.8628 29.1421 28.4398 30.6561 30.3784 30.6561C32.317 30.6561 33.894 29.1421 33.894 27.2811C33.894 26.6906 33.7349 26.1354 33.4562 25.6522L40.1169 19.2579C40.5166 19.41 40.9515 19.4944 41.4066 19.4944C43.3452 19.4944 44.9223 17.9804 44.9223 16.1194C44.9223 14.2584 43.3452 12.7444 41.4066 12.7444ZM8.52939 27.8844C7.66787 27.8844 6.96689 27.2114 6.96689 26.3844C6.96689 25.5573 7.66787 24.8844 8.52939 24.8844C9.39092 24.8844 10.0919 25.5573 10.0919 26.3844C10.0919 27.2114 9.39092 27.8844 8.52939 27.8844ZM18.982 17.6194C18.1205 17.6194 17.4195 16.9464 17.4195 16.1194C17.4195 15.2923 18.1205 14.6194 18.982 14.6194C19.8436 14.6194 20.5445 15.2923 20.5445 16.1194C20.5445 16.9464 19.8436 17.6194 18.982 17.6194ZM30.3785 28.7813C29.517 28.7813 28.816 28.1083 28.816 27.2813C28.816 26.4542 29.517 25.7813 30.3785 25.7813C31.24 25.7813 31.941 26.4542 31.941 27.2813C31.941 28.1083 31.24 28.7813 30.3785 28.7813ZM41.4066 17.6194C40.5451 17.6194 39.8441 16.9464 39.8441 16.1194C39.8441 15.2923 40.5451 14.6194 41.4066 14.6194C42.2682 14.6194 42.9691 15.2923 42.9691 16.1194C42.9691 16.9464 42.2682 17.6194 41.4066 17.6194Z" fill="#07A0E6"/>
<path d="M14.4854 12.0892C14.3027 11.9149 14.0518 11.8145 13.7949 11.8145C13.5371 11.8145 13.2852 11.9148 13.1035 12.0892C12.9219 12.2635 12.8184 12.5054 12.8184 12.752C12.8184 12.9985 12.9219 13.2404 13.1035 13.4148C13.2861 13.5891 13.5371 13.6895 13.7949 13.6895C14.0518 13.6895 14.3027 13.5892 14.4854 13.4148C14.667 13.2404 14.7715 12.9985 14.7715 12.752C14.7715 12.5054 14.667 12.2635 14.4854 12.0892Z" fill="#07A0E6"/>
<path d="M10.1562 11.8145H5.46875C4.92939 11.8145 4.49219 12.2343 4.49219 12.752C4.49219 13.2696 4.92939 13.6895 5.46875 13.6895H10.1562C10.6956 13.6895 11.1328 13.2696 11.1328 12.752C11.1328 12.2343 10.6956 11.8145 10.1562 11.8145Z" fill="#07A0E6"/>
<path d="M10.1562 16.3145H5.46875C4.92939 16.3145 4.49219 16.7343 4.49219 17.252C4.49219 17.7696 4.92939 18.1895 5.46875 18.1895H10.1562C10.6956 18.1895 11.1328 17.7696 11.1328 17.252C11.1328 16.7343 10.6956 16.3145 10.1562 16.3145Z" fill="#07A0E6"/>
</g>
<defs>
<clipPath id="clip0_303_9373">
<rect width="50" height="48" fill="white"/>
</clipPath>
</defs>
</svg>
