<svg width="57" height="56" viewBox="0 0 57 56" fill="none" xmlns="http://www.w3.org/2000/svg">
<g clip-path="url(#clip0_303_9404)">
<path d="M43.2248 0H5.22463C2.60262 0.00303335 0.477697 2.09068 0.474609 4.66669V34.5335C0.474372 36.6621 1.94023 38.5209 4.03807 39.0527L4.51308 37.2458C3.25396 36.9268 2.37414 35.811 2.37462 34.5335V4.66669C2.37462 3.12026 3.65059 1.86667 5.22463 1.86667H43.2248C44.7988 1.86667 46.0748 3.12026 46.0748 4.66669V5.60002H47.9748V4.66669C47.9717 2.09068 45.8468 0.00303335 43.2248 0Z" fill="#07A0E6"/>
<path d="M6.1754 3.7334H4.27539V5.60007H6.1754V3.7334Z" fill="#07A0E6"/>
<path d="M9.97618 3.7334H8.07617V5.60007H9.97618V3.7334Z" fill="#07A0E6"/>
<path d="M13.7731 3.7334H11.873V5.60007H13.7731V3.7334Z" fill="#07A0E6"/>
<path d="M56.2465 51.607L47.2357 42.7543C47.709 41.9242 48.0876 41.0452 48.3643 40.1335H49.8748V38.2668H48.7728C49.1306 36.0075 48.8547 33.6952 47.9748 31.5785V22.4H46.0748V28.3435C45.5106 27.6355 44.874 26.9862 44.1748 26.4059V18.6667H42.2747V25.1011C41.6666 24.7549 41.0312 24.4568 40.3747 24.2098V14.9333H38.4747V23.6433C37.8487 23.5105 37.2137 23.4229 36.5747 23.381V16.8H34.6747V23.381C34.0357 23.4229 33.4008 23.5105 32.7747 23.6433V20.5334H30.8747V24.2098C30.2182 24.4568 29.5829 24.7549 28.9747 25.1011V19.6H27.0747V26.4059C26.3755 26.9862 25.7389 27.6355 25.1747 28.3435V21.4667H23.2747V31.5785C22.3947 33.6952 22.1189 36.0075 22.4767 38.2668H9.97461V40.1335H22.8852C24.9688 47.038 32.355 50.9758 39.3828 48.9288C40.7677 48.5253 42.0763 47.9026 43.257 47.085L52.0531 55.7267C52.4241 56.0911 53.0255 56.0911 53.3964 55.7267L56.2465 52.9267C56.6173 52.5622 56.6173 51.9714 56.2465 51.607ZM35.6247 47.6002C29.3314 47.5935 24.2314 42.583 24.2247 36.4001C24.2247 30.2145 29.3287 25.2001 35.6247 25.2001C41.9207 25.2001 47.0248 30.2145 47.0248 36.4001C47.0248 42.5857 41.9207 47.6002 35.6247 47.6002ZM52.7248 53.7471L44.7334 45.8959C45.2511 45.4152 45.7292 44.895 46.1631 44.34L54.2315 52.2668L52.7248 53.7471Z" fill="#07A0E6"/>
<path d="M35.6231 27.0669C30.3763 27.0669 26.123 31.2456 26.123 36.4003C26.123 41.555 30.3763 45.7336 35.6231 45.7336C40.8698 45.7336 45.1231 41.555 45.1231 36.4003C45.1174 31.2479 40.8675 27.0725 35.6231 27.0669ZM35.6231 43.867C32.9113 43.8636 30.4069 42.4408 29.051 40.1336H42.1952C40.8393 42.4408 38.3349 43.8636 35.6231 43.867ZM28.2729 38.2669C27.5085 35.4249 28.5292 32.4079 30.8731 30.5809V36.4003H32.7731V29.4833C33.3823 29.2411 34.021 29.078 34.6731 28.998V36.4003H36.5731V28.998C37.2251 29.078 37.8639 29.2411 38.4731 29.4833V36.4003H40.3731V30.5809C42.717 32.4079 43.7377 35.4249 42.9733 38.2669H28.2729Z" fill="#07A0E6"/>
<path d="M48.924 7.4668H10.9238C8.30184 7.46983 6.17692 9.55747 6.17383 12.1335V42.0003C6.17692 44.5763 8.30184 46.6639 10.9238 46.667H23.2739V44.8003H10.9238C9.34981 44.8003 8.07384 43.5467 8.07384 42.0003V12.1335C8.07384 10.5871 9.34981 9.33347 10.9238 9.33347H48.924C50.498 9.33347 51.774 10.5871 51.774 12.1335V42.0003C51.7739 42.6822 51.5206 43.3406 51.0615 43.852L52.4865 45.0868C53.2522 44.2347 53.6745 43.137 53.674 42.0003V12.1335C53.6709 9.55747 51.546 7.46983 48.924 7.4668Z" fill="#07A0E6"/>
<path d="M11.8746 11.2H9.97461V13.0666H11.8746V11.2Z" fill="#07A0E6"/>
<path d="M15.6754 11.2H13.7754V13.0666H15.6754V11.2Z" fill="#07A0E6"/>
<path d="M19.4742 11.2H17.5742V13.0666H19.4742V11.2Z" fill="#07A0E6"/>
<path d="M13.7731 30.8H11.873V36.4001H13.7731V30.8Z" fill="#07A0E6"/>
<path d="M17.5758 25.2002H15.6758V36.4002H17.5758V25.2002Z" fill="#07A0E6"/>
<path d="M21.3766 28H19.4766V36.4H21.3766V28Z" fill="#07A0E6"/>
</g>
<defs>
<clipPath id="clip0_303_9404">
<rect width="57" height="56" fill="white"/>
</clipPath>
</defs>
</svg>
