<svg width="30" height="30" viewBox="0 0 30 30" fill="none" xmlns="http://www.w3.org/2000/svg">
<g clip-path="url(#clip0_303_7382)">
<path d="M27.9541 25.8107C29.0822 25.8107 30 24.8929 30 23.7647V2.92969C30 1.31426 28.6857 0 27.0703 0H2.92969C1.31426 0 0 1.31426 0 2.92969V23.7647C0 24.8929 0.917812 25.8107 2.04592 25.8107H2.69531V28.8281H0.585938C0.262324 28.8281 0 29.0905 0 29.4141C0 29.7376 0.262324 30 0.585938 30H29.4141C29.7377 30 30 29.7376 30 29.4141C30 29.0905 29.7377 28.8281 29.4141 28.8281H27.3047V25.8107H27.9541ZM1.17188 2.92969C1.17188 1.96043 1.96043 1.17188 2.92969 1.17188H27.0703C28.0396 1.17188 28.8281 1.96043 28.8281 2.92969V4.21875H1.2307C1.21084 4.21875 1.19121 4.2198 1.17188 4.22174V2.92969ZM6.44531 28.8281H3.86719V23.5547H6.44531V28.8281ZM13.0078 28.8281H10.4297V17.0761H13.0078V28.8281ZM19.5703 28.8281H16.9922V22.0312H19.5703V28.8281ZM26.7188 15.0293H22.9688C22.6451 15.0293 22.3828 15.2917 22.3828 15.6152V18.5742C22.3828 18.8977 22.6451 19.1601 22.9688 19.1601C23.2924 19.1601 23.5547 18.8977 23.5547 18.5742V16.2012H26.1328V28.8281H23.5547V22.5146C23.5547 22.1911 23.2924 21.9287 22.9688 21.9287C22.6451 21.9287 22.3828 22.1911 22.3828 22.5146V28.8281H20.7422V21.4453C20.7422 21.1218 20.4799 20.8594 20.1562 20.8594H16.4062C16.0826 20.8594 15.8203 21.1218 15.8203 21.4453V28.8281H14.1797V16.4902C14.1797 16.1666 13.9174 15.9042 13.5938 15.9042H9.84375C9.52014 15.9042 9.25781 16.1666 9.25781 16.4902V28.8281H7.61719V22.9688C7.61719 22.6452 7.35486 22.3828 7.03125 22.3828H3.28125C2.95764 22.3828 2.69531 22.6452 2.69531 22.9688V24.6388H2.04592C1.56393 24.6388 1.17188 24.2467 1.17188 23.7647V5.38764C1.19121 5.38957 1.21084 5.39062 1.2307 5.39062H28.8281V23.7647C28.8281 24.2467 28.436 24.6388 27.9541 24.6388H27.3047V15.6152C27.3047 15.2917 27.0424 15.0293 26.7188 15.0293Z" fill="white"/>
<path d="M26.2501 2.10938H13.0117C12.6881 2.10938 12.4258 2.37176 12.4258 2.69531C12.4258 3.01887 12.6881 3.28125 13.0117 3.28125H26.2501C26.5737 3.28125 26.836 3.01887 26.836 2.69531C26.836 2.37176 26.5737 2.10938 26.2501 2.10938Z" fill="white"/>
<path d="M6.50801 2.28105C6.39902 2.17207 6.24785 2.10938 6.09375 2.10938C5.93965 2.10938 5.78848 2.17201 5.67949 2.28105C5.57051 2.39004 5.50781 2.54121 5.50781 2.69531C5.50781 2.84941 5.57051 3.00059 5.67949 3.10951C5.78848 3.21855 5.93965 3.28125 6.09375 3.28125C6.24785 3.28125 6.39902 3.21855 6.50801 3.10951C6.61699 3.00059 6.67969 2.84941 6.67969 2.69531C6.67969 2.54121 6.61699 2.39004 6.50801 2.28105Z" fill="white"/>
<path d="M4.16426 2.28105C4.05527 2.17207 3.9041 2.10938 3.75 2.10938C3.5959 2.10938 3.44473 2.17201 3.33574 2.28105C3.22676 2.39004 3.16406 2.54121 3.16406 2.69531C3.16406 2.84941 3.22676 3.00059 3.33574 3.10951C3.44473 3.21855 3.5959 3.28125 3.75 3.28125C3.9041 3.28125 4.05527 3.21855 4.16426 3.10951C4.27324 3.00059 4.33594 2.84941 4.33594 2.69531C4.33594 2.54121 4.27324 2.39004 4.16426 2.28105Z" fill="white"/>
<path d="M8.85176 2.28105C8.74277 2.17207 8.59219 2.10938 8.4375 2.10938C8.2834 2.10938 8.13223 2.17201 8.02324 2.28105C7.91426 2.39004 7.85156 2.54121 7.85156 2.69531C7.85156 2.84941 7.91426 3.00059 8.02324 3.10951C8.13223 3.21855 8.2834 3.28125 8.4375 3.28125C8.5916 3.28125 8.74277 3.21855 8.85176 3.10951C8.96074 3.00059 9.02344 2.84941 9.02344 2.69531C9.02344 2.54121 8.96074 2.39004 8.85176 2.28105Z" fill="white"/>
<path d="M23.383 20.2482C23.274 20.1386 23.1229 20.0765 22.9688 20.0765C22.8146 20.0765 22.6635 20.1387 22.5545 20.2482C22.4455 20.3572 22.3828 20.5084 22.3828 20.6625C22.3828 20.8166 22.4455 20.9677 22.5545 21.0767C22.6635 21.1857 22.8146 21.2484 22.9688 21.2484C23.1229 21.2484 23.274 21.1857 23.383 21.0767C23.492 20.9677 23.5547 20.8166 23.5547 20.6625C23.5547 20.5078 23.492 20.3572 23.383 20.2482Z" fill="white"/>
<path d="M24.8436 7.96515C23.6804 7.96515 22.7342 8.91138 22.7342 10.0745C22.7342 10.5365 22.8839 10.964 23.1368 11.3119L19.2447 15.204C18.9427 15.0368 18.5957 14.9413 18.2267 14.9413C17.8941 14.9413 17.5795 15.019 17.2995 15.1566L13.2355 11.0926C13.4026 10.7905 13.4981 10.4435 13.4981 10.0745C13.4981 8.91138 12.5519 7.96515 11.3888 7.96515C10.2256 7.96515 9.27939 8.91138 9.27939 10.0745C9.27939 10.481 9.39529 10.8609 9.59533 11.1832L6.1352 14.6433C5.83314 14.4761 5.48615 14.3806 5.11719 14.3806C3.95404 14.3806 3.00781 15.3269 3.00781 16.49C3.00781 17.6532 3.95404 18.5994 5.11719 18.5994C6.28033 18.5994 7.22656 17.6532 7.22656 16.49C7.22656 16.121 7.13105 15.774 6.96389 15.4719L10.4653 11.9705C10.7444 12.107 11.0578 12.1838 11.3888 12.1838C11.7577 12.1838 12.1047 12.0883 12.4068 11.9212L16.431 15.9453C16.2323 16.267 16.1173 16.6455 16.1173 17.0506C16.1173 18.2137 17.0635 19.16 18.2267 19.16C19.3898 19.16 20.336 18.2137 20.336 17.0506C20.336 16.6816 20.2405 16.3346 20.0734 16.0325L24.0697 12.0361C24.3096 12.1312 24.5705 12.1839 24.8436 12.1839C26.0067 12.1839 26.953 11.2377 26.953 10.0745C26.953 8.91138 26.0067 7.96515 24.8436 7.96515ZM5.11725 17.4276C4.60033 17.4276 4.17975 17.007 4.17975 16.4901C4.17975 15.9732 4.60033 15.5526 5.11725 15.5526C5.63416 15.5526 6.05475 15.9732 6.05475 16.4901C6.05475 17.007 5.63416 17.4276 5.11725 17.4276ZM11.3888 11.012C10.8719 11.012 10.4513 10.5914 10.4513 10.0745C10.4513 9.55761 10.8719 9.13702 11.3888 9.13702C11.9057 9.13702 12.3263 9.55761 12.3263 10.0745C12.3263 10.5914 11.9057 11.012 11.3888 11.012ZM18.2267 17.9882C17.7098 17.9882 17.2892 17.5676 17.2892 17.0507C17.2892 16.5338 17.7098 16.1132 18.2267 16.1132C18.7436 16.1132 19.1642 16.5338 19.1642 17.0507C19.1642 17.5676 18.7436 17.9882 18.2267 17.9882ZM24.8436 11.012C24.3267 11.012 23.9061 10.5914 23.9061 10.0745C23.9061 9.55761 24.3267 9.13702 24.8436 9.13702C25.3605 9.13702 25.7811 9.55761 25.7811 10.0745C25.7811 10.5914 25.3605 11.012 24.8436 11.012Z" fill="white"/>
<path d="M8.6916 7.55571C8.58203 7.44673 8.43145 7.38397 8.27734 7.38397C8.12266 7.38397 7.97148 7.44667 7.8625 7.55571C7.75352 7.66464 7.69141 7.81581 7.69141 7.96991C7.69141 8.12401 7.75352 8.27518 7.8625 8.38417C7.97207 8.49315 8.12266 8.55585 8.27734 8.55585C8.43145 8.55585 8.58203 8.49321 8.6916 8.38417C8.80059 8.27518 8.86328 8.12401 8.86328 7.96991C8.86328 7.81581 8.80059 7.66464 8.6916 7.55571Z" fill="white"/>
<path d="M6.09375 7.38403H3.28125C2.95764 7.38403 2.69531 7.64642 2.69531 7.96997C2.69531 8.29352 2.95764 8.55591 3.28125 8.55591H6.09375C6.41736 8.55591 6.67969 8.29352 6.67969 7.96997C6.67969 7.64642 6.41736 7.38403 6.09375 7.38403Z" fill="white"/>
<path d="M6.09375 10.1965H3.28125C2.95764 10.1965 2.69531 10.4589 2.69531 10.7825C2.69531 11.106 2.95764 11.3684 3.28125 11.3684H6.09375C6.41736 11.3684 6.67969 11.106 6.67969 10.7825C6.67969 10.4589 6.41736 10.1965 6.09375 10.1965Z" fill="white"/>
</g>
<defs>
<clipPath id="clip0_303_7382">
<rect width="30" height="30" fill="white"/>
</clipPath>
</defs>
</svg>
