<svg width="132" height="132" viewBox="0 0 132 132" fill="none" xmlns="http://www.w3.org/2000/svg">
<g clip-path="url(#clip0_303_5247)">
<path d="M40.1355 6.97085C35.6666 2.52802 19.714 -5.99389 6.69734 6.97085C-5.82572 19.4419 2.22853 35.8622 6.69734 40.305C7.42482 41.0325 8.36015 41.3703 9.29548 41.3703C10.2308 41.3703 11.1661 41.0065 11.8936 40.305L40.1355 12.1671C40.8369 11.4916 41.2007 10.5563 41.2007 9.56899C41.2007 8.5817 40.811 7.67235 40.1355 6.97085ZM9.60726 32.2508C7.99641 29.7046 3.78742 20.2733 11.8936 12.1671C20.5195 3.56728 29.4831 8.26992 32.0552 9.85479L9.60726 32.2508Z" fill="#FF9C35"/>
<path d="M125.302 6.89289C112.285 -6.09783 96.3329 2.45007 91.8641 6.89289C91.1626 7.56841 90.7988 8.50374 90.7988 9.49104C90.7988 10.4523 91.1886 11.3877 91.8641 12.0892L120.106 40.2531C120.833 40.9546 121.769 41.3183 122.704 41.3183C123.639 41.3183 124.575 40.9546 125.302 40.2531C129.771 35.7843 137.825 19.39 125.302 6.89289ZM122.418 32.1728L99.9703 9.77683C102.542 8.16598 111.506 3.46334 120.132 12.0892C128.238 20.1954 124.029 29.6267 122.418 32.1728Z" fill="#FF9C35"/>
<path d="M97.6843 115.106C111.506 105.233 120.522 89.0982 120.522 70.9112C120.522 40.9546 96.0735 16.584 66.013 16.584C35.9524 16.584 11.5039 40.9546 11.5039 70.9112C11.5039 89.0982 20.5195 105.233 34.3416 115.08L23.6632 125.732C22.2342 127.161 22.2342 129.473 23.6632 130.928C25.0922 132.357 27.4305 132.357 28.8595 130.928L40.759 119.055C48.3196 123.004 56.8935 125.264 66.013 125.264C75.1065 125.264 83.7063 123.004 91.2669 119.055L103.166 130.928C104.595 132.357 106.934 132.357 108.363 130.928C109.792 129.499 109.792 127.187 108.363 125.732L97.6843 115.106ZM66.013 117.912C40.0055 117.912 18.8567 96.8147 18.8567 70.9112C18.8567 45.0077 40.0055 23.9107 66.013 23.9107C92.0204 23.9107 113.169 45.0077 113.169 70.9112C113.169 96.8147 92.0204 117.912 66.013 117.912Z" fill="#FF9C35"/>
<path d="M80.3288 67.8713H69.6764V44.6699C69.6764 42.6433 68.0395 41.0065 66.013 41.0065C63.9864 41.0065 62.3496 42.6433 62.3496 44.6699V71.5347C62.3496 73.5612 63.9864 75.198 66.013 75.198H80.3288C82.3553 75.198 83.9921 73.5612 83.9921 71.5347C83.9921 69.5081 82.3553 67.8713 80.3288 67.8713Z" fill="#FF9C35"/>
</g>
<defs>
<clipPath id="clip0_303_5247">
<rect width="132" height="132" fill="white"/>
</clipPath>
</defs>
</svg>
