<svg width="38" height="41" viewBox="0 0 38 41" fill="none" xmlns="http://www.w3.org/2000/svg">
<path d="M8.90847 37.0044H1.37053V1.37053H28.7812V15.7611C28.7812 15.9429 28.8534 16.1172 28.9819 16.2457C29.1104 16.3742 29.2847 16.4464 29.4665 16.4464C29.6482 16.4464 29.8225 16.3742 29.951 16.2457C30.0795 16.1172 30.1517 15.9429 30.1517 15.7611V0.685267C30.1517 0.503523 30.0795 0.329222 29.951 0.20071C29.8225 0.0721975 29.6482 0 29.4665 0H0.685267C0.503523 0 0.329223 0.0721975 0.20071 0.20071C0.0721977 0.329222 0 0.503523 0 0.685267V37.6897C0 37.8714 0.0721977 38.0457 0.20071 38.1742C0.329223 38.3027 0.503523 38.3749 0.685267 38.3749H8.90847C9.09021 38.3749 9.26451 38.3027 9.39302 38.1742C9.52154 38.0457 9.59373 37.8714 9.59373 37.6897C9.59373 37.5079 9.52154 37.3336 9.39302 37.2051C9.26451 37.0766 9.09021 37.0044 8.90847 37.0044Z" fill="#367AFF"/>
<path d="M34.5846 24.5647L34.5969 24.5516C34.7254 24.4231 34.7975 24.2489 34.7975 24.0671C34.7975 23.8854 34.7254 23.7112 34.5969 23.5827L33.1435 22.1292L34.1124 21.1596C34.2409 21.0311 34.3131 20.8568 34.3131 20.6751C34.3131 20.4934 34.2409 20.3191 34.1124 20.1906L31.2048 17.2837C31.0739 17.1599 30.9005 17.0909 30.7203 17.0909C30.5402 17.0909 30.3668 17.1599 30.2359 17.2837L29.2669 18.2527L27.8134 16.7992C27.6849 16.6707 27.5107 16.5986 27.329 16.5986C27.1473 16.5986 26.973 16.6707 26.8445 16.7992L26.8315 16.8122C25.8005 15.8402 24.5517 15.1291 23.1896 14.7385C21.8275 14.348 20.3917 14.2893 19.0023 14.5673L16.0495 15.158C15.9014 15.1877 15.7672 15.2655 15.6679 15.3793C15.5686 15.4931 15.5097 15.6366 15.5003 15.7873C15.4909 15.9381 15.5316 16.0877 15.6161 16.213C15.7005 16.3382 15.824 16.432 15.9672 16.4799L18.487 17.32C19.5967 17.6911 20.6053 18.3144 21.4336 19.1408L22.9686 20.6758C22.8401 20.8043 22.768 20.9785 22.768 21.1602C22.768 21.342 22.8401 21.5162 22.9686 21.6447L24.4221 23.0982L11.5048 36.0155C11.243 36.2683 11.0342 36.5708 10.8905 36.9052C10.7469 37.2396 10.6712 37.5993 10.6681 37.9633C10.6649 38.3272 10.7343 38.6882 10.8721 39.025C11.0099 39.3619 11.2134 39.6679 11.4708 39.9253C11.7282 40.1827 12.0342 40.3862 12.3711 40.524C12.708 40.6619 13.0689 40.7312 13.4329 40.728C13.7968 40.7249 14.1565 40.6493 14.4909 40.5056C14.8253 40.362 15.1278 40.1531 15.3807 39.8913L28.2979 26.9747L29.7514 28.4282C29.8799 28.5567 30.0542 28.6288 30.2359 28.6288C30.4176 28.6288 30.5918 28.5567 30.7203 28.4282L32.2553 29.9632C33.0819 30.7915 33.7054 31.8001 34.0768 32.9098L34.9162 35.4282C34.9617 35.5646 35.0488 35.6832 35.1654 35.7674C35.282 35.8515 35.4221 35.8968 35.5659 35.8969H35.609C35.7596 35.8875 35.9029 35.8287 36.0166 35.7296C36.1304 35.6305 36.2082 35.4966 36.2381 35.3487L36.8288 32.3952C37.1065 31.0056 37.0477 29.5697 36.6572 28.2075C36.2668 26.8453 35.5562 25.5962 34.5846 24.5647ZM18.9201 16.0194L18.8515 15.9961L19.2743 15.9111C20.4432 15.6763 21.6511 15.7227 22.7986 16.0462C23.946 16.3698 25.0002 16.9614 25.8741 17.7723L23.9403 19.7061L22.4053 18.1718C21.4256 17.1946 20.2326 16.4578 18.9201 16.0194ZM30.7203 18.7371L32.659 20.6751L32.1745 21.1602L30.2359 19.2216L30.7203 18.7371ZM14.4117 38.923C14.1507 39.1724 13.8037 39.3115 13.4427 39.3115C13.0818 39.3115 12.7347 39.1724 12.4738 38.923C12.2168 38.666 12.0725 38.3175 12.0725 37.9541C12.0725 37.5907 12.2168 37.2421 12.4738 36.9851L25.3903 24.0671L27.329 26.0058L14.4117 38.923ZM24.4214 21.1609L27.329 18.2533L33.1435 24.0678L30.2359 26.9754L24.4214 21.1609ZM35.485 32.1252L35.4 32.5487L35.3767 32.4802C34.9382 31.1685 34.2014 29.9765 33.2243 28.9976L31.6893 27.4626L33.6238 25.5288C34.4343 26.4022 35.0258 27.4556 35.3494 28.6024C35.6729 29.7491 35.7194 30.957 35.485 32.1252Z" fill="#367AFF"/>
<path d="M29.4671 38.375H20.0446C19.8629 38.375 19.6886 38.3028 19.5601 38.1743C19.4316 38.0458 19.3594 37.8715 19.3594 37.6898C19.3594 37.508 19.4316 37.3337 19.5601 37.2052C19.6886 37.0767 19.8629 37.0045 20.0446 37.0045H28.7818V30.1518C28.7818 29.9701 28.854 29.7958 28.9825 29.6673C29.111 29.5387 29.2853 29.4666 29.4671 29.4666C29.6488 29.4666 29.8231 29.5387 29.9516 29.6673C30.0801 29.7958 30.1523 29.9701 30.1523 30.1518V37.6898C30.1523 37.8715 30.0801 38.0458 29.9516 38.1743C29.8231 38.3028 29.6488 38.375 29.4671 38.375Z" fill="#367AFF"/>
<path d="M26.7265 11.6496H25.356V5.48216C25.356 5.30041 25.2838 5.12611 25.1553 4.9976C25.0268 4.86909 24.8525 4.79689 24.6707 4.79689H21.9297C21.7479 4.79689 21.5736 4.86909 21.4451 4.9976C21.3166 5.12611 21.2444 5.30041 21.2444 5.48216V11.6496H19.8739V3.42636C19.8739 3.24461 19.8017 3.07031 19.6731 2.9418C19.5446 2.81329 19.3703 2.74109 19.1886 2.74109H16.4475C16.2658 2.74109 16.0915 2.81329 15.963 2.9418C15.8345 3.07031 15.7623 3.24461 15.7623 3.42636V11.6496H14.3917V5.48216C14.3917 5.30041 14.3195 5.12611 14.191 4.9976C14.0625 4.86909 13.8882 4.79689 13.7065 4.79689H10.9654C10.7836 4.79689 10.6093 4.86909 10.4808 4.9976C10.3523 5.12611 10.2801 5.30041 10.2801 5.48216V11.6496H8.90959V8.22322C8.90959 8.04148 8.83739 7.86718 8.70888 7.73867C8.58037 7.61015 8.40607 7.53796 8.22432 7.53796H5.48325C5.30151 7.53796 5.12721 7.61015 4.9987 7.73867C4.87019 7.86718 4.79799 8.04148 4.79799 8.22322V11.6496H3.42745C3.24571 11.6496 3.07141 11.7218 2.9429 11.8503C2.81439 11.9788 2.74219 12.1531 2.74219 12.3348C2.74219 12.5166 2.81439 12.6909 2.9429 12.8194C3.07141 12.9479 3.24571 13.0201 3.42745 13.0201H26.7265C26.9083 13.0201 27.0826 12.9479 27.2111 12.8194C27.3396 12.6909 27.4118 12.5166 27.4118 12.3348C27.4118 12.1531 27.3396 11.9788 27.2111 11.8503C27.0826 11.7218 26.9083 11.6496 26.7265 11.6496ZM6.16852 11.6496V8.90849H7.53905V11.6496H6.16852ZM11.6507 11.6496V6.16742H13.0212V11.6496H11.6507ZM17.1328 11.6496V4.11162H18.5033V11.6496H17.1328ZM22.6149 11.6496V6.16742H23.9855V11.6496H22.6149Z" fill="#367AFF"/>
<path d="M6.16518 19.1874H4.79464C4.6129 19.1874 4.4386 19.1152 4.31009 18.9867C4.18157 18.8582 4.10938 18.6839 4.10938 18.5022C4.10938 18.3204 4.18157 18.1461 4.31009 18.0176C4.4386 17.8891 4.6129 17.8169 4.79464 17.8169H6.16518C6.34692 17.8169 6.52122 17.8891 6.64973 18.0176C6.77824 18.1461 6.85044 18.3204 6.85044 18.5022C6.85044 18.6839 6.77824 18.8582 6.64973 18.9867C6.52122 19.1152 6.34692 19.1874 6.16518 19.1874Z" fill="#367AFF"/>
<path d="M17.1331 19.1874H8.90988C8.72813 19.1874 8.55383 19.1152 8.42532 18.9867C8.29681 18.8582 8.22461 18.6839 8.22461 18.5022C8.22461 18.3204 8.29681 18.1461 8.42532 18.0176C8.55383 17.8891 8.72813 17.8169 8.90988 17.8169H17.1331C17.3148 17.8169 17.4891 17.8891 17.6176 18.0176C17.7461 18.1461 17.8183 18.3204 17.8183 18.5022C17.8183 18.6839 17.7461 18.8582 17.6176 18.9867C17.4891 19.1152 17.3148 19.1874 17.1331 19.1874Z" fill="#367AFF"/>
<path d="M20.5558 23.299H4.79464C4.6129 23.299 4.4386 23.2268 4.31009 23.0983C4.18157 22.9698 4.10938 22.7955 4.10938 22.6137C4.10938 22.432 4.18157 22.2577 4.31009 22.1292C4.4386 22.0007 4.6129 21.9285 4.79464 21.9285H20.5558C20.7375 21.9285 20.9118 22.0007 21.0403 22.1292C21.1688 22.2577 21.241 22.432 21.241 22.6137C21.241 22.7955 21.1688 22.9698 21.0403 23.0983C20.9118 23.2268 20.7375 23.299 20.5558 23.299Z" fill="#367AFF"/>
<path d="M17.1294 27.4107H4.79464C4.6129 27.4107 4.4386 27.3385 4.31009 27.21C4.18157 27.0815 4.10938 26.9072 4.10938 26.7254C4.10938 26.5437 4.18157 26.3694 4.31009 26.2409C4.4386 26.1124 4.6129 26.0402 4.79464 26.0402H17.1294C17.3112 26.0402 17.4855 26.1124 17.614 26.2409C17.7425 26.3694 17.8147 26.5437 17.8147 26.7254C17.8147 26.9072 17.7425 27.0815 17.614 27.21C17.4855 27.3385 17.3112 27.4107 17.1294 27.4107Z" fill="#367AFF"/>
<path d="M13.0178 31.5223H4.79464C4.6129 31.5223 4.4386 31.4501 4.31009 31.3216C4.18157 31.193 4.10938 31.0187 4.10938 30.837C4.10938 30.6553 4.18157 30.481 4.31009 30.3524C4.4386 30.2239 4.6129 30.1517 4.79464 30.1517H13.0178C13.1996 30.1517 13.3739 30.2239 13.5024 30.3524C13.6309 30.481 13.7031 30.6553 13.7031 30.837C13.7031 31.0187 13.6309 31.193 13.5024 31.3216C13.3739 31.4501 13.1996 31.5223 13.0178 31.5223Z" fill="#367AFF"/>
</svg>
