<svg width="42" height="38" viewBox="0 0 42 38" fill="none" xmlns="http://www.w3.org/2000/svg">
<path d="M6.56171 13.0625V15.1915L5.44141 16.2051L6.36951 17.0449L9.32263 14.373C9.46063 14.2481 9.6478 14.178 9.84296 14.178C10.0381 14.178 10.2253 14.2481 10.3633 14.373C10.5013 14.4978 10.5788 14.6672 10.5788 14.8438C10.5788 15.0203 10.5013 15.1897 10.3633 15.3145L7.41016 17.9864C7.34921 18.0415 7.30087 18.107 7.26789 18.179C7.23491 18.2511 7.21793 18.3283 7.21793 18.4062C7.21793 18.4842 7.23491 18.5614 7.26789 18.6335C7.30087 18.7055 7.34921 18.771 7.41016 18.8261C7.98237 19.3451 8.30371 20.0482 8.30371 20.7812C8.30371 21.5143 7.98237 22.2174 7.41016 22.7364L4.12891 25.7051L5.05701 26.5449L6.56171 25.1835V29.6875C6.56249 30.3172 6.8393 30.9209 7.33142 31.3661C7.82353 31.8113 8.49075 32.0618 9.18671 32.0625H24.2805V30.875H12.468V29.6875H24.2805V28.5H9.18671C8.83874 28.4996 8.50514 28.3744 8.25909 28.1518C8.01303 27.9292 7.87462 27.6273 7.87421 27.3125V23.996L8.33826 23.5761C9.07698 22.9075 9.52649 22.0215 9.60532 21.0787C9.68414 20.136 9.38707 19.1989 8.76794 18.4373L11.2914 16.1542C11.6728 15.8062 11.8863 15.3355 11.8851 14.8454C11.884 14.3553 11.6682 13.8855 11.2852 13.5389C10.9021 13.1923 10.3829 12.9971 9.84113 12.9961C9.29939 12.995 8.77925 13.1882 8.39453 13.5333L7.87421 14.004V7.125C7.87462 6.81017 8.01303 6.50834 8.25909 6.28572C8.50514 6.0631 8.83874 5.93787 9.18671 5.9375H36.7492C37.0972 5.93787 37.4308 6.0631 37.6768 6.28572C37.9229 6.50834 38.0613 6.81017 38.0617 7.125V23.75H39.3742V7.125C39.3734 6.49533 39.0966 5.89165 38.6045 5.4464C38.1124 5.00116 37.4452 4.75071 36.7492 4.75H9.18671C8.49075 4.75071 7.82353 5.00116 7.33142 5.4464C6.8393 5.89165 6.56249 6.49533 6.56171 7.125V11.875H4.59296C3.897 11.8757 3.22978 12.1262 2.73766 12.5714C2.24555 13.0166 1.96874 13.6203 1.96796 14.25V19.3479L0.847656 20.3614L1.77576 21.2011L3.08826 20.0136C3.1492 19.9585 3.19753 19.893 3.23051 19.821C3.26349 19.7489 3.28046 19.6717 3.28046 19.5938V14.25C3.28087 13.9352 3.41928 13.6333 3.66534 13.4107C3.91139 13.1881 4.24499 13.0629 4.59296 13.0625H6.56171ZM9.18671 29.6875H11.1555V30.875H9.18671C8.83874 30.8746 8.50514 30.7494 8.25909 30.5268C8.01303 30.3042 7.87462 30.0023 7.87421 29.6875V29.3684C8.27285 29.5778 8.72573 29.6879 9.18671 29.6875Z" fill="#07A0E6"/>
<path d="M38.0623 24.9375C37.8387 24.9374 37.6168 24.972 37.406 25.0396V24.9375C37.4063 24.6264 37.3164 24.3206 37.1454 24.0507C36.9743 23.7808 36.728 23.5561 36.4311 23.3992C36.1342 23.2423 35.7969 23.1585 35.453 23.1562C35.1092 23.154 34.7706 23.2333 34.4712 23.3863C34.2325 23.0468 33.8735 22.7906 33.453 22.6595C33.0325 22.5284 32.5753 22.5302 32.156 22.6646V21.9688C32.156 21.4963 31.9486 21.0433 31.5794 20.7092C31.2102 20.3752 30.7094 20.1875 30.1873 20.1875C29.6651 20.1875 29.1644 20.3752 28.7952 20.7092C28.426 21.0433 28.2185 21.4963 28.2185 21.9688V26.9456L27.5313 27.2565C26.9823 27.5047 26.5149 27.879 26.1761 28.342C25.8372 28.805 25.6388 29.3404 25.6005 29.8946C25.5623 30.4488 25.6857 31.0024 25.9583 31.4999C26.231 31.9974 26.6433 32.4214 27.1539 32.7294L28.9442 33.8093C29.1247 33.9178 29.2728 34.065 29.3752 34.2378C29.4775 34.4106 29.5311 34.6036 29.531 34.7997V36.8125H30.8435V34.7997C30.8438 34.4082 30.7371 34.0227 30.5328 33.6776C30.3285 33.3325 30.033 33.0384 29.6727 32.8217L28.5817 32.1615L27.8818 31.7414C27.4085 31.4561 27.0764 31.0154 26.9559 30.5126C26.8355 30.0097 26.936 29.4842 27.2364 29.0472C27.4492 28.7343 27.7549 28.4818 28.1186 28.3184L28.2189 28.273V30.2812H29.5314V21.9688C29.5314 21.8113 29.6005 21.6603 29.7236 21.5489C29.8467 21.4376 30.0136 21.375 30.1876 21.375C30.3617 21.375 30.5286 21.4376 30.6517 21.5489C30.7747 21.6603 30.8439 21.8113 30.8439 21.9688V26.7188H32.1564V24.3438C32.1564 24.1863 32.2255 24.0353 32.3486 23.9239C32.4717 23.8126 32.6386 23.75 32.8126 23.75C32.9867 23.75 33.1536 23.8126 33.2767 23.9239C33.3997 24.0353 33.4689 24.1863 33.4689 24.3438V27.3125H34.7814V24.9375C34.7814 24.78 34.8505 24.629 34.9736 24.5177C35.0967 24.4063 35.2636 24.3438 35.4376 24.3438C35.6117 24.3438 35.7786 24.4063 35.9017 24.5177C36.0247 24.629 36.0939 24.78 36.0939 24.9375V27.9062H37.4064V26.7188C37.4064 26.5613 37.4755 26.4103 37.5986 26.2989C37.7217 26.1876 37.8886 26.125 38.0626 26.125C38.2367 26.125 38.4036 26.1876 38.5267 26.2989C38.6497 26.4103 38.7189 26.5613 38.7189 26.7188V28.8134C38.7167 30.4673 38.2912 32.0982 37.4757 33.5783C37.43 33.6607 37.4061 33.7516 37.406 33.8438V36.8125H38.7185V33.9819C39.58 32.3703 40.0287 30.6036 40.031 28.8134V26.7188C40.0304 26.2465 39.8228 25.7938 39.4537 25.4598C39.0847 25.1259 38.5843 24.938 38.0623 24.9375Z" fill="#07A0E6"/>
<path d="M29.724 11.0386C29.2432 11.0386 28.7732 11.1676 28.3734 11.4093C27.9736 11.6509 27.662 11.9944 27.478 12.3963C27.294 12.7982 27.2459 13.2405 27.3397 13.6671C27.4335 14.0938 27.665 14.4857 28.005 14.7933C28.345 15.1009 28.7781 15.3104 29.2497 15.3953C29.7213 15.4801 30.2101 15.4366 30.6543 15.2701C31.0985 15.1036 31.4781 14.8217 31.7453 14.46C32.0124 14.0983 32.155 13.6731 32.155 13.238C32.1542 12.6549 31.8979 12.0958 31.4421 11.6835C30.9864 11.2712 30.3685 11.0392 29.724 11.0386ZM29.724 14.25C29.5027 14.25 29.2865 14.1907 29.1026 14.0795C28.9186 13.9683 28.7753 13.8102 28.6906 13.6253C28.606 13.4404 28.5838 13.2369 28.627 13.0406C28.6701 12.8443 28.7766 12.664 28.9331 12.5225C29.0895 12.3809 29.2888 12.2846 29.5058 12.2455C29.7227 12.2065 29.9476 12.2265 30.152 12.3031C30.3564 12.3797 30.5311 12.5094 30.654 12.6758C30.7769 12.8422 30.8425 13.0379 30.8425 13.238C30.8421 13.5063 30.7242 13.7636 30.5145 13.9533C30.3048 14.143 30.0205 14.2497 29.724 14.25Z" fill="#07A0E6"/>
<path d="M35.8761 12.2397C35.9767 12.1575 36.0467 12.0492 36.0765 11.9296C36.1064 11.81 36.0945 11.685 36.0427 11.5717L35.4945 10.3741C35.4432 10.2605 35.3539 10.1641 35.2392 10.0986C35.1245 10.033 34.9901 10.0015 34.8546 10.0083L33.6159 10.0655L33.2304 9.71667L33.2936 8.59596C33.3006 8.4735 33.2654 8.35211 33.193 8.24846C33.1206 8.1448 33.0145 8.06397 32.8893 8.01706L31.5657 7.52113C31.4405 7.47413 31.3023 7.46339 31.1701 7.49037C31.0379 7.51735 30.9181 7.58073 30.8274 7.67179L29.9966 8.50445H29.4512L28.6207 7.67201C28.5298 7.58101 28.4101 7.51767 28.2779 7.49069C28.1457 7.46371 28.0076 7.47442 27.8824 7.52135L26.5587 8.01728C26.4335 8.0642 26.3274 8.14504 26.2551 8.24869C26.1827 8.35235 26.1475 8.47374 26.1545 8.59618L26.2176 9.71689L25.8321 10.0657L24.5934 10.0086C24.4579 10.0016 24.3234 10.0331 24.2087 10.0986C24.094 10.1642 24.0048 10.2606 23.9536 10.3743L23.4054 11.5719C23.3536 11.6852 23.3417 11.8102 23.3716 11.9298C23.4014 12.0494 23.4714 12.1577 23.572 12.2399L24.4923 12.9916V13.485L23.5722 14.2364C23.4716 14.3186 23.4016 14.4269 23.3718 14.5465C23.342 14.6661 23.3538 14.7911 23.4057 14.9044L23.9538 16.102C24.0052 16.2156 24.0945 16.3118 24.2092 16.3774C24.3238 16.4429 24.4582 16.4746 24.5937 16.4678L25.8323 16.4106L26.2179 16.7594L26.1547 17.8801C26.1478 18.0026 26.1829 18.124 26.2553 18.2276C26.3277 18.3313 26.4338 18.4121 26.559 18.459L27.8826 18.955C28.0078 19.002 28.146 19.0127 28.2782 18.9857C28.4104 18.9587 28.5301 18.8953 28.6209 18.8043L29.4517 17.9717H29.9971L30.8279 18.8043C30.9187 18.8953 31.0384 18.9587 31.1706 18.9857C31.3028 19.0127 31.441 19.002 31.5662 18.955L32.8898 18.459C33.015 18.4121 33.1211 18.3313 33.1935 18.2276C33.2659 18.124 33.3011 18.0026 33.2941 17.8801L33.2309 16.7594L33.6164 16.4106L34.8551 16.4678C34.9905 16.4743 35.1248 16.4426 35.2394 16.3771C35.354 16.3115 35.4433 16.2154 35.495 16.102L36.0432 14.9044C36.095 14.7911 36.1069 14.6661 36.077 14.5465C36.0472 14.4269 35.9772 14.3186 35.8766 14.2364L34.9563 13.4848V12.9913L35.8761 12.2397ZM33.8598 14.1895L34.6528 14.8372L34.4591 15.2602L33.392 15.2109C33.3003 15.2067 33.2087 15.22 33.123 15.2498C33.0373 15.2796 32.9594 15.3253 32.8945 15.384L32.0963 16.1062C32.0314 16.1649 31.9808 16.2353 31.9479 16.3129C31.9149 16.3904 31.9003 16.4733 31.905 16.5563L31.9595 17.5217L31.4919 17.697L30.776 16.9796C30.7145 16.9179 30.6393 16.8686 30.5554 16.8349C30.4715 16.8011 30.3807 16.7837 30.2888 16.7837H29.1601C29.0683 16.7837 28.9775 16.8011 28.8936 16.8349C28.8097 16.8686 28.7345 16.9179 28.673 16.9796L27.957 17.697L27.4894 17.5217L27.5439 16.5563C27.5487 16.4733 27.5341 16.3904 27.5011 16.3128C27.4682 16.2353 27.4176 16.1649 27.3526 16.1062L26.5545 15.384C26.4896 15.3253 26.4117 15.2796 26.326 15.2498C26.2403 15.22 26.1486 15.2067 26.0569 15.2109L24.99 15.2602L24.7961 14.8372L25.5891 14.1895C25.6573 14.1338 25.7118 14.0658 25.7491 13.9899C25.7864 13.9139 25.8057 13.8318 25.8057 13.7487V12.7274C25.8057 12.6443 25.7864 12.5622 25.7491 12.4863C25.7118 12.4104 25.6573 12.3424 25.5891 12.2867L24.7961 11.6389L24.99 11.2159L26.0569 11.2652C26.1486 11.2695 26.2403 11.2563 26.3261 11.2264C26.4118 11.1966 26.4896 11.1509 26.5545 11.0921L27.3526 10.37C27.4175 10.3113 27.4681 10.2408 27.5011 10.1633C27.534 10.0857 27.5486 10.0028 27.5439 9.9198L27.4894 8.95444L27.957 8.77906L28.673 9.49653C28.7345 9.55821 28.8097 9.60751 28.8936 9.64127C28.9775 9.67502 29.0683 9.69246 29.1601 9.69247H30.2888C30.3807 9.69247 30.4715 9.67503 30.5554 9.64128C30.6393 9.60753 30.7145 9.55822 30.776 9.49653L31.4919 8.77906L31.9595 8.95444L31.905 9.9198C31.9003 10.0028 31.9149 10.0857 31.9479 10.1633C31.9808 10.2408 32.0314 10.3113 32.0963 10.37L32.8945 11.0921C32.9594 11.1508 33.0372 11.1966 33.1229 11.2264C33.2086 11.2562 33.3003 11.2694 33.392 11.2652L34.4591 11.2159L34.6528 11.6389L33.8598 12.2867C33.7917 12.3424 33.7372 12.4104 33.6999 12.4863C33.6626 12.5622 33.6433 12.6443 33.6433 12.7274V13.7487C33.6433 13.8318 33.6626 13.9139 33.6999 13.9899C33.7372 14.0658 33.7917 14.1338 33.8598 14.1895Z" fill="#07A0E6"/>
<path d="M11.1562 24.9375V26.125H25.5938V24.9375H24.2812V23.1562H22.9688V24.9375H21.6562V21.9688H20.3438V24.9375H19.0312V20.1875H17.7188V24.9375H16.4062V21.9688H15.0938V24.9375H13.7812V23.1562H12.4688V24.9375H11.1562Z" fill="#07A0E6"/>
<path d="M11.8125 8.3125H13.125V9.5H11.8125V8.3125Z" fill="#07A0E6"/>
<path d="M14.4375 8.3125H21V9.5H14.4375V8.3125Z" fill="#07A0E6"/>
<path d="M10.5 10.6875H21V11.875H10.5V10.6875Z" fill="#07A0E6"/>
<path d="M13.125 13.0625H21V14.25H13.125V13.0625Z" fill="#07A0E6"/>
<path d="M13.125 15.4375H19.6875V16.625H13.125V15.4375Z" fill="#07A0E6"/>
<path d="M12.4688 2.375H29.5312V3.5625H12.4688V2.375Z" fill="#07A0E6"/>
<path d="M30.8438 2.375H32.1562V3.5625H30.8438V2.375Z" fill="#07A0E6"/>
</svg>
