<svg width="64" height="64" viewBox="0 0 64 64" fill="none" xmlns="http://www.w3.org/2000/svg">
<path d="M53.9998 45H50.9998V43.1925C51.9112 42.6661 52.6682 41.9092 53.1948 40.9978C53.7214 40.0864 53.999 39.0526 53.9998 38V33C53.9998 32.9713 53.9985 32.9438 53.996 32.915C53.9441 31.3848 53.3232 29.9291 52.2548 28.8325C51.7063 28.2551 51.0465 27.795 50.3151 27.4801C49.5837 27.1651 48.7961 27.0018 47.9998 27V6C47.9998 5.73479 47.8944 5.48043 47.7069 5.2929C47.5193 5.10536 47.265 5 46.9998 5H30.7873C28.1757 2.43445 24.6606 0.997883 20.9998 1C20.7345 1 20.4802 1.10536 20.2927 1.2929C20.1051 1.48043 19.9998 1.73479 19.9998 2V5H18.9998C18.9998 4.73479 18.8944 4.48043 18.7069 4.2929C18.5193 4.10536 18.265 4 17.9998 4C16.2201 3.99811 14.4566 4.33757 12.8048 5H8.99976C8.73454 5 8.48019 5.10536 8.29265 5.2929C8.10511 5.48043 7.99976 5.73479 7.99976 6V8.2125C5.43615 10.8253 4 14.3396 4 18C4 21.6604 5.43615 25.1747 7.99976 27.7875V62C7.99976 62.2652 8.10511 62.5196 8.29265 62.7071C8.48019 62.8946 8.73454 63 8.99976 63H58.9998C59.265 63 59.5193 62.8946 59.7069 62.7071C59.8944 62.5196 59.9998 62.2652 59.9998 62V51C59.9981 49.4092 59.3654 47.8841 58.2405 46.7592C57.1157 45.6344 55.5905 45.0017 53.9998 45ZM51.9998 38C51.9998 39.0609 51.5783 40.0783 50.8282 40.8284C50.078 41.5786 49.0606 42 47.9998 42C46.9389 42 45.9215 41.5786 45.1713 40.8284C44.4212 40.0783 43.9998 39.0609 43.9998 38V35.01C44.2348 35.025 44.4985 35.035 44.7935 35.035C46.411 35.035 48.911 34.7425 51.9998 33.4363V38ZM48.9998 43.915V46C48.9998 46.2652 48.8944 46.5196 48.7069 46.7071C48.5193 46.8946 48.265 47 47.9998 47C47.7345 47 47.4802 46.8946 47.2926 46.7071C47.1051 46.5196 46.9998 46.2652 46.9998 46V43.915C47.6616 44.0283 48.3379 44.0283 48.9998 43.915ZM47.9998 29C49.581 29 50.9823 30.005 51.626 31.4175C49.146 32.5225 47.111 32.8888 45.7873 32.995C45.1926 33.0449 44.5949 33.0478 43.9998 33.0038V33C44.0011 31.9396 44.423 30.923 45.1729 30.1731C45.9227 29.4233 46.9393 29.0014 47.9998 29ZM21.9998 3.04125C24.8257 3.28142 27.4757 4.51313 29.4812 6.51858C31.4866 8.52404 32.7183 11.174 32.9585 14H21.9998V3.04125ZM5.99976 18C6.00338 14.9915 7.1354 12.0938 9.17211 9.87959C11.2088 7.66536 14.002 6.29569 16.9998 6.04125V18C16.9998 18.2652 17.1051 18.5196 17.2927 18.7071C17.4802 18.8946 17.7345 19 17.9998 19H29.9585C29.7019 22.0863 28.2621 24.954 25.9401 27.0032C23.618 29.0524 20.5936 30.1246 17.4993 29.9954C14.405 29.8663 11.4805 28.5458 9.33732 26.3102C7.19412 24.0746 5.99824 21.097 5.99976 18ZM35.9998 51V61H9.99976V29.4825C12.098 30.9466 14.5574 31.8074 17.1107 31.9713C19.664 32.1352 22.2133 31.5959 24.4815 30.412C26.7496 29.2282 28.6498 27.4452 29.9754 25.2568C31.3009 23.0684 32.0011 20.5585 31.9998 18C31.9998 17.7348 31.8944 17.4804 31.7069 17.2929C31.5193 17.1054 31.265 17 30.9998 17H18.9998V7H19.9998V15C19.9998 15.2652 20.1051 15.5196 20.2927 15.7071C20.4802 15.8946 20.7345 16 20.9998 16H33.9998C34.265 16 34.5193 15.8946 34.7069 15.7071C34.8944 15.5196 34.9998 15.2652 34.9998 15C35.0032 12.1379 34.1241 9.34434 32.4823 7H45.9998V27.3438C44.8309 27.7587 43.819 28.525 43.1029 29.5376C42.3868 30.5503 42.0014 31.7597 41.9998 33V38C42.0005 39.0526 42.2782 40.0864 42.8047 40.9978C43.3313 41.9092 44.0883 42.6661 44.9998 43.1925V45H41.9998C40.409 45.0017 38.8838 45.6344 37.759 46.7592C36.6341 47.8841 36.0014 49.4092 35.9998 51ZM57.9998 61H55.9998V52C55.9998 51.7348 55.8944 51.4804 55.7069 51.2929C55.5193 51.1054 55.265 51 54.9998 51C54.7345 51 54.4802 51.1054 54.2926 51.2929C54.1051 51.4804 53.9998 51.7348 53.9998 52V61H41.9998V52C41.9998 51.7348 41.8944 51.4804 41.7069 51.2929C41.5193 51.1054 41.265 51 40.9998 51C40.7345 51 40.4802 51.1054 40.2926 51.2929C40.1051 51.4804 39.9998 51.7348 39.9998 52V61H37.9998V51C38.0011 49.9396 38.423 48.923 39.1729 48.1731C39.9227 47.4233 40.9393 47.0014 41.9998 47H45.1723C45.3789 47.5848 45.7617 48.0912 46.2681 48.4494C46.7745 48.8075 47.3795 48.9999 47.9998 48.9999C48.62 48.9999 49.225 48.8075 49.7314 48.4494C50.2378 48.0912 50.6207 47.5848 50.8273 47H53.9998C55.0602 47.0014 56.0768 47.4233 56.8266 48.1731C57.5765 48.923 57.9984 49.9396 57.9998 51V61Z" fill="#07A0E6"/>
<path d="M18 48H14C13.7348 48 13.4804 48.1054 13.2929 48.2929C13.1054 48.4804 13 48.7348 13 49V58C13 58.2652 13.1054 58.5196 13.2929 58.7071C13.4804 58.8946 13.7348 59 14 59H18C18.2652 59 18.5196 58.8946 18.7071 58.7071C18.8946 58.5196 19 58.2652 19 58V49C19 48.7348 18.8946 48.4804 18.7071 48.2929C18.5196 48.1054 18.2652 48 18 48ZM17 57H15V50H17V57Z" fill="#07A0E6"/>
<path d="M25 45H21C20.7348 45 20.4804 45.1054 20.2929 45.2929C20.1054 45.4804 20 45.7348 20 46V58C20 58.2652 20.1054 58.5196 20.2929 58.7071C20.4804 58.8946 20.7348 59 21 59H25C25.2652 59 25.5196 58.8946 25.7071 58.7071C25.8946 58.5196 26 58.2652 26 58V46C26 45.7348 25.8946 45.4804 25.7071 45.2929C25.5196 45.1054 25.2652 45 25 45ZM24 57H22V47H24V57Z" fill="#07A0E6"/>
<path d="M32 42H28C27.7348 42 27.4804 42.1054 27.2929 42.2929C27.1054 42.4804 27 42.7348 27 43V58C27 58.2652 27.1054 58.5196 27.2929 58.7071C27.4804 58.8946 27.7348 59 28 59H32C32.2652 59 32.5196 58.8946 32.7071 58.7071C32.8946 58.5196 33 58.2652 33 58V43C33 42.7348 32.8946 42.4804 32.7071 42.2929C32.5196 42.1054 32.2652 42 32 42ZM31 57H29V44H31V57Z" fill="#07A0E6"/>
<path d="M36.8183 31.4266C36.743 31.319 36.6472 31.2273 36.5364 31.1567C36.4257 31.0861 36.3021 31.038 36.1728 31.0152C36.0435 30.9924 35.9109 30.9953 35.7827 31.0237C35.6545 31.0521 35.5331 31.1055 35.4255 31.1808L26.999 37.0794V34.0001C26.999 33.8222 26.9515 33.6475 26.8615 33.494C26.7715 33.3406 26.6421 33.214 26.4868 33.1272C26.3315 33.0404 26.1559 32.9966 25.978 33.0004C25.8002 33.0041 25.6265 33.0552 25.475 33.1484L12.475 41.1484C12.3614 41.2164 12.2624 41.3062 12.1838 41.4127C12.1052 41.5192 12.0485 41.6403 12.017 41.7688C11.9855 41.8974 11.9799 42.031 12.0004 42.1618C12.0209 42.2925 12.0672 42.4179 12.1366 42.5307C12.206 42.6434 12.297 42.7413 12.4045 42.8186C12.512 42.8959 12.6338 42.951 12.7627 42.9809C12.8917 43.0107 13.0253 43.0147 13.1558 42.9925C13.2863 42.9703 13.4111 42.9225 13.523 42.8517L24.999 35.7896V39C24.999 39.183 25.0492 39.3624 25.1441 39.5188C25.239 39.6752 25.3749 39.8026 25.5372 39.8871C25.6995 39.9716 25.8818 40.0099 26.0643 39.998C26.2469 39.986 26.4227 39.9242 26.5725 39.8193L36.5725 32.8193C36.6801 32.744 36.7718 32.6482 36.8424 32.5375C36.913 32.4267 36.961 32.3032 36.9839 32.1738C37.0067 32.0445 37.0038 31.9119 36.9754 31.7837C36.947 31.6555 36.8936 31.5341 36.8183 31.4266Z" fill="#07A0E6"/>
</svg>
