<svg width="28" height="26" viewBox="0 0 28 26" fill="none" xmlns="http://www.w3.org/2000/svg">
<g clip-path="url(#clip0_538_2174)">
<path d="M6.55717 23.9357C6.66379 24.2608 6.87988 24.5456 7.1737 24.7482C7.46752 24.9509 7.82358 25.0607 8.18957 25.0615C8.3554 25.0616 8.5204 25.0397 8.67957 24.9965L19.7732 21.8947L21.7696 21.6529C21.9916 21.6263 22.2057 21.5593 22.3998 21.4557C22.5939 21.3522 22.7641 21.2141 22.9006 21.0494C23.0371 20.8847 23.1374 20.6966 23.1955 20.4959C23.2537 20.2952 23.2687 20.0858 23.2396 19.8797L22.1868 12.4177L25.502 7.69611L26.3196 6.54951L26.7116 5.98011C26.9867 5.58913 27.0833 5.11267 26.9801 4.65555C26.8769 4.19843 26.5824 3.7981 26.1614 3.54261C25.7403 3.28713 25.2272 3.19743 24.7349 3.29324C24.2426 3.38905 23.8115 3.66253 23.5364 4.05351L23.1332 4.62811L22.3268 5.77211L21.4224 7.05651L20.7476 2.28551C20.7186 2.07961 20.6462 1.88102 20.5345 1.7011C20.4228 1.52119 20.2741 1.36346 20.0967 1.23694C19.9194 1.11042 19.717 1.01759 19.501 0.963739C19.285 0.909891 19.0597 0.896087 18.838 0.923114L7.05557 2.36091C6.62694 2.41231 6.23558 2.61365 5.96136 2.92385C5.68714 3.23404 5.55073 3.62971 5.57997 4.03011L2.19197 4.97651C1.75988 5.09734 1.39714 5.37252 1.18345 5.74159C0.96976 6.11065 0.922613 6.54339 1.05237 6.94471L6.55717 23.9357ZM23.6064 5.37951L24.4912 5.91511L25.3732 6.45071L25.026 6.94471L23.2592 5.87351L23.6064 5.37951ZM24.2392 4.47731C24.3925 4.25941 24.6328 4.107 24.9072 4.05361C25.1815 4.00022 25.4675 4.05022 25.7022 4.19261C25.9368 4.33501 26.101 4.55813 26.1585 4.8129C26.216 5.06767 26.1621 5.33321 26.0088 5.55111L25.8352 5.79811L24.0796 4.72431L24.2392 4.47731ZM22.8 6.52611L23.6848 7.06171L24.5668 7.59731L19.1768 15.2621L18.292 14.7265L17.41 14.1909L22.8 6.52611ZM16.36 17.0067L16.528 16.5075C16.8096 16.5751 17.0594 16.7268 17.2392 16.9391L16.8136 17.2823C16.7677 17.3211 16.7092 17.3445 16.6474 17.3491C16.5856 17.3536 16.5238 17.339 16.4719 17.3075C16.42 17.2759 16.3809 17.2293 16.3606 17.1749C16.3404 17.1204 16.3401 17.0613 16.36 17.0067ZM17.872 16.4269C17.59 16.104 17.2062 15.8712 16.7744 15.7613L17.0544 14.9111L18.5916 15.8445L17.872 16.4269ZM6.59077 3.43991C6.66006 3.35628 6.74641 3.28614 6.8449 3.23349C6.94339 3.18085 7.05208 3.14674 7.16477 3.13311L18.9472 1.69791C18.9854 1.69534 19.0238 1.69534 19.062 1.69791C19.2685 1.70181 19.4667 1.7742 19.6208 1.902C19.7749 2.0298 19.8746 2.20457 19.902 2.39471L20.7196 8.06011L18.5748 11.1047L14.358 11.6247C14.2466 11.6313 14.1426 11.6786 14.0688 11.7564C13.995 11.8342 13.9575 11.936 13.9646 12.0394C13.9716 12.1428 14.0226 12.2394 14.1064 12.308C14.1901 12.3765 14.2998 12.4113 14.4112 12.4047H14.4672L17.97 11.9601L16.4776 14.0843C16.4771 14.093 16.4771 14.1017 16.4776 14.1103C16.4669 14.1266 16.4584 14.1441 16.4524 14.1623L16.192 14.9423L10.2224 15.6885C10.1672 15.6919 10.1133 15.7054 10.0638 15.7282C10.0142 15.7509 9.96999 15.7825 9.93359 15.8211C9.89718 15.8598 9.86933 15.9047 9.85162 15.9533C9.83391 16.0019 9.82669 16.0533 9.83037 16.1045C9.83405 16.1557 9.84855 16.2058 9.87305 16.2518C9.89756 16.2978 9.93158 16.3389 9.97318 16.3727C10.0148 16.4065 10.0631 16.4323 10.1155 16.4488C10.1679 16.4652 10.2232 16.4719 10.2784 16.4685H10.3316L15.8952 15.7925L15.5648 16.7857C15.4928 17.0014 15.4984 17.233 15.5808 17.4455C15.6631 17.658 15.8177 17.8398 16.0212 17.9635C16.2032 18.0749 16.4163 18.1346 16.6344 18.1351C16.9047 18.1335 17.1652 18.0411 17.368 17.8751L19.5744 16.1019L19.5968 16.0785C19.6139 16.0638 19.6289 16.0472 19.6416 16.0291L21.4672 13.4291L22.3996 19.9811C22.4146 20.0855 22.4073 20.1916 22.378 20.2934C22.3487 20.3951 22.2979 20.4905 22.2288 20.5739C22.1618 20.6566 22.0778 20.726 21.9817 20.7782C21.8855 20.8305 21.7792 20.8644 21.6688 20.8781L9.87517 22.3159C9.76283 22.3294 9.64873 22.3222 9.53939 22.2948C9.43004 22.2673 9.32759 22.2201 9.23789 22.1559C9.14818 22.0917 9.07298 22.0117 9.01658 21.9205C8.96018 21.8293 8.92368 21.7286 8.90917 21.6243L6.41997 4.03271C6.39019 3.82191 6.45161 3.60874 6.59077 3.43991ZM2.43557 5.72011L5.68357 4.81271L8.07477 21.7257C8.12884 22.1047 8.32871 22.4526 8.63749 22.7054C8.94627 22.9582 9.34312 23.0988 9.75477 23.1011C9.82975 23.1011 9.90462 23.0959 9.97877 23.0855L14.5932 22.5239L8.43317 24.2451C8.21522 24.3058 7.98023 24.2838 7.77973 24.1839C7.57923 24.084 7.42958 23.9143 7.36357 23.7121L1.85597 6.72111C1.82321 6.62005 1.81221 6.51398 1.82362 6.40897C1.83502 6.30396 1.86859 6.20206 1.92241 6.1091C1.97624 6.01614 2.04926 5.93394 2.13731 5.8672C2.22536 5.80046 2.32671 5.75047 2.43557 5.72011ZM10.9028 5.30411C10.8885 5.20174 10.9184 5.09828 10.9862 5.0164C11.0539 4.93452 11.1538 4.88091 11.264 4.86731L17.984 4.04571C18.0391 4.03906 18.0952 4.04255 18.1489 4.056C18.2026 4.06945 18.2529 4.09259 18.2969 4.12409C18.341 4.1556 18.378 4.19486 18.4057 4.23963C18.4334 4.2844 18.4514 4.3338 18.4586 4.38501C18.4657 4.43623 18.462 4.48826 18.4475 4.53812C18.433 4.58798 18.4081 4.63471 18.3742 4.67564C18.3402 4.71656 18.298 4.75087 18.2497 4.77663C18.2015 4.80238 18.1483 4.81906 18.0932 4.82571L11.3732 5.64471H11.32C11.2179 5.64429 11.1194 5.60957 11.0427 5.54697C10.966 5.48436 10.9163 5.3981 10.9028 5.30411ZM8.86997 9.11571C8.86294 9.06444 8.86696 9.01238 8.88178 8.96256C8.89661 8.91274 8.92196 8.86615 8.95635 8.82551C8.99074 8.78487 9.03349 8.75098 9.08211 8.72581C9.13073 8.70064 9.18425 8.6847 9.23957 8.67891L18.4796 7.54011C18.591 7.52667 18.7035 7.55486 18.7925 7.61849C18.8815 7.68212 18.9397 7.77598 18.9542 7.87941C18.9686 7.98285 18.9383 8.08739 18.8698 8.17003C18.8012 8.25268 18.7002 8.30667 18.5888 8.32011L9.34037 9.45371H9.28717C9.18548 9.45338 9.08732 9.41903 9.0107 9.35695C8.93407 9.29487 8.88411 9.20922 8.86997 9.11571ZM12.0088 12.2981C12.0167 12.3492 12.0135 12.4012 11.9996 12.4512C11.9857 12.5012 11.9612 12.5481 11.9276 12.5892C11.894 12.6303 11.8519 12.6648 11.8039 12.6907C11.7558 12.7166 11.7027 12.7334 11.6476 12.7401L9.83597 12.9611H9.78277C9.67138 12.968 9.5616 12.9335 9.47758 12.8653C9.39357 12.797 9.34219 12.7005 9.33477 12.5971C9.32734 12.4937 9.36447 12.3917 9.43798 12.3137C9.5115 12.2357 9.61538 12.188 9.72677 12.1811L11.5384 11.9601C11.5932 11.9536 11.6488 11.9571 11.7021 11.9705C11.7555 11.984 11.8054 12.0071 11.8491 12.0385C11.8928 12.0699 11.9294 12.109 11.9568 12.1535C11.9842 12.1981 12.0019 12.2472 12.0088 12.2981ZM10.3596 19.6301C10.3453 19.5277 10.3752 19.4243 10.443 19.3424C10.5107 19.2605 10.6106 19.2069 10.7208 19.1933L13.9436 18.8007C13.9987 18.7939 14.0548 18.7972 14.1086 18.8105C14.1623 18.8238 14.2128 18.8468 14.257 18.8782C14.3012 18.9096 14.3383 18.9487 14.3662 18.9934C14.3941 19.0381 14.4122 19.0875 14.4196 19.1387C14.4269 19.1899 14.4233 19.242 14.409 19.2919C14.3947 19.3418 14.37 19.3887 14.3362 19.4297C14.3024 19.4708 14.2602 19.5052 14.212 19.5311C14.1639 19.557 14.1107 19.5739 14.0556 19.5807L10.8272 19.9655H10.774C10.673 19.9652 10.5756 19.9311 10.4995 19.8695C10.4234 19.8079 10.3737 19.7229 10.3596 19.6301Z" fill="#07A0E6"/>
</g>
<defs>
<clipPath id="clip0_538_2174">
<rect width="28" height="26" fill="white"/>
</clipPath>
</defs>
</svg>
