<svg width="38" height="36" viewBox="0 0 38 36" fill="none" xmlns="http://www.w3.org/2000/svg">
<g clip-path="url(#clip0_303_7330)">
<path d="M37.8344 17.3595C30.9889 10.4414 23.282 7.91014 14.9287 9.83549C8.37191 11.3469 3.24473 15.2188 0.772034 17.3922C-0.153961 18.2062 -0.26007 19.5183 0.524735 20.4444C1.26634 21.3189 2.60228 21.601 3.69787 21.1157L4.49804 20.7617C9.35937 24.7991 14.4097 26.8404 19.5317 26.8404C19.8706 26.8404 20.211 26.8316 20.5504 26.8135C28.9047 26.3727 34.3389 20.7029 34.5662 20.4617C34.7915 20.2228 34.7691 19.8564 34.5172 19.643C34.2661 19.4307 33.8776 19.4502 33.653 19.6894C33.6008 19.7449 28.3344 25.2411 20.4826 25.6555C15.2467 25.9307 10.0363 23.9092 5.01178 19.6438C4.83 19.4883 4.56589 19.4521 4.34468 19.5501L3.18037 20.0649C2.58807 20.3258 1.87198 20.1816 1.47885 19.7185C1.095 19.265 1.14777 18.6443 1.60554 18.2422C6.04997 14.3352 21.7339 2.78337 36.9418 18.1527C37.1725 18.3867 37.5607 18.3985 37.8066 18.1791C38.053 17.9601 38.0658 17.5932 37.8344 17.3595Z" fill="#07A0E6"/>
<path d="M33.1253 18.6257C33.2795 18.6257 33.4344 18.5707 33.5532 18.4603C33.7947 18.2365 33.7991 17.8695 33.5628 17.6405C30.2198 14.4025 26.8292 12.7013 23.601 11.9864C20.5777 11.1962 17.4278 11.3283 14.1949 12.3783C8.50296 14.015 4.57864 17.5606 4.50326 17.6306C4.26089 17.8544 4.25625 18.2208 4.49254 18.4502C4.72969 18.6806 5.11702 18.6836 5.35794 18.4612C5.38751 18.4334 7.90573 16.1441 11.7526 14.4635C11.4752 15.2427 11.3169 16.0595 11.3169 16.8863C11.3169 21.0729 14.9127 24.4792 19.3322 24.4792C23.7517 24.4792 27.3473 21.0729 27.3473 16.8863C27.3473 16.012 27.1826 15.1458 26.8701 14.3251C28.8873 15.2828 30.83 16.652 32.6878 18.4513C32.8078 18.5675 32.9664 18.6257 33.1253 18.6257ZM19.3322 23.2092C15.6523 23.2092 12.6583 20.3725 12.6583 16.8863C12.6583 15.8948 12.9065 14.9123 13.3779 14.0309C14.7681 13.4745 16.1405 13.104 17.493 12.9103C16.7673 13.2138 16.1373 13.6838 15.6659 14.2773C16.5081 14.2806 17.19 14.9277 17.19 15.7264C17.19 16.527 16.505 17.176 15.6598 17.176C15.314 17.176 14.9985 17.0632 14.7423 16.88C14.7423 16.8819 14.742 16.8841 14.742 16.886C14.742 19.2879 16.7969 21.2347 19.3322 21.2347C21.8673 21.2347 23.9225 19.2879 23.9225 16.886C23.9225 15.0109 22.6674 13.4179 20.9117 12.8073C22.3688 12.9364 23.7955 13.2882 25.1874 13.8637C25.7234 14.7931 26.0061 15.8338 26.0061 16.886C26.0061 20.3725 23.0124 23.2092 19.3322 23.2092Z" fill="#07A0E6"/>
</g>
<defs>
<clipPath id="clip0_303_7330">
<rect width="38" height="36" fill="white"/>
</clipPath>
</defs>
</svg>
