<svg width="30" height="41" viewBox="0 0 30 41" fill="none" xmlns="http://www.w3.org/2000/svg">
<path d="M2.73617 0.753677C1.73232 0.958004 0.701811 1.79307 0.239859 2.77028L0 3.28553V20.3866V37.4877L0.239859 38.003C0.719578 39.0157 1.67902 39.7797 2.78059 40.0107C3.10929 40.0817 5.80993 40.1084 11.6643 40.1084C20.7079 40.1084 20.5746 40.1173 21.4719 39.6553C22.2892 39.2378 23.0176 38.2517 23.2219 37.2834C23.3641 36.6171 23.3552 30.3985 23.2131 30.132C22.9821 29.6878 22.4402 29.5812 22.0671 29.8833L21.8539 30.0521L21.8094 33.5522C21.765 36.9191 21.7561 37.0524 21.5696 37.3989C21.3475 37.8164 20.9921 38.1629 20.5924 38.3672C20.3259 38.5004 19.4908 38.5093 11.5133 38.4916L2.72729 38.4649L2.33641 38.1984C2.08767 38.0207 1.87446 37.7631 1.71455 37.4522L1.46581 36.9636V20.3866V3.80967L1.71455 3.32106C1.86557 3.01013 2.08767 2.75251 2.33641 2.57483C2.71841 2.30832 2.73617 2.30832 3.93547 2.30832H5.14365L5.51677 3.4632C5.79216 4.29827 5.96095 4.67138 6.12974 4.81352L6.36072 5.01785H11.6287C16.648 5.01785 16.9056 5.00896 17.11 4.84906C17.261 4.73357 17.4387 4.34269 17.7229 3.47208L18.1138 2.2639H19.2154C20.3969 2.2639 20.6368 2.33497 21.1254 2.78804C21.2675 2.91241 21.4719 3.17892 21.5696 3.37436C21.765 3.72083 21.765 3.80967 21.7917 8.17155C21.8006 11.2453 21.845 12.6756 21.9072 12.8088C22.1381 13.2441 22.8133 13.2708 23.142 12.8621C23.3108 12.64 23.3197 12.489 23.3197 8.29592C23.3197 3.71194 23.293 3.36548 22.9021 2.58372C22.6356 2.05958 21.9605 1.36665 21.4719 1.11791C20.5657 0.655956 20.7167 0.664841 11.5932 0.673725C6.92927 0.68261 2.9405 0.718143 2.73617 0.753677ZM16.4703 2.32609C16.4703 2.37051 16.3815 2.63702 16.2749 2.93018L16.0795 3.4632H11.6021H7.11583L6.95592 2.93018C6.86709 2.63702 6.79602 2.37051 6.79602 2.32609C6.79602 2.29055 8.97252 2.2639 11.6376 2.2639C14.3027 2.2639 16.4792 2.29055 16.4703 2.32609Z" fill="white"/>
<path d="M16.7012 10.6325C16.337 10.8457 16.3103 10.9612 16.3014 12.4536V13.9017H15.9372C15.6529 13.9017 15.5197 13.955 15.3153 14.1682L15.0488 14.4258L15.0755 17.0465C15.1021 20.0314 15.0844 19.9426 15.8306 20.0314L16.257 20.0758L16.3014 21.5683C16.3458 23.0075 16.3547 23.0785 16.5591 23.2384C16.6745 23.3273 16.8966 23.4072 17.0565 23.4072C17.2164 23.4072 17.4385 23.3273 17.554 23.2384C17.7584 23.0785 17.7672 23.0075 17.8117 21.5683L17.8561 20.0758L18.1226 20.0492C19.0554 19.9692 19.0554 19.9781 19.0554 16.9221V14.4169L18.7977 14.1593C18.5934 13.955 18.4513 13.9017 18.1759 13.9017H17.8117V12.4714V11.0411L17.554 10.7835C17.2786 10.517 16.9944 10.4637 16.7012 10.6325ZM17.4563 16.9666V18.5212H17.0121H16.5679V17.0287C16.5679 16.2026 16.5946 15.5007 16.6301 15.4741C16.6568 15.4386 16.8611 15.4119 17.0743 15.4119H17.4563V16.9666Z" fill="white"/>
<path d="M27.5203 10.7391L27.2716 10.9523L27.2449 12.427L27.2183 13.9017H26.8629C26.6053 13.9017 26.4454 13.9639 26.2944 14.1238L26.0723 14.337V16.9488C26.0723 19.4629 26.0811 19.5695 26.2588 19.8005C26.401 19.987 26.5164 20.0314 26.8274 20.0314H27.2183L27.2449 21.4884C27.2716 22.892 27.2804 22.9542 27.4848 23.1763C27.6447 23.345 27.7957 23.4072 28.0267 23.4072C28.2577 23.4072 28.4087 23.345 28.5686 23.1763C28.7729 22.9542 28.7818 22.892 28.8084 21.4884L28.8351 20.0314H29.2171C29.5014 20.0314 29.6435 19.9781 29.7856 19.8271C29.9811 19.6228 29.9811 19.5695 29.9811 16.9754V14.337L29.759 14.1238C29.608 13.9639 29.4481 13.9017 29.1904 13.9017H28.8351L28.8084 12.427L28.7818 10.9523L28.533 10.7391C28.3909 10.6236 28.1688 10.5259 28.0267 10.5259C27.8845 10.5259 27.6624 10.6236 27.5203 10.7391ZM28.4709 16.9666V18.5212H28.0267H27.5825V16.9666V15.4119H28.0267H28.4709V16.9666Z" fill="white"/>
<path d="M11.0158 15.3673C10.8026 15.5805 10.7937 15.616 10.7937 17.0107C10.7937 18.3078 10.7759 18.4321 10.6427 18.4321C10.5538 18.4321 10.3317 18.4765 10.1541 18.5298C9.55887 18.6898 9.5411 18.7964 9.56775 21.6836L9.5944 24.2243L9.84315 24.4375C10.0119 24.5885 10.1985 24.6507 10.4472 24.6507H10.7937V26.081V27.5113L11.0513 27.7689C11.3267 28.0443 11.5755 28.0887 11.8864 27.9199C12.2684 27.7156 12.295 27.6001 12.3039 26.0899V24.6507H12.6682C12.9436 24.6507 13.0857 24.5974 13.29 24.3931L13.5476 24.1355V21.5858C13.5476 19.9335 13.5121 18.9829 13.4499 18.8585C13.3433 18.6542 12.8636 18.4321 12.526 18.4321H12.3039V17.0107C12.3039 15.616 12.295 15.5805 12.0818 15.3673C11.7887 15.0652 11.309 15.0652 11.0158 15.3673ZM12.0196 21.5592L11.993 23.0961L11.5755 23.1227L11.149 23.1494V21.5947V20.0312H11.5932H12.0374L12.0196 21.5592Z" fill="white"/>
<path d="M22.006 15.3493C21.8194 15.5448 21.8105 15.6425 21.8105 16.9928V18.432H21.5884C21.2509 18.432 20.7711 18.6541 20.6645 18.8584C20.5224 19.1249 20.5402 24.1175 20.6823 24.3041C20.8511 24.5262 21.1443 24.6506 21.4907 24.6506H21.8105V26.0631C21.8105 26.8448 21.8372 27.5466 21.8638 27.6266C21.9349 27.7954 22.3524 28.0264 22.6101 28.0264C22.7167 28.0264 22.921 27.9109 23.0631 27.7687L23.3208 27.5111V26.0808V24.6506H23.6761C24.1114 24.6506 24.4401 24.3752 24.5201 23.931C24.5467 23.7622 24.5645 22.5807 24.5467 21.3014C24.5201 18.9917 24.5201 18.9739 24.3069 18.7518C24.1736 18.6097 23.9515 18.5031 23.7116 18.4675L23.3208 18.4142V17.0817C23.3208 15.376 23.223 15.145 22.4857 15.145C22.2991 15.145 22.1303 15.2161 22.006 15.3493ZM22.9654 21.5857V23.1403H22.5212H22.077V21.5857V20.0311H22.5212H22.9654V21.5857Z" fill="white"/>
<path d="M10.8386 32.486C10.5544 32.5837 10.0302 32.9479 9.83479 33.1789C9.7726 33.25 9.61269 33.5254 9.48832 33.783C9.08856 34.6181 9.29288 35.6663 9.97692 36.3593C10.8919 37.2654 12.5088 37.2121 13.3616 36.2438C13.7791 35.7641 13.9302 35.3554 13.9302 34.6891C13.939 33.3743 12.9441 32.3794 11.6382 32.3883C11.345 32.3883 10.9897 32.4327 10.8386 32.486ZM11.9758 33.9962C12.2689 34.1472 12.3844 34.3427 12.3933 34.698C12.3933 35.3821 11.6204 35.7285 11.0874 35.2754C10.8919 35.1067 10.8386 34.9912 10.8386 34.6891C10.8386 34.0673 11.4338 33.703 11.9758 33.9962Z" fill="white"/>
</svg>
