<svg width="39" height="37" viewBox="0 0 39 37" fill="none" xmlns="http://www.w3.org/2000/svg">
<path d="M2.50535 0.0937195C1.52827 0.402714 0.701499 1.12091 0.267238 2.03954L0 2.60743V14.8001V26.9929L0.267238 27.5607C0.617987 28.2956 1.25268 28.9303 2.00428 29.2978L2.58887 29.5817L8.41799 29.6068L14.2388 29.6318V29.8239C14.2388 29.9325 14.0717 31.1518 13.863 32.538C13.6542 33.9243 13.4872 35.0935 13.4872 35.1353C13.4872 35.1854 12.9861 35.2188 12.2011 35.2188H10.9066L10.7396 35.4359C10.6394 35.5612 10.5642 35.7198 10.5642 35.8034C10.5642 35.8869 10.6394 36.0455 10.7396 36.1708L10.9066 36.3879H19.5H28.0934L28.2687 36.1625C28.4608 35.9119 28.4441 35.6196 28.2103 35.3607C28.0934 35.2355 27.9096 35.2188 26.7906 35.2188C26.0557 35.2188 25.5128 35.1854 25.5128 35.1436C25.5128 35.1019 25.3458 33.9243 25.137 32.5297C24.9283 31.135 24.7612 29.9158 24.7612 29.8156V29.6318L30.5904 29.6068L36.4111 29.5817L36.979 29.3145C37.7223 28.9637 38.382 28.304 38.7328 27.5607L39 26.9929V14.8001V2.60743L38.7328 2.03954C38.382 1.29629 37.7223 0.636547 36.979 0.285797L36.4111 0.0185585L19.6253 0.00185776C6.22998 -0.00649261 2.77259 0.0102081 2.50535 0.0937195ZM36.503 1.41321C36.979 1.66374 37.4634 2.16481 37.6805 2.62413C37.8225 2.92477 37.8308 3.57616 37.8559 12.9796L37.8726 23.0261H19.5H1.12741L1.14411 12.9796C1.16916 3.57616 1.17752 2.92477 1.31949 2.62413C1.62848 1.97274 2.32163 1.3965 3.00642 1.22113C3.14839 1.18773 10.6394 1.17102 19.667 1.17102L36.0771 1.18773L36.503 1.41321ZM37.8559 25.4228C37.8225 26.5586 37.8058 26.6922 37.6054 27.0847C37.3298 27.6109 36.8454 28.0535 36.3193 28.2539C35.9268 28.4042 35.3923 28.4126 19.5 28.4126C3.60771 28.4126 3.07323 28.4042 2.68073 28.2539C2.14625 28.0535 1.67024 27.6109 1.39465 27.0847C1.20257 26.7006 1.17752 26.5419 1.14411 25.5565C1.12741 24.9468 1.12741 24.3956 1.16081 24.3205C1.20257 24.2119 3.20685 24.1952 19.5501 24.1952H37.8893L37.8559 25.4228ZM23.4668 29.7237C23.5169 29.8573 24.2602 34.8847 24.2602 35.0768C24.2602 35.2104 23.9011 35.2188 19.5 35.2188C15.0989 35.2188 14.7398 35.2104 14.7398 35.0768C14.7398 34.8847 15.4831 29.8573 15.5332 29.7237C15.5582 29.6485 16.4351 29.6235 19.5 29.6235C22.5649 29.6235 23.4418 29.6485 23.4668 29.7237Z" fill="white"/>
<path d="M14.9901 3.90185C14.8481 4.04382 14.8231 4.17744 14.8231 4.81213V5.54704L14.4723 5.60549C13.9879 5.68065 13.6038 5.96459 13.4034 6.3738C13.2447 6.69115 13.2363 6.89157 13.2363 9.99821C13.2363 13.1049 13.2447 13.3053 13.4034 13.6226C13.6038 14.0318 13.9879 14.3158 14.4723 14.3909L14.8231 14.4494V15.1843C14.8231 16.0278 14.9483 16.2616 15.4076 16.2616C15.8669 16.2616 15.9922 16.0278 15.9922 15.1843V14.4494L16.343 14.3909C16.8023 14.3158 17.1363 14.107 17.3535 13.7562C17.5372 13.464 17.5372 13.4138 17.5372 9.98986V6.52412L17.3284 6.22348C17.0862 5.85603 16.7939 5.68065 16.343 5.60549L15.9922 5.54704V4.81213C15.9922 4.16074 15.9672 4.05217 15.8085 3.90185C15.5747 3.68472 15.2072 3.68472 14.9901 3.90185ZM16.3263 9.99821V13.1717H15.4076H14.489V9.99821V6.82477H15.4076H16.3263V9.99821Z" fill="white"/>
<path d="M23.1498 6.55752C23.0412 6.67443 23.0078 6.88321 23.0078 7.46779V8.2194L22.632 8.26116C22.1393 8.31961 21.7217 8.64531 21.5464 9.09627C21.4294 9.41362 21.4127 9.87293 21.4378 12.8042L21.4628 16.153L21.6967 16.4537C21.9806 16.8295 22.3147 17.0132 22.7155 17.0132H23.0078V17.7982C23.0078 18.5498 23.0162 18.5999 23.2249 18.7586C23.3502 18.8588 23.5089 18.934 23.5924 18.934C23.6759 18.934 23.8346 18.8588 23.9598 18.7586C24.1686 18.5999 24.177 18.5498 24.177 17.7982V17.0132H24.5027C24.9286 17.0132 25.3461 16.7292 25.58 16.2616C25.7637 15.8941 25.7637 15.844 25.7637 12.6288C25.7637 9.41362 25.7637 9.36351 25.58 8.99606C25.3628 8.57015 24.8785 8.24445 24.4526 8.24445H24.177V7.50955C24.177 6.60762 24.0684 6.40719 23.6007 6.40719C23.4003 6.40719 23.2333 6.46565 23.1498 6.55752ZM24.4943 12.6455L24.4693 15.8023H23.5924H22.7155L22.6905 12.6455L22.6738 9.49713H23.5924H24.511L24.4943 12.6455Z" fill="white"/>
<path d="M6.80627 8.0775C6.6643 8.21947 6.63924 8.35309 6.63924 8.98778V9.72268L6.2885 9.78114C5.82918 9.8563 5.49513 10.0651 5.278 10.4158C5.10263 10.6998 5.09428 10.7916 5.06922 13.8816C5.05252 15.627 5.06922 17.2137 5.09428 17.4141C5.17779 17.9569 5.6037 18.3912 6.18828 18.5248L6.63924 18.625V19.3516C6.63924 20.003 6.65595 20.0948 6.83132 20.2535C7.07351 20.479 7.42426 20.4873 7.64139 20.2702C7.78336 20.1282 7.80841 19.9946 7.80841 19.3599V18.6167L8.16751 18.5582C8.63518 18.4747 8.90241 18.316 9.1446 17.9486L9.35338 17.6479L9.37843 14.2741C9.40348 10.9837 9.39513 10.8918 9.22811 10.5327C9.01933 10.1152 8.66023 9.86465 8.15916 9.78114L7.80841 9.72268V8.98778C7.80841 8.14431 7.68314 7.91047 7.22383 7.91047C7.08186 7.91047 6.89813 7.98563 6.80627 8.0775ZM8.14246 14.1739V17.3473H7.22383H6.3052V14.1739V11.0004H7.22383H8.14246V14.1739Z" fill="white"/>
<path d="M31.3573 8.07745C31.2153 8.21941 31.1902 8.35303 31.1902 8.98772V9.72263L30.8395 9.78109C30.3384 9.8646 29.9793 10.1151 29.7789 10.5327C29.6119 10.8751 29.6035 11.0171 29.6035 14.1571C29.6035 16.7209 29.6286 17.4976 29.7204 17.7064C29.8875 18.1239 30.3551 18.483 30.8061 18.5498L31.1902 18.6083V19.3515C31.1902 20.0113 31.2153 20.1198 31.374 20.2702C31.6161 20.4956 31.9502 20.4789 32.1757 20.2451C32.3344 20.0781 32.3594 19.9528 32.3594 19.3265V18.6083L32.7436 18.5498C33.2446 18.4747 33.7373 18.0488 33.8626 17.5894C33.9211 17.3807 33.9461 16.0946 33.9294 13.9817C33.9044 10.8834 33.896 10.6914 33.7373 10.4325C33.5286 10.0817 33.1695 9.85625 32.7102 9.78109L32.3594 9.72263V8.98772C32.3594 8.14425 32.2341 7.91042 31.7748 7.91042C31.6329 7.91042 31.4491 7.98558 31.3573 8.07745ZM32.6935 14.1738V17.3473H31.7748H30.8562V14.1738V11.0004H31.7748H32.6935V14.1738Z" fill="white"/>
</svg>
