<svg width="40" height="40" viewBox="0 0 40 40" fill="none" xmlns="http://www.w3.org/2000/svg">
<path d="M20.002 8.68489C17.6225 8.68489 15.6855 6.73688 15.6855 4.34264C15.6855 1.94795 17.6225 -6.10352e-05 20.002 -6.10352e-05C22.382 -6.10352e-05 24.3185 1.94795 24.3185 4.34264C24.3185 6.73688 22.382 8.68489 20.002 8.68489ZM20.002 1.31862C18.3487 1.31862 17.0038 2.67551 17.0038 4.34264C17.0038 6.00976 18.3487 7.36621 20.002 7.36621C21.6558 7.36621 23.0003 6.00976 23.0003 4.34264C23.0003 2.67551 21.6558 1.31862 20.002 1.31862Z" fill="white"/>
<path d="M26.568 14.5458H13.4319C13.0964 14.5458 12.8146 14.2938 12.7768 13.9605C12.5448 11.8982 13.3199 7.75064 17.9177 6.81196C18.0853 6.77774 18.2591 6.80974 18.4031 6.90174C18.8813 7.20575 19.4333 7.36619 20 7.36619C20.5666 7.36619 21.1191 7.2053 21.5969 6.90174C21.7409 6.80974 21.9147 6.7773 22.0827 6.81196C26.68 7.75108 27.456 11.8987 27.2231 13.9605C27.1858 14.2938 26.9036 14.5458 26.568 14.5458ZM14.0675 13.2276H25.9325C25.9085 11.9489 25.4756 8.98487 22.0604 8.1582C21.4298 8.50353 20.7226 8.68487 19.9995 8.68487C19.2769 8.68487 18.5697 8.50353 17.9386 8.1582C14.5239 8.98443 14.091 11.9489 14.0675 13.2276Z" fill="white"/>
<path d="M7.25788 28.8113C4.87786 28.8113 2.94141 26.8633 2.94141 24.469C2.94141 22.0744 4.87742 20.1263 7.25788 20.1263C9.63834 20.1263 11.5744 22.0744 11.5744 24.469C11.5744 26.8628 9.6379 28.8113 7.25788 28.8113ZM7.25788 21.445C5.60454 21.445 4.25919 22.8015 4.25919 24.4686C4.25919 26.1357 5.60454 27.4922 7.25788 27.4922C8.91123 27.4922 10.2561 26.1362 10.2561 24.4686C10.2561 22.8019 8.91123 21.445 7.25788 21.445Z" fill="white"/>
<path d="M13.8279 34.6723H0.691367C0.356254 34.6723 0.0744739 34.4207 0.0366959 34.0869C-0.19575 32.0251 0.579366 27.8771 5.17762 26.9384C5.34473 26.9042 5.51896 26.9362 5.66296 27.0278C6.14074 27.3318 6.69319 27.4922 7.25986 27.4922C7.82653 27.4922 8.37853 27.3318 8.85676 27.0278C9.00076 26.9362 9.17454 26.9038 9.3421 26.9384C13.9399 27.8771 14.7155 32.0251 14.483 34.0869C14.4457 34.4203 14.1635 34.6723 13.8279 34.6723ZM1.32693 33.3536H13.1923C13.1683 32.0754 12.7355 29.1109 9.32032 28.2842C8.6892 28.6296 7.98253 28.8109 7.25941 28.8109C6.5363 28.8109 5.82918 28.6296 5.19851 28.2842C1.78382 29.1109 1.35093 32.0754 1.32693 33.3536Z" fill="white"/>
<path d="M32.7418 28.8113C30.3622 28.8113 28.4258 26.8633 28.4258 24.469C28.4258 22.0744 30.3618 20.1263 32.7418 20.1263C35.1218 20.1263 37.0583 22.0744 37.0583 24.469C37.0583 26.8628 35.1223 28.8113 32.7418 28.8113ZM32.7418 21.445C31.0885 21.445 29.7436 22.8015 29.7436 24.4686C29.7436 26.1357 31.0885 27.4922 32.7418 27.4922C34.3956 27.4922 35.7405 26.1362 35.7405 24.4686C35.7405 22.8019 34.3956 21.445 32.7418 21.445Z" fill="white"/>
<path d="M39.3064 34.6723H26.1699C25.8348 34.6723 25.5525 34.4207 25.5152 34.0869C25.2828 32.0251 26.0579 27.8771 30.6557 26.9384C30.8233 26.9042 30.9975 26.9362 31.141 27.0278C31.6193 27.3318 32.1713 27.4922 32.7379 27.4922C33.3046 27.4922 33.857 27.3318 34.3353 27.0278C34.4788 26.9362 34.6526 26.9038 34.8206 26.9384C39.4184 27.8771 40.194 32.0251 39.9615 34.0869C39.9238 34.4203 39.642 34.6723 39.3064 34.6723ZM26.8054 33.3536H38.6704C38.6469 32.0754 38.214 29.1109 34.7988 28.2842C34.1677 28.6296 33.461 28.8109 32.7375 28.8109C32.0148 28.8109 31.3077 28.6296 30.6766 28.2842C27.2623 29.1109 26.829 32.0754 26.8054 33.3536Z" fill="white"/>
<path d="M20.002 40.0002C15.346 40.0002 10.9255 37.9753 7.87305 34.4446L8.86994 33.5819C11.6717 36.8228 15.7296 38.6819 20.002 38.6819C24.2749 38.6819 28.3328 36.8228 31.1346 33.5819L32.131 34.4446C29.079 37.9753 24.6581 40.0002 20.002 40.0002Z" fill="white"/>
<path d="M5.43576 21.8588L4.13086 21.6726C4.95487 15.8943 8.86201 11.0183 14.3278 8.94757L14.7945 10.1809C9.77801 12.0809 6.19176 16.5556 5.43576 21.8588Z" fill="white"/>
<path d="M34.5662 21.8588C33.8102 16.5556 30.224 12.0809 25.207 10.1809L25.6737 8.94757C31.14 11.0183 35.0471 15.8943 35.8707 21.6726L34.5662 21.8588Z" fill="white"/>
<path d="M19.4495 30.7984V29.1588C18.509 29.1437 17.5348 28.85 16.9668 28.4437L17.3566 27.3397C17.9406 27.7459 18.785 28.0553 19.677 28.0553C20.8464 28.0553 21.6246 27.3886 21.6246 26.4793C21.6246 25.5708 20.9917 25.0179 19.7908 24.5321C18.1361 23.881 17.0975 23.1339 17.0975 21.7219C17.0975 20.3748 18.0699 19.3517 19.5473 19.0912V17.4677H20.5704V19.0441C21.5442 19.0757 22.2091 19.3357 22.6637 19.6281L22.2908 20.6992C21.9326 20.489 21.2522 20.1308 20.229 20.1308C18.9793 20.1308 18.509 20.8779 18.509 21.5286C18.509 22.3721 19.109 22.7948 20.521 23.3953C22.1931 24.0779 23.0357 24.9055 23.0357 26.3504C23.0357 27.6326 22.1437 28.8348 20.4562 29.1104V30.7989L19.4495 30.7984Z" fill="white"/>
</svg>
