<svg width="61" height="61" viewBox="0 0 61 61" fill="none" xmlns="http://www.w3.org/2000/svg">
<path opacity="0.931" fill-rule="evenodd" clip-rule="evenodd" d="M27.8826 0.354417C31.7387 0.0916348 35.5103 0.513842 39.1977 1.62104C40.0732 2.40212 40.0732 3.1903 39.1977 3.9854C38.6911 4.09805 38.1844 4.09805 37.6778 3.9854C26.4337 1.41027 16.9481 4.36572 9.22101 12.8518C2.34747 21.8547 1.10888 31.5937 5.50558 42.0685C11.6205 53.4728 21.1624 58.6238 34.1312 57.5213C38.8058 56.8275 43.0278 55.0825 46.7975 52.2859C46.9979 52.1138 47.1668 51.9168 47.3041 51.6948C46.6122 49.0535 47.5691 47.3365 50.1751 46.5439C50.9082 46.4139 51.612 46.4983 52.2862 46.7972C58.0121 38.728 59.2507 30.0025 56.0016 20.6204C54.777 17.4347 53.0037 14.62 50.6818 12.1762C48.6552 14.0902 46.6848 16.0605 44.7709 18.0871C49.3539 23.9685 50.3952 30.4423 47.8952 37.5087C43.6216 46.4159 36.5567 50.2158 26.7004 48.9083C18.7463 47.006 13.7925 42.0802 11.8387 34.131C9.1342 32.886 8.43046 30.9156 9.72765 28.2201C10.2733 27.4839 10.9769 26.9773 11.8387 26.7002C13.7869 19.1067 18.5156 14.2371 26.0249 12.0918C29.1901 11.488 32.3426 11.5443 35.4823 12.2607C36.82 12.8695 36.9889 13.7139 35.989 14.7939C34.1383 14.6103 32.2806 14.4134 30.4158 14.2028C22.2731 14.7483 17.0378 18.9141 14.7097 26.7002C15.2609 27.2815 15.7958 27.9007 16.3141 28.5579C16.877 29.7963 16.877 31.0349 16.3141 32.2733C15.7958 32.9304 15.2609 33.5497 14.7097 34.131C16.5585 40.8492 20.8932 44.9306 27.7137 46.375C34.0743 47.2017 39.2815 45.1469 43.3354 40.2108C47.3703 34.3105 47.6517 28.2307 44.1798 21.9714C43.781 21.2846 43.3026 20.6655 42.7443 20.1137C40.0727 22.7008 37.4268 25.3185 34.8068 27.9668C36.2075 31.2524 35.3068 33.673 32.1046 35.2287C30.6587 35.6596 29.2794 35.5189 27.967 34.8065C27.0382 35.7354 26.1093 36.6643 25.1804 37.5931C24.4546 38.1648 23.7509 38.1367 23.0694 37.5087C22.8293 37.0814 22.773 36.631 22.9005 36.1576C23.8802 35.0089 24.9217 33.9111 26.0249 32.8644C24.7449 30.0464 25.3642 27.7383 27.8826 25.9402C29.5668 25.1258 31.2275 25.154 32.8646 26.0246C38.5222 20.367 44.1798 14.7095 49.8374 9.05189C50.4567 8.71412 51.0758 8.71412 51.6951 9.05189C60.6119 18.8473 62.723 29.9655 58.0282 42.4063C57.0164 44.5437 55.8342 46.5703 54.4816 48.4861C54.4948 49.1341 54.5793 49.7814 54.735 50.4282C54.2168 53.5863 52.4154 54.7405 49.3307 53.8903C40.9889 60.1881 31.7568 61.9614 21.6339 59.2101C10.5903 55.5048 3.69431 47.9895 0.94574 36.6643C-1.11885 24.9007 2.28684 15.0773 11.1632 7.19418C16.066 3.27981 21.6391 0.999887 27.8826 0.354417Z" fill="#07A0E6"/>
</svg>
