<svg width="61" height="61" viewBox="0 0 61 61" fill="none" xmlns="http://www.w3.org/2000/svg">
<path d="M30.368 13.7389C26.7767 13.7389 23.8535 10.799 23.8535 7.1856C23.8535 3.57154 26.7767 0.631592 30.368 0.631592C33.9599 0.631592 36.8824 3.57154 36.8824 7.1856C36.8824 10.799 33.9599 13.7389 30.368 13.7389ZM30.368 2.62174C27.8727 2.62174 25.843 4.66958 25.843 7.1856C25.843 9.70163 27.8727 11.7488 30.368 11.7488C32.8639 11.7488 34.8929 9.70163 34.8929 7.1856C34.8929 4.66958 32.8639 2.62174 30.368 2.62174Z" fill="#07A0E6"/>
<path d="M40.2771 22.5842H20.4521C19.9457 22.5842 19.5204 22.2039 19.4634 21.7008C19.1133 18.5885 20.2831 12.329 27.2221 10.9123C27.475 10.8607 27.7372 10.909 27.9546 11.0478C28.6763 11.5066 29.5094 11.7488 30.3646 11.7488C31.2198 11.7488 32.0536 11.5059 32.7747 11.0478C32.992 10.909 33.2543 10.86 33.5078 10.9123C40.4462 12.3296 41.6173 18.5892 41.2658 21.7008C41.2095 22.2039 40.7836 22.5842 40.2771 22.5842ZM21.4113 20.5948H39.3179C39.2817 18.665 38.6284 14.1917 33.4743 12.9441C32.5225 13.4652 31.4553 13.7389 30.3639 13.7389C29.2733 13.7389 28.2061 13.4652 27.2536 12.9441C22.1002 14.191 21.4468 18.665 21.4113 20.5948Z" fill="#07A0E6"/>
<path d="M11.1336 44.1137C7.54165 44.1137 4.61914 41.1738 4.61914 37.5604C4.61914 33.9463 7.54098 31.0063 11.1336 31.0063C14.7262 31.0063 17.648 33.9463 17.648 37.5604C17.648 41.1731 14.7255 44.1137 11.1336 44.1137ZM11.1336 32.9965C8.63834 32.9965 6.60795 35.0437 6.60795 37.5597C6.60795 40.0757 8.63834 42.1229 11.1336 42.1229C13.6288 42.1229 15.6585 40.0764 15.6585 37.5597C15.6585 35.0443 13.6288 32.9965 11.1336 32.9965Z" fill="#07A0E6"/>
<path d="M21.0488 52.9593H1.2231C0.717347 52.9593 0.292084 52.5796 0.235069 52.0759C-0.115739 48.9642 1.05407 42.704 7.99377 41.2873C8.24597 41.2357 8.50891 41.284 8.72624 41.4221C9.44731 41.881 10.2811 42.1231 11.1363 42.1231C11.9915 42.1231 12.8246 41.881 13.5463 41.4221C13.7637 41.284 14.0259 41.235 14.2788 41.2873C21.2178 42.704 22.3883 48.9642 22.0375 52.0759C21.9812 52.5789 21.5552 52.9593 21.0488 52.9593ZM2.18229 50.9691H20.0896C20.0534 49.04 19.4001 44.566 14.2459 43.3184C13.2935 43.8396 12.2269 44.1132 11.1356 44.1132C10.0443 44.1132 8.97711 43.8396 8.02529 43.3184C2.87183 44.566 2.21851 49.04 2.18229 50.9691Z" fill="#07A0E6"/>
<path d="M49.5938 44.1137C46.0026 44.1137 43.0801 41.1738 43.0801 37.5604C43.0801 33.9463 46.0019 31.0063 49.5938 31.0063C53.1858 31.0063 56.1083 33.9463 56.1083 37.5604C56.1083 41.1731 53.1864 44.1137 49.5938 44.1137ZM49.5938 32.9965C47.0986 32.9965 45.0689 35.0437 45.0689 37.5597C45.0689 40.0757 47.0986 42.1229 49.5938 42.1229C52.0897 42.1229 54.1195 40.0764 54.1195 37.5597C54.1195 35.0443 52.0897 32.9965 49.5938 32.9965Z" fill="#07A0E6"/>
<path d="M59.5019 52.9593H39.6762C39.1705 52.9593 38.7445 52.5796 38.6882 52.0759C38.3374 48.9642 39.5072 42.704 46.4462 41.2873C46.6991 41.2357 46.962 41.284 47.1787 41.4221C47.9004 41.881 48.7335 42.1231 49.5887 42.1231C50.444 42.1231 51.2777 41.881 51.9995 41.4221C52.2161 41.284 52.4784 41.235 52.7319 41.2873C59.671 42.704 60.8414 48.9642 60.4906 52.0759C60.4336 52.5789 60.0084 52.9593 59.5019 52.9593ZM40.6354 50.9691H58.5421C58.5065 49.04 57.8532 44.566 52.6991 43.3184C51.7466 43.8396 50.6801 44.1132 49.5881 44.1132C48.4974 44.1132 47.4302 43.8396 46.4777 43.3184C41.325 44.566 40.671 49.04 40.6354 50.9691Z" fill="#07A0E6"/>
<path d="M30.3676 60.9999C23.3407 60.9999 16.6693 57.944 12.0625 52.6154L13.567 51.3135C17.7955 56.2047 23.9196 59.0105 30.3676 59.0105C36.8163 59.0105 42.9403 56.2047 47.1688 51.3135L48.6727 52.6154C44.0666 57.944 37.3945 60.9999 30.3676 60.9999Z" fill="#07A0E6"/>
<path d="M8.38146 33.6211L6.41211 33.3401C7.6557 24.6195 13.5524 17.2606 21.8014 14.1355L22.5057 15.9969C14.9348 18.8644 9.52243 25.6176 8.38146 33.6211Z" fill="#07A0E6"/>
<path d="M52.3476 33.6211C51.2066 25.6176 45.7942 18.8644 38.2227 15.9969L38.927 14.1355C47.1767 17.2606 53.0733 24.6195 54.3162 33.3401L52.3476 33.6211Z" fill="#07A0E6"/>
<path d="M29.534 47.113V44.6385C28.1147 44.6157 26.6443 44.1723 25.7871 43.5593L26.3754 41.8931C27.2567 42.5062 28.5312 42.973 29.8774 42.973C31.6422 42.973 32.8167 41.9669 32.8167 40.5945C32.8167 39.2235 31.8615 38.389 30.0491 37.6559C27.5519 36.6732 25.9843 35.5457 25.9843 33.4147C25.9843 31.3816 27.4519 29.8375 29.6816 29.4444V26.9941H31.2256V29.3733C32.6953 29.421 33.6987 29.8134 34.3849 30.2547L33.8222 31.8713C33.2815 31.554 32.2546 31.0133 30.7105 31.0133C28.8243 31.0133 28.1147 32.1409 28.1147 33.1229C28.1147 34.396 29.0202 35.0339 31.1512 35.9401C33.6746 36.9704 34.9464 38.2193 34.9464 40.4C34.9464 42.3351 33.6001 44.1495 31.0533 44.5654V47.1136L29.534 47.113Z" fill="#07A0E6"/>
</svg>
