<svg width="150" height="150" viewBox="0 0 150 150" fill="none" xmlns="http://www.w3.org/2000/svg">
<path d="M68.0195 37.2407C67.8599 37.3005 61.2575 39.8537 53.3586 42.9255C45.4596 45.9973 38.6777 48.6702 38.2987 48.8697C37.4211 49.3284 36.683 50.1263 36.0846 51.2633L35.6059 52.1609L35.5461 77.0146L35.5062 101.868L33.9503 101.968C32.1152 102.068 30.8785 102.566 29.8812 103.604C28.8639 104.661 28.4649 105.598 28.3652 107.174C28.2256 109.528 29.3426 111.463 31.4171 112.42L32.4144 112.899H69.6152H106.816L107.813 112.42C111.244 110.824 112.042 106.277 109.349 103.584C108.372 102.606 107.195 102.128 105.32 101.988L103.724 101.868V92.234C103.724 82.8391 103.704 82.5598 103.325 82.1808C102.807 81.6622 101.849 81.6622 101.331 82.1808C100.932 82.5798 100.932 82.8391 100.932 93.2513C100.932 105.937 100.632 104.721 103.724 104.721C106.098 104.721 107.115 105.06 107.714 106.017C108.492 107.294 108.033 109.129 106.736 109.807C106.198 110.066 102.188 110.106 69.5753 110.106C33.6711 110.106 32.9929 110.106 32.3745 109.707C30.699 108.69 30.699 106.217 32.3945 105.199C32.8732 104.9 33.5115 104.82 35.3466 104.761C37.1418 104.701 37.7402 104.601 37.9397 104.362C38.1391 104.122 38.2189 98.8963 38.2987 78.3909L38.3984 52.7194L38.9171 52.0412C39.4157 51.4229 40.5726 50.9242 54.2562 45.5984C67.1617 40.5917 69.1764 39.8537 69.8945 39.9534C70.3532 39.9933 72.2482 40.6316 74.1032 41.3697C75.9782 42.0878 77.6139 42.6862 77.7336 42.6862C77.8333 42.6862 78.1724 42.5066 78.4716 42.2673C79.0899 41.7886 79.1697 40.9308 78.6511 40.3324C78.4516 40.113 76.7163 39.3151 74.8014 38.5771C71.7695 37.4003 71.1112 37.2207 69.8147 37.1609C68.9969 37.1409 68.179 37.1609 68.0195 37.2407Z" fill="#07A0E6"/>
<path d="M85.4334 38.2581C83.319 38.9961 81.6236 40.6517 80.7459 42.8259C80.2871 43.9828 80.2871 44.0227 80.2273 54.5546C80.1874 61.7554 80.2273 65.5453 80.3869 66.423C80.8257 68.9762 82.4414 71.0706 84.7752 72.1876C85.8323 72.6863 86.0119 72.7062 90.2206 72.7661L94.5491 72.8259V74.3618C94.5491 75.1996 94.6488 76.2368 94.7486 76.6358C95.347 78.7501 97.8204 79.927 99.8948 79.0892C100.334 78.8897 101.79 77.6331 103.585 75.8379L106.517 72.9057L111.364 72.806C116.171 72.7062 116.191 72.7062 117.348 72.1477C118.824 71.4097 120.28 69.9536 121.019 68.4775L121.577 67.3206V55.3525V43.3844L121.019 42.2275C120.28 40.7514 118.824 39.2953 117.348 38.5573L116.191 37.9988L101.331 37.9589C87.4281 37.919 86.4108 37.9389 85.4334 38.2581ZM115.992 41.0706C117.029 41.5294 118.046 42.5467 118.505 43.5839C118.844 44.3219 118.884 45.1597 118.884 55.3525C118.884 67.56 118.924 67.161 117.488 68.5772C116.191 69.8937 116.092 69.9137 110.467 70.0134L105.32 70.1131L102.069 73.3645C99.8749 75.5586 98.698 76.5959 98.3988 76.5959C97.5611 76.5959 97.3416 75.9177 97.3416 73.2847C97.3416 69.8339 97.6608 70.0134 91.6169 70.0134C86.6103 70.0134 86.2113 69.9536 84.835 68.8964C84.4759 68.6171 83.9573 67.9589 83.6781 67.4203L83.1794 66.4429V55.3126V44.1823L83.7778 43.1451C84.097 42.5865 84.6355 41.9283 84.9547 41.7089C86.3908 40.6717 85.8722 40.7115 101.032 40.7115C114.316 40.6916 115.234 40.7315 115.992 41.0706Z" fill="#07A0E6"/>
<path d="M57.8461 51.383C53.5177 53.0785 48.2517 55.133 46.1573 55.9508C43.0057 57.1875 42.3076 57.5465 42.128 57.9654C41.9685 58.2646 41.8887 59.641 41.8887 61.5559C41.8887 64.5678 41.9086 64.6676 42.3873 65.1263C42.6467 65.4056 43.0456 65.625 43.2451 65.625C43.4445 65.625 48.9099 63.8298 55.3727 61.6356C63.7703 58.7832 67.2211 57.5266 67.4804 57.2274C67.7796 56.8484 67.8195 56.3298 67.8195 52.9388C67.8195 49.3285 67.7996 49.0492 67.4206 48.6702C67.1812 48.4309 66.7623 48.2713 66.3834 48.2912C66.0243 48.2912 62.1746 49.6875 57.8461 51.383ZM65.027 53.4973V55.3524L55.0935 58.7035C49.648 60.5585 45.1001 62.0745 44.9804 62.0944C44.8607 62.1144 44.761 61.5758 44.7211 60.8976C44.6613 59.7606 44.7012 59.621 45.1201 59.4415C45.8182 59.1223 64.7078 51.7021 64.8873 51.6822C64.9671 51.6622 65.027 52.5 65.027 53.4973Z" fill="#07A0E6"/>
<path d="M54.5549 65.226C48.1919 67.0611 42.8262 68.6369 42.6267 68.7167C42.0084 68.976 41.8887 69.6941 41.8887 72.8856C41.8887 75.6781 41.9286 75.9973 42.3076 76.476C42.5669 76.8151 42.906 76.9946 43.265 76.9946C43.5642 76.9946 47.6334 76.097 52.281 74.9999C56.9286 73.9029 62.1347 72.6662 63.8302 72.2872C65.9046 71.7885 67.0615 71.4295 67.3807 71.1502C67.7996 70.7513 67.8195 70.6316 67.8195 66.7819C67.8195 62.8324 67.8195 62.8124 67.3209 62.3337C67.0615 62.0545 66.6826 61.8351 66.4831 61.855C66.2836 61.855 60.9179 63.371 54.5549 65.226ZM64.9871 67.1609L64.9272 69.0957L54.9538 71.4494C49.4685 72.726 44.9206 73.7832 44.8408 73.8031C44.7411 73.8031 44.6812 73.1848 44.6812 72.4069V71.0305L45.8381 70.6914C52.281 68.7765 64.5881 65.246 64.7876 65.246C64.9871 65.226 65.027 65.6848 64.9871 67.1609Z" fill="#07A0E6"/>
<path d="M54.156 77.9121C43.5443 79.8669 42.7464 80.0265 42.3275 80.5052C41.9086 80.984 41.8887 81.1834 41.8887 84.0358C41.8887 85.7114 41.9485 87.2672 42.0084 87.5265C42.0881 87.7659 42.3873 88.105 42.6666 88.2645C43.1453 88.5039 44.5017 88.3643 55.1533 86.9879C66.3235 85.5318 67.1214 85.3922 67.4605 84.9733C67.7796 84.5744 67.8195 84.0957 67.8195 80.5651C67.8195 76.855 67.7996 76.5757 67.4206 76.1967C67.1613 75.9374 66.7823 75.7978 66.2836 75.8177C65.8647 75.8177 60.4193 76.7752 54.156 77.9121ZM65.027 80.7845C65.027 82.6794 65.007 82.7792 64.5881 82.8789C63.8302 83.0385 45.7783 85.3723 45.2198 85.3723C44.6812 85.3723 44.6812 85.3523 44.6812 83.976C44.6812 83.1981 44.7012 82.5797 44.7411 82.5797C44.8408 82.5598 64.9272 78.8297 64.9871 78.8098C65.007 78.7898 65.027 79.6874 65.027 80.7845Z" fill="#07A0E6"/>
<path d="M54.9536 90.4589C49.1491 90.9376 44.0427 91.3365 43.6437 91.3365C43.165 91.3565 42.7461 91.4961 42.4868 91.7554C42.1278 92.1145 42.0879 92.4137 42.0879 95.645C42.0879 98.8764 42.1278 99.1756 42.4868 99.5347C42.9656 100.013 41.8685 99.9934 54.6544 99.6344C60.1996 99.4748 65.2062 99.3352 65.7847 99.3352C66.6424 99.3352 66.9416 99.2355 67.3206 98.8365C67.8193 98.3578 67.8193 98.3379 67.8193 94.3684V90.3791L67.3007 89.9801C67.0015 89.7408 66.5028 89.5613 66.1437 89.5812C65.8046 89.6012 60.778 90.0001 54.9536 90.4589ZM65.0267 94.548V96.5426H64.3884C64.0294 96.5626 59.5214 96.6823 54.3552 96.8219C49.2089 96.9815 44.9203 97.0613 44.8406 97.0014C44.7408 96.9615 44.681 96.3033 44.681 95.5453V94.169L45.7382 94.0692C46.2967 93.9895 49.7874 93.7102 53.4576 93.4309C57.1278 93.1517 60.8977 92.8525 61.8352 92.7528C62.7727 92.673 63.8698 92.5932 64.2887 92.5732L65.0267 92.5533V94.548Z" fill="#07A0E6"/>
</svg>
