<svg width="52" height="52" viewBox="0 0 52 52" fill="none" xmlns="http://www.w3.org/2000/svg">
<path opacity="0.976" fill-rule="evenodd" clip-rule="evenodd" d="M16.4219 9.57709C21.5159 9.56554 26.6099 9.57709 31.7038 9.61166C33.0909 9.93839 33.9091 10.8028 34.1586 12.2047C34.2048 13.8182 34.2048 15.4317 34.1586 17.0452C33.763 17.843 33.1753 18.0159 32.3953 17.5638C32.2465 17.3931 32.1428 17.1972 32.0842 16.976C32.0611 15.4317 32.038 13.8873 32.015 12.343C31.9113 12.0549 31.7154 11.859 31.4273 11.7553C26.8905 11.6522 22.3497 11.6177 17.8049 11.6516C17.8165 12.8504 17.8049 14.0489 17.7703 15.2473C17.4822 16.6418 16.6409 17.4831 15.2464 17.7712C14.0481 17.8058 12.8495 17.8174 11.6507 17.8058C11.6391 24.9974 11.6507 32.1889 11.6852 39.3803C11.789 39.8528 12.0771 40.1409 12.5496 40.2446C18.773 40.2908 24.9964 40.2908 31.2198 40.2446C31.6111 40.1758 31.8762 39.9568 32.015 39.5877C32.0177 38.3155 32.0638 37.0477 32.1533 35.7845C32.3286 35.351 32.6513 35.1435 33.1214 35.1622C33.6626 35.1504 34.0084 35.4039 34.1586 35.9228C34.2048 37.1905 34.2048 38.4583 34.1586 39.726C33.9091 41.128 33.0909 41.9924 31.7038 42.3191C25.1577 42.3652 18.6117 42.3652 12.0656 42.3191C10.7402 42.0079 9.92193 41.1897 9.61076 39.8643C9.56464 32.0505 9.56464 24.2367 9.61076 16.4228C9.64956 16.269 9.71871 16.1307 9.81821 16.0079C11.8811 13.945 13.9441 11.882 16.007 9.81911C16.1406 9.71822 16.2789 9.63759 16.4219 9.57709ZM15.6613 13.1728C15.7412 13.6676 15.7527 14.1747 15.6959 14.6941C15.6471 15.273 15.3359 15.6072 14.7624 15.6968C14.2322 15.7429 13.7021 15.7429 13.1719 15.6968C14.0157 14.8646 14.8455 14.0232 15.6613 13.1728Z" fill="#07A0E6"/>
<path opacity="0.961" fill-rule="evenodd" clip-rule="evenodd" d="M36.8912 16.6995C37.1295 16.7264 37.3599 16.784 37.5827 16.8723C39.1155 18.4052 40.6482 19.9379 42.1811 21.4707C42.4115 21.8856 42.4115 22.3005 42.1811 22.7154C38.7582 26.1383 35.3353 29.5612 31.9124 32.984C31.8027 33.0436 31.6874 33.0898 31.5667 33.1223C29.9301 33.1685 28.2937 33.1685 26.6571 33.1223C26.3728 32.9993 26.1539 32.8034 26.0002 32.5346C25.988 30.9642 25.9534 29.3969 25.8965 27.8324C25.9384 27.5885 26.019 27.358 26.1385 27.141C29.5384 23.7411 32.9381 20.3413 36.338 16.9415C36.5218 16.8393 36.7062 16.7586 36.8912 16.6995ZM36.9603 19.3271C37.934 20.1969 38.8791 21.1074 39.7954 22.0585C36.9488 24.9052 34.1022 27.7517 31.2555 30.5984C30.3566 29.6995 29.4577 28.8005 28.5587 27.9016C28.5126 27.8555 28.5126 27.8094 28.5587 27.7633C31.3731 24.9603 34.1737 22.1483 36.9603 19.3271ZM28.0401 30.391C28.2796 30.5958 28.5101 30.8148 28.7316 31.0479C28.5022 31.0823 28.2718 31.0939 28.0401 31.0824C28.0401 30.852 28.0401 30.6214 28.0401 30.391Z" fill="#07A0E6"/>
<path opacity="0.98" fill-rule="evenodd" clip-rule="evenodd" d="M15.3854 19.8112C19.7188 19.7997 24.0521 19.8112 28.3854 19.8458C29.1124 20.2538 29.2622 20.8186 28.8349 21.5399C28.7152 21.6863 28.5653 21.7901 28.3854 21.8511C24.052 21.8972 19.7188 21.8972 15.3854 21.8511C14.6785 21.485 14.5056 20.9433 14.8668 20.2261C15.013 20.0449 15.1858 19.9066 15.3854 19.8112Z" fill="#07A0E6"/>
<path opacity="0.978" fill-rule="evenodd" clip-rule="evenodd" d="M15.3862 23.8911C18.6823 23.8795 21.9784 23.8911 25.2745 23.9256C25.993 24.3106 26.1659 24.8753 25.7931 25.6198C25.6734 25.7662 25.5235 25.8699 25.3436 25.9309C22.0014 25.9771 18.6592 25.9771 15.317 25.9309C14.6758 25.5375 14.5259 24.9958 14.8675 24.3059C15.0137 24.1247 15.1866 23.9864 15.3862 23.8911Z" fill="#07A0E6"/>
<path opacity="0.949" fill-rule="evenodd" clip-rule="evenodd" d="M15.4556 27.9706C18.0143 27.9591 20.5728 27.9706 23.1311 28.0052C23.9037 28.317 24.1227 28.8587 23.7881 29.6302C23.616 29.8947 23.374 30.0446 23.062 30.0797C20.5496 30.1258 18.0371 30.1258 15.5248 30.0797C14.6836 29.7675 14.4646 29.2028 14.8678 28.3855C15.0284 28.1853 15.2243 28.047 15.4556 27.9706Z" fill="#07A0E6"/>
<path opacity="0.949" fill-rule="evenodd" clip-rule="evenodd" d="M15.5246 32.0505C18.0371 32.0389 20.5495 32.0505 23.0618 32.085C23.6074 32.2159 23.9071 32.5616 23.9607 33.1223C23.9137 33.6554 23.6371 34.0011 23.131 34.1595C20.5724 34.2056 18.0139 34.2056 15.4554 34.1595C14.6778 33.8091 14.4819 33.2444 14.8677 32.4654C15.0642 32.2812 15.2832 32.1429 15.5246 32.0505Z" fill="#07A0E6"/>
</svg>
