<svg width="73" height="73" viewBox="0 0 73 73" fill="none" xmlns="http://www.w3.org/2000/svg">
<path d="M36.4688 19.4815C36.5699 19.4818 36.5699 19.4818 36.6731 19.4821C37.8003 19.487 38.8907 19.5609 39.9938 19.8031C40.1067 19.8273 40.1067 19.8273 40.2219 19.852C42.616 20.3822 44.8468 21.4174 46.7891 22.9095C46.876 22.9747 46.963 23.0399 47.0526 23.107C50.6274 25.897 52.8594 29.9964 53.447 34.4731C53.5139 35.1243 53.5109 35.7792 53.5115 36.4332C53.5115 36.502 53.5116 36.5709 53.5117 36.6418C53.5099 37.781 53.4408 38.8796 53.196 39.9946C53.1798 40.0698 53.1637 40.1451 53.147 40.2226C52.6169 42.6168 51.5817 44.8476 50.0896 46.7898C50.0244 46.8768 49.9592 46.9637 49.892 47.0533C47.1021 50.6281 43.0026 52.8601 38.526 53.4477C37.8748 53.5146 37.2199 53.5116 36.5659 53.5122C36.497 53.5123 36.4282 53.5123 36.3573 53.5124C35.218 53.5107 34.1195 53.4415 33.0045 53.1967C32.9292 53.1806 32.854 53.1644 32.7764 53.1478C30.3823 52.6176 28.1515 51.5824 26.2093 50.0903C26.1223 50.0251 26.0353 49.9599 25.9457 49.8928C24.2344 48.5572 22.8176 46.9256 21.7438 45.0424C21.7084 44.9809 21.673 44.9194 21.6365 44.856C20.8492 43.4742 20.2931 42.0497 19.9176 40.5042C19.8987 40.4263 19.8798 40.3485 19.8603 40.2683C19.5783 39.0316 19.4738 37.7966 19.4808 36.5302C19.481 36.4628 19.4811 36.3954 19.4813 36.326C19.4863 35.1988 19.5601 34.1083 19.8024 33.0052C19.8185 32.93 19.8346 32.8547 19.8513 32.7772C20.3814 30.383 21.4166 28.1522 22.9087 26.21C22.9739 26.123 23.0391 26.0361 23.1063 25.9465C24.4419 24.2352 26.0734 22.8183 27.9566 21.7446C28.0181 21.7092 28.0797 21.6737 28.1431 21.6373C29.5249 20.85 30.9494 20.2939 32.4948 19.9184C32.5727 19.8994 32.6506 19.8805 32.7308 19.861C33.9674 19.5791 35.2024 19.4746 36.4688 19.4815ZM25.0808 26.477C24.5204 27.1185 24.0489 27.8248 23.5883 28.5398C23.5336 28.6246 23.5336 28.6246 23.4778 28.7112C21.3878 32.0151 20.8715 36.1526 21.6972 39.9346C22.6108 43.8288 25.0837 47.239 28.4564 49.3805C31.9815 51.5398 36.1241 52.1853 40.1459 51.2522C44.0212 50.2893 47.4107 47.7571 49.4935 44.357C49.8249 43.7937 50.1102 43.21 50.3808 42.6156C50.4602 42.4423 50.4602 42.4423 50.5412 42.2656C51.9674 38.9379 52.0439 35.0534 50.8662 31.6462C50.8427 31.5765 50.8192 31.5069 50.795 31.4352C50.1912 29.674 49.2669 28.1028 48.051 26.6954C48.0065 26.6437 47.9619 26.5921 47.916 26.5389C46.8925 25.3652 45.7652 24.4303 44.4593 23.589C44.4027 23.5525 44.3461 23.5161 44.2879 23.4785C38.0099 19.5072 29.9903 21.2704 25.0808 26.477Z" fill="#07A0E6"/>
<path d="M44.8691 26.7479C47.3262 28.9221 49.0388 31.9204 49.3011 35.2378C49.4608 39.0732 48.4345 42.5177 45.8122 45.371C43.5543 47.7531 40.3726 49.2343 37.0796 49.3337C33.3722 49.3878 30.1322 48.1765 27.4248 45.6111C25.079 43.3237 23.71 40.0991 23.6622 36.8255C23.6507 33.1599 24.9348 30.0108 27.4715 27.3751C27.5543 27.2831 27.5543 27.2831 27.6388 27.1893C32.0902 22.385 40.1108 22.7416 44.8691 26.7479ZM28.3437 29.1353C26.4306 31.2634 25.4021 34.1136 25.5168 36.9748C25.6601 39.1951 26.3771 41.3428 27.7628 43.1012C27.8416 43.2019 27.9204 43.3026 28.0016 43.4064C29.8008 45.6465 32.46 47.0913 35.3103 47.4331C38.1093 47.6733 40.8798 46.9754 43.1005 45.2368C43.156 45.1938 43.2116 45.1507 43.2688 45.1064C45.619 43.2646 46.9574 40.6909 47.4165 37.7685C47.4437 37.5391 47.46 37.3133 47.4689 37.0826C47.4727 36.996 47.4766 36.9094 47.4806 36.8202C47.545 33.9892 46.5529 31.4676 44.7508 29.3166C44.6971 29.2498 44.6434 29.183 44.5881 29.1141C42.9 27.0754 40.2368 25.8714 37.6461 25.555C37.4906 25.5442 37.3348 25.5363 37.179 25.5307C37.0258 25.5249 37.0258 25.5249 36.8695 25.5189C33.5934 25.4568 30.5825 26.7524 28.3437 29.1353Z" fill="#07A0E6"/>
<path d="M35.917 27.7632C36.5256 27.7632 37.1343 27.7632 37.7614 27.7632C37.7614 28.4679 37.7614 29.1727 37.7614 29.8988C38.0817 29.9309 38.4021 29.9629 38.7321 29.9959C39.0096 30.0785 39.2661 30.1626 39.533 30.2689C39.5978 30.293 39.6626 30.3171 39.7294 30.3419C40.1503 30.5041 40.501 30.7041 40.8678 30.9666C40.5765 31.5133 40.2671 32.0229 39.897 32.5198C39.3744 32.3503 38.8661 32.1518 38.3556 31.9491C37.4733 31.6322 36.578 31.6373 35.7228 32.0345C35.3817 32.2595 35.1998 32.4372 35.0433 32.8111C34.9559 33.3517 35.0475 33.7902 35.2898 34.2748C35.7112 34.8292 36.2684 35.0928 36.8877 35.3714C37.0527 35.4482 37.2176 35.525 37.3826 35.6019C37.6676 35.7334 37.9535 35.8627 38.2403 35.9902C39.3433 36.5018 40.2907 37.1837 40.7931 38.3257C41.1143 39.2404 41.0649 40.2735 40.6736 41.1595C40.19 42.0875 39.4366 42.684 38.4409 43.0039C38.2167 43.0359 37.9924 43.0679 37.7614 43.1009C37.7614 43.8057 37.7614 44.5105 37.7614 45.2366C37.1527 45.2366 36.5441 45.2366 35.917 45.2366C35.917 44.5318 35.917 43.8271 35.917 43.1009C35.6287 43.0689 35.3403 43.0369 35.0433 43.0039C33.8003 42.6461 32.6113 41.9699 31.9369 40.8318C31.8398 40.577 31.8398 40.577 31.8398 40.3829C32.0945 40.2692 32.3493 40.156 32.6043 40.0431C32.6768 40.0107 32.7492 39.9783 32.8239 39.9449C32.8933 39.9142 32.9628 39.8836 33.0343 39.852C33.0984 39.8235 33.1624 39.7951 33.2284 39.7657C33.393 39.7033 33.393 39.7033 33.5872 39.7033C33.6533 39.8055 33.7193 39.9076 33.7874 40.0128C34.272 40.7183 35.195 41.0332 36.0019 41.2262C36.9064 41.3167 37.8276 41.3119 38.5865 40.7408C38.9032 40.4004 39.0201 40.1543 39.026 39.6867C38.9919 39.1654 38.8666 38.861 38.538 38.4414C38.2776 38.2397 38.2776 38.2397 37.9677 38.0773C37.9104 38.0454 37.8531 38.0135 37.7941 37.9806C37.2401 37.6803 36.6633 37.433 36.0869 37.1794C34.9548 36.6771 34.0954 36.1674 33.4901 35.0438C33.4501 34.9734 33.41 34.9031 33.3688 34.8307C32.9771 34.0284 32.9481 33.0015 33.1761 32.1429C33.2665 31.9314 33.3679 31.7435 33.4901 31.5491C33.5422 31.449 33.5942 31.3489 33.6479 31.2457C34.2396 30.5294 34.9617 30.2421 35.8199 29.8988C35.8519 29.1941 35.884 28.4893 35.917 27.7632Z" fill="#07A0E6"/>
</svg>
