<svg width="87" height="87" viewBox="0 0 87 87" fill="none" xmlns="http://www.w3.org/2000/svg">
<path opacity="0.928" fill-rule="evenodd" clip-rule="evenodd" d="M42.8641 22.2707C43.7022 22.0619 44.2999 22.3318 44.6573 23.0805C44.7345 25.163 44.7345 27.2454 44.6573 29.3279C44.2094 30.2555 43.5344 30.4676 42.6327 29.9642C42.4544 29.7815 42.3194 29.5693 42.2278 29.3279C42.1506 27.2454 42.1506 25.163 42.2278 23.0805C42.3397 22.7195 42.5517 22.4496 42.8641 22.2707Z" fill="#FFC42D"/>
<path opacity="0.933" fill-rule="evenodd" clip-rule="evenodd" d="M26.5521 29.0964C26.8773 29.1342 27.1859 29.2305 27.4776 29.3857C28.8466 30.7546 30.2157 32.1237 31.5847 33.4927C32.0882 34.5867 31.7604 35.2808 30.6013 35.5752C30.361 35.5529 30.1296 35.4951 29.9072 35.4016C28.461 33.9555 27.0149 32.5093 25.5687 31.0632C25.2263 30.0512 25.554 29.3956 26.5521 29.0964Z" fill="#FFC42D"/>
<path opacity="0.935" fill-rule="evenodd" clip-rule="evenodd" d="M59.8702 29.0964C61.2419 29.2127 61.6853 29.9069 61.2007 31.1789C59.7931 32.5865 58.3856 33.994 56.9779 35.4016C55.4546 35.7294 54.857 35.1317 55.1847 33.6084C56.7021 32.0327 58.264 30.5287 59.8702 29.0964Z" fill="#FFC42D"/>
<path opacity="0.985" fill-rule="evenodd" clip-rule="evenodd" d="M36.8477 34.5339C41.244 34.5145 45.6403 34.5339 50.0365 34.5917C50.7701 34.7855 51.2907 35.2289 51.5983 35.9222C52.2686 39.158 52.9243 42.3974 53.5651 45.6402C53.9614 47.4777 53.2481 48.5767 51.4248 48.9374C46.103 49.0146 40.7812 49.0146 35.4594 48.9374C33.6361 48.5767 32.9227 47.4777 33.3191 45.6402C33.951 42.5193 34.568 39.3957 35.1701 36.2692C35.4421 35.3997 36.0013 34.8212 36.8477 34.5339Z" fill="#FFC42D"/>
<path opacity="0.928" fill-rule="evenodd" clip-rule="evenodd" d="M19.4943 43.3266C21.5001 43.3073 23.5054 43.3266 25.5103 43.3844C26.1651 43.5191 26.5122 43.924 26.5515 44.5992C26.4966 45.1538 26.2267 45.5587 25.7417 45.814C23.6207 45.8911 21.4996 45.8911 19.3787 45.814C18.8076 45.6197 18.4992 45.2148 18.4531 44.5992C18.5572 43.9621 18.9043 43.538 19.4943 43.3266Z" fill="#FFC42D"/>
<path opacity="0.963" fill-rule="evenodd" clip-rule="evenodd" d="M61.027 43.4421C63.264 43.4227 65.5008 43.4421 67.7371 43.4999C68.6443 44.3115 68.6057 45.0827 67.6214 45.8137C65.4618 45.8909 63.3023 45.8909 61.1427 45.8137C60.1045 45.0755 60.0659 44.2849 61.027 43.4421Z" fill="#FFC42D"/>
<path opacity="0.99" fill-rule="evenodd" clip-rule="evenodd" d="M26.0889 50.268C30.4853 50.2487 34.8816 50.268 39.2777 50.3258C40.1454 50.5765 40.7045 51.1357 40.9553 52.0034C41.6451 55.4141 42.32 58.827 42.9799 62.2421C42.8833 63.3793 42.3048 64.1506 41.2445 64.5559C35.5371 64.6331 29.8295 64.6331 24.1221 64.5559C22.6997 63.9579 22.1791 62.8973 22.5603 61.3744C23.2011 58.1319 23.8566 54.8925 24.5271 51.6563C24.8568 50.9638 25.3774 50.501 26.0889 50.268Z" fill="#FFC42D"/>
<path opacity="0.99" fill-rule="evenodd" clip-rule="evenodd" d="M47.6064 50.268C52.0028 50.2487 56.3991 50.268 60.7953 50.3258C61.7133 50.5882 62.2724 51.186 62.4728 52.1191C63.0898 55.2042 63.7069 58.2892 64.3238 61.3744C64.705 62.8973 64.1844 63.9579 62.762 64.5559C57.0546 64.6331 51.3471 64.6331 45.6397 64.5559C44.5794 64.1506 44.0009 63.3793 43.9043 62.2421C44.5853 58.8309 45.2602 55.418 45.9289 52.0034C46.2009 51.1338 46.76 50.5554 47.6064 50.268Z" fill="#FFC42D"/>
</svg>
