<svg width="71" height="71" viewBox="0 0 71 71" fill="none" xmlns="http://www.w3.org/2000/svg">
<path d="M16.2875 15.0498C15.1829 15.3991 14.2482 16.2111 13.7572 17.2497L13.4551 17.8917V31.6763V45.4608L13.7572 46.1029C14.1537 46.9337 14.8713 47.6513 15.721 48.0667L16.3819 48.3877L22.9721 48.416L29.5528 48.4444V48.6615C29.5528 48.7842 29.364 50.1627 29.1279 51.73C28.8919 53.2973 28.7031 54.6191 28.7031 54.6663C28.7031 54.7229 28.1366 54.7607 27.2491 54.7607H25.7857L25.5968 55.0062C25.4835 55.1478 25.3986 55.3272 25.3986 55.4216C25.3986 55.516 25.4835 55.6954 25.5968 55.837L25.7857 56.0825H35.501H45.2162L45.4145 55.8276C45.6317 55.5444 45.6128 55.2139 45.3484 54.9212C45.2162 54.7796 45.0085 54.7607 43.7434 54.7607C42.9125 54.7607 42.2988 54.7229 42.2988 54.6757C42.2988 54.6285 42.11 53.2973 41.874 51.7206C41.6379 50.1438 41.4491 48.7654 41.4491 48.6521V48.4444L48.0392 48.416L54.62 48.3877L55.262 48.0856C56.1023 47.689 56.8482 46.9432 57.2447 46.1029L57.5468 45.4608V31.6763V17.8917L57.2447 17.2497C56.8482 16.4094 56.1023 15.6635 55.262 15.267L54.62 14.9648L35.6426 14.9459C20.4984 14.9365 16.5897 14.9554 16.2875 15.0498ZM54.7238 16.5416C55.262 16.8248 55.8096 17.3913 56.0551 17.9106C56.2156 18.2505 56.225 18.9869 56.2533 29.618L56.2722 40.9761H35.501H14.7297L14.7486 29.618C14.7769 18.9869 14.7863 18.2505 14.9468 17.9106C15.2962 17.1741 16.0798 16.5227 16.854 16.3244C17.0145 16.2866 25.4835 16.2678 35.6898 16.2678L54.2423 16.2866L54.7238 16.5416ZM56.2533 43.6858C56.2156 44.9699 56.1967 45.1209 55.9701 45.5647C55.6585 46.1595 55.1109 46.6599 54.5161 46.8865C54.0724 47.0565 53.4681 47.0659 35.501 47.0659C17.5338 47.0659 16.9295 47.0565 16.4858 46.8865C15.8815 46.6599 15.3434 46.1595 15.0318 45.5647C14.8147 45.1304 14.7863 44.951 14.7486 43.8369C14.7297 43.1477 14.7297 42.5245 14.7674 42.4396C14.8147 42.3168 17.0806 42.2979 35.5576 42.2979H56.2911L56.2533 43.6858ZM39.9857 48.5482C40.0423 48.6993 40.8826 54.3831 40.8826 54.6002C40.8826 54.7513 40.4766 54.7607 35.501 54.7607C30.5253 54.7607 30.1193 54.7513 30.1193 54.6002C30.1193 54.3831 30.9596 48.6993 31.0162 48.5482C31.0446 48.4632 32.0359 48.4349 35.501 48.4349C38.966 48.4349 39.9573 48.4632 39.9857 48.5482Z" fill="white"/>
<path d="M30.4026 19.3552C30.2421 19.5157 30.2138 19.6668 30.2138 20.3843V21.2152L29.8173 21.2813C29.2697 21.3662 28.8353 21.6873 28.6088 22.1499C28.4294 22.5087 28.4199 22.7353 28.4199 26.2475C28.4199 29.7597 28.4294 29.9863 28.6088 30.3451C28.8353 30.8077 29.2697 31.1287 29.8173 31.2137L30.2138 31.2798V32.1107C30.2138 33.0643 30.3554 33.3286 30.8747 33.3286C31.394 33.3286 31.5356 33.0643 31.5356 32.1107V31.2798L31.9322 31.2137C32.4514 31.1287 32.8291 30.8927 33.0746 30.4962C33.2823 30.1657 33.2823 30.1091 33.2823 26.2381V22.3198L33.0463 21.9799C32.7724 21.5645 32.442 21.3662 31.9322 21.2813L31.5356 21.2152V20.3843C31.5356 19.6479 31.5073 19.5252 31.3279 19.3552C31.0635 19.1097 30.6481 19.1097 30.4026 19.3552ZM31.9133 26.2475V29.8353H30.8747H29.8361V26.2475V22.6597H30.8747H31.9133V26.2475Z" fill="white"/>
<path d="M39.6266 22.3573C39.5038 22.4895 39.4661 22.7255 39.4661 23.3864V24.2362L39.0412 24.2834C38.4841 24.3495 38.0121 24.7177 37.8138 25.2275C37.6816 25.5863 37.6627 26.1056 37.6911 29.4196L37.7194 33.2056L37.9837 33.5455C38.3047 33.9704 38.6824 34.1781 39.1356 34.1781H39.4661V35.0656C39.4661 35.9153 39.4755 35.9719 39.7115 36.1513C39.8532 36.2646 40.0325 36.3496 40.127 36.3496C40.2214 36.3496 40.4008 36.2646 40.5424 36.1513C40.7784 35.9719 40.7879 35.9153 40.7879 35.0656V34.1781H41.1561C41.6376 34.1781 42.1097 33.8571 42.374 33.3283C42.5817 32.9129 42.5817 32.8563 42.5817 29.2213C42.5817 25.5863 42.5817 25.5297 42.374 25.1142C42.1286 24.6327 41.5809 24.2645 41.0994 24.2645H40.7879V23.4337C40.7879 22.414 40.6651 22.1874 40.1364 22.1874C39.9098 22.1874 39.721 22.2535 39.6266 22.3573ZM41.1466 29.2402L41.1183 32.8091H40.127H39.1356L39.1073 29.2402L39.0884 25.6807H40.127H41.1655L41.1466 29.2402Z" fill="white"/>
<path d="M21.1492 24.0756C20.9887 24.2361 20.9603 24.3872 20.9603 25.1048V25.9356L20.5638 26.0017C20.0445 26.0867 19.6669 26.3227 19.4214 26.7193C19.2231 27.0403 19.2137 27.1441 19.1853 30.6375C19.1665 32.6107 19.1853 34.4046 19.2137 34.6312C19.3081 35.2449 19.7896 35.7359 20.4505 35.8869L20.9603 36.0002V36.8217C20.9603 37.5581 20.9792 37.6619 21.1775 37.8413C21.4513 38.0963 21.8478 38.1057 22.0933 37.8602C22.2538 37.6997 22.2821 37.5486 22.2821 36.8311V35.9908L22.6881 35.9247C23.2169 35.8303 23.519 35.6509 23.7928 35.2355L24.0288 34.8956L24.0571 31.0812C24.0855 27.3613 24.076 27.2574 23.8872 26.8514C23.6512 26.3794 23.2452 26.0961 22.6787 26.0017L22.2821 25.9356V25.1048C22.2821 24.1512 22.1405 23.8868 21.6212 23.8868C21.4607 23.8868 21.253 23.9718 21.1492 24.0756ZM22.6598 30.9679V34.5557H21.6212H20.5827V30.9679V27.3802H21.6212H22.6598V30.9679Z" fill="white"/>
<path d="M48.9085 24.076C48.748 24.2365 48.7197 24.3875 48.7197 25.1051V25.9359L48.3231 26.002C47.7566 26.0964 47.3506 26.3797 47.1241 26.8518C46.9352 27.2389 46.9258 27.3994 46.9258 30.9494C46.9258 33.8479 46.9541 34.726 47.058 34.962C47.2468 35.4341 47.7755 35.8401 48.2854 35.9156L48.7197 35.9817V36.822C48.7197 37.5678 48.748 37.6906 48.9274 37.8605C49.2012 38.1155 49.5788 38.0966 49.8338 37.8322C50.0131 37.6434 50.0415 37.5018 50.0415 36.7936V35.9817L50.4758 35.9156C51.0423 35.8306 51.5993 35.3491 51.7409 34.8298C51.807 34.5938 51.8354 33.1398 51.8165 30.7511C51.7881 27.2483 51.7787 27.0311 51.5993 26.7385C51.3633 26.3419 50.9573 26.087 50.438 26.002L50.0415 25.9359V25.1051C50.0415 24.1515 49.8999 23.8871 49.3806 23.8871C49.2201 23.8871 49.0124 23.9721 48.9085 24.076ZM50.4191 30.9682V34.556H49.3806H48.342V30.9682V27.3805H49.3806H50.4191V30.9682Z" fill="white"/>
</svg>
