<svg width="41" height="41" viewBox="0 0 41 41" fill="none" xmlns="http://www.w3.org/2000/svg">
<g clip-path="url(#clip0_303_6017)">
<path d="M11.5639 37.0755C5.95781 37.0755 0 35.3926 0 32.2728V5.45684C0 2.39722 4.98278 0 11.3435 0C17.7043 0 22.6871 2.39722 22.6871 5.45684V11.3435C22.6871 11.5767 22.5945 11.8002 22.4297 11.965C22.2648 12.1299 22.0413 12.2225 21.8082 12.2225C21.575 12.2225 21.3515 12.1299 21.1867 11.965C21.0218 11.8002 20.9292 11.5767 20.9292 11.3435V9.24166C20.9292 9.16538 20.9088 9.09049 20.8702 9.0247C20.8316 8.95891 20.7762 8.90459 20.7097 8.86733C20.6431 8.83007 20.5678 8.81122 20.4916 8.81272C20.4153 8.81422 20.3408 8.83601 20.2758 8.87586C15.8311 11.5953 6.85469 11.5953 2.41067 8.87586C2.34559 8.83623 2.27115 8.81461 2.19497 8.81321C2.11879 8.81182 2.0436 8.83069 1.97712 8.86791C1.91063 8.90513 1.85523 8.95935 1.8166 9.02503C1.77796 9.0907 1.75747 9.16546 1.75723 9.24166V11.3435C1.75723 13.1328 8.36913 15.0733 15.1495 14.1553C15.3795 14.1255 15.612 14.188 15.7961 14.329C15.9803 14.4701 16.1012 14.6783 16.1324 14.9081C16.1636 15.138 16.1026 15.3708 15.9628 15.5559C15.8229 15.7409 15.6155 15.8631 15.3859 15.8958C11.3602 16.4423 5.79253 16.1405 2.38761 14.3385C2.32213 14.3039 2.24883 14.2869 2.17483 14.289C2.10083 14.2911 2.02863 14.3123 1.96522 14.3505C1.90181 14.3887 1.84935 14.4427 1.81291 14.5071C1.77647 14.5716 1.75729 14.6443 1.75723 14.7184V16.5762C1.75723 17.8183 5.57728 19.6217 11.5639 19.6217C11.797 19.6217 12.0206 19.7143 12.1854 19.8791C12.3503 20.044 12.4429 20.2675 12.4429 20.5006C12.4429 20.7337 12.3503 20.9573 12.1854 21.1221C12.0206 21.287 11.797 21.3796 11.5639 21.3796C7.95656 21.3796 4.52602 20.7037 2.38761 19.5717C2.3222 19.537 2.24892 19.5198 2.1749 19.5218C2.10088 19.5238 2.02863 19.5449 1.96518 19.5831C1.90173 19.6213 1.84924 19.6752 1.8128 19.7397C1.77636 19.8041 1.75722 19.8769 1.75723 19.951V21.8088C1.75723 22.8588 4.72205 24.534 10.0815 24.8159C10.3142 24.8281 10.5325 24.9323 10.6884 25.1055C10.8443 25.2787 10.925 25.5067 10.9127 25.7394C10.9005 25.972 10.7963 26.1903 10.6231 26.3462C10.45 26.5021 10.2219 26.5828 9.98927 26.5706C7.36215 26.5058 4.77564 25.9075 2.38697 24.812C2.32151 24.7777 2.24828 24.7608 2.17437 24.7629C2.10046 24.7651 2.02837 24.7863 1.96505 24.8245C1.90174 24.8627 1.84935 24.9166 1.81294 24.981C1.77654 25.0453 1.75735 25.118 1.75723 25.1919V27.0401C1.75723 28.0908 4.72205 29.7654 10.0815 30.0511C10.3142 30.0633 10.5325 30.1675 10.6884 30.3407C10.8443 30.5138 10.925 30.7419 10.9127 30.9745C10.9005 31.2072 10.7963 31.4255 10.6231 31.5814C10.45 31.7373 10.2219 31.818 9.98927 31.8057C7.36202 31.7404 4.7755 31.1415 2.38697 30.0453C2.32151 30.0109 2.24828 29.994 2.17437 29.9962C2.10046 29.9984 2.02837 30.0196 1.96505 30.0578C1.90174 30.096 1.84935 30.1499 1.81294 30.2142C1.77654 30.2786 1.75735 30.3513 1.75723 30.4252V32.2734C1.75723 33.5149 5.57728 35.3189 11.5639 35.3189C11.7911 35.3276 12.006 35.4239 12.1636 35.5877C12.3213 35.7515 12.4093 35.9699 12.4093 36.1972C12.4093 36.4245 12.3213 36.643 12.1636 36.8068C12.006 36.9705 11.7911 37.0669 11.5639 37.0755ZM11.3435 1.75723C5.69452 1.75723 1.75723 3.7073 1.75723 5.45684C1.75723 7.20639 5.69452 9.15645 11.3435 9.15645C16.9926 9.15645 20.9292 7.20703 20.9292 5.45684C20.9292 3.70666 16.9926 1.75723 11.3435 1.75723Z" fill="#FF9C35"/>
<path d="M27.0399 41C24.2789 41 21.5799 40.1813 19.2843 38.6474C16.9886 37.1135 15.1993 34.9332 14.1427 32.3824C13.0861 29.8316 12.8097 27.0247 13.3483 24.3168C13.887 21.6088 15.2165 19.1214 17.1688 17.1691C19.1212 15.2168 21.6086 13.8872 24.3165 13.3486C27.0245 12.8099 29.8313 13.0864 32.3821 14.143C34.933 15.1995 37.1132 16.9888 38.6471 19.2845C40.1811 21.5802 40.9998 24.2792 40.9998 27.0402C40.9957 30.7413 39.5237 34.2897 36.9066 36.9068C34.2895 39.5239 30.7411 40.996 27.0399 41ZM27.0399 14.8382C24.6265 14.8382 22.2672 15.5539 20.2605 16.8948C18.2537 18.2356 16.6897 20.1415 15.7661 22.3712C14.8426 24.601 14.6009 27.0546 15.0718 29.4217C15.5427 31.7888 16.705 33.9631 18.4116 35.6696C20.1182 37.3762 22.2926 38.5383 24.6597 39.0091C27.0268 39.4798 29.4804 39.2381 31.7101 38.3144C33.9399 37.3907 35.8456 35.8266 37.1864 33.8198C38.5271 31.813 39.2427 29.4537 39.2426 27.0402C39.2388 23.8051 37.952 20.7035 35.6643 18.416C33.3767 16.1284 30.2751 14.8418 27.0399 14.8382Z" fill="#FF9C35"/>
<path d="M28.3488 35.7679C28.1158 35.7676 27.8925 35.6748 27.7279 35.51C27.5632 35.3453 27.4706 35.1219 27.4705 34.889V33.5808C27.4705 33.5244 27.4593 33.4685 27.4377 33.4164C27.4161 33.3643 27.3845 33.3169 27.3445 33.2771C27.3046 33.2372 27.2572 33.2056 27.2051 33.1841C27.1529 33.1625 27.097 33.1515 27.0406 33.1516H25.7331C25.6767 33.1515 25.6208 33.1625 25.5686 33.1841C25.5165 33.2056 25.4691 33.2372 25.4292 33.2771C25.3893 33.3169 25.3576 33.3643 25.336 33.4164C25.3144 33.4685 25.3032 33.5244 25.3032 33.5808V34.889C25.3064 35.0063 25.286 35.1232 25.2433 35.2325C25.2006 35.3419 25.1364 35.4416 25.0545 35.5257C24.9726 35.6099 24.8746 35.6768 24.7664 35.7224C24.6583 35.7681 24.542 35.7916 24.4246 35.7916C24.3072 35.7916 24.191 35.7681 24.0828 35.7224C23.9746 35.6768 23.8767 35.6099 23.7948 35.5257C23.7129 35.4416 23.6487 35.3419 23.6059 35.2325C23.5632 35.1232 23.5428 35.0063 23.546 34.889V33.5808C23.546 33.467 23.5008 33.3578 23.4203 33.2773C23.3398 33.1968 23.2306 33.1516 23.1168 33.1516H21.8086C21.5755 33.1516 21.352 33.059 21.1871 32.8941C21.0223 32.7293 20.9297 32.5058 20.9297 32.2726C20.9297 32.0395 21.0223 31.816 21.1871 31.6511C21.352 31.4863 21.5755 31.3937 21.8086 31.3937H23.1168C23.1731 31.3937 23.229 31.3826 23.281 31.361C23.3331 31.3395 23.3804 31.3079 23.4203 31.268C23.4601 31.2281 23.4918 31.1808 23.5133 31.1287C23.5349 31.0767 23.546 31.0209 23.546 30.9645V23.1162C23.546 23.0024 23.5008 22.8932 23.4203 22.8127C23.3398 22.7322 23.2306 22.687 23.1168 22.687H21.8086C21.5755 22.687 21.352 22.5944 21.1871 22.4295C21.0223 22.2647 20.9297 22.0411 20.9297 21.808C20.9297 21.5749 21.0223 21.3514 21.1871 21.1865C21.352 21.0217 21.5755 20.9291 21.8086 20.9291H23.1168C23.2306 20.9291 23.3398 20.8839 23.4203 20.8034C23.5008 20.7229 23.546 20.6137 23.546 20.4999V19.1917C23.5428 19.0743 23.5632 18.9575 23.6059 18.8482C23.6487 18.7388 23.7129 18.6391 23.7948 18.5549C23.8767 18.4708 23.9746 18.4039 24.0828 18.3583C24.191 18.3126 24.3072 18.2891 24.4246 18.2891C24.542 18.2891 24.6583 18.3126 24.7664 18.3583C24.8746 18.4039 24.9726 18.4708 25.0545 18.5549C25.1364 18.6391 25.2006 18.7388 25.2433 18.8482C25.286 18.9575 25.3064 19.0743 25.3032 19.1917V20.4999C25.3032 20.5563 25.3144 20.6122 25.336 20.6643C25.3576 20.7164 25.3893 20.7637 25.4292 20.8036C25.4691 20.8435 25.5165 20.8751 25.5686 20.8966C25.6208 20.9181 25.6767 20.9292 25.7331 20.9291H27.0406C27.097 20.9292 27.1529 20.9181 27.2051 20.8966C27.2572 20.8751 27.3046 20.8435 27.3445 20.8036C27.3845 20.7637 27.4161 20.7164 27.4377 20.6643C27.4593 20.6122 27.4705 20.5563 27.4705 20.4999V19.1917C27.4673 19.0743 27.4877 18.9575 27.5304 18.8482C27.5731 18.7388 27.6374 18.6391 27.7193 18.5549C27.8012 18.4708 27.8991 18.4039 28.0073 18.3583C28.1154 18.3126 28.2317 18.2891 28.3491 18.2891C28.4665 18.2891 28.5827 18.3126 28.6909 18.3583C28.7991 18.4039 28.897 18.4708 28.9789 18.5549C29.0608 18.6391 29.125 18.7388 29.1678 18.8482C29.2105 18.9575 29.2309 19.0743 29.2277 19.1917V20.7408C29.2276 20.8293 29.255 20.9158 29.306 20.9882C29.3571 21.0605 29.4293 21.1153 29.5128 21.145C29.9934 21.3121 30.4313 21.5833 30.7951 21.9391C31.159 22.2949 31.4398 22.7266 31.6177 23.2034C31.7955 23.6801 31.866 24.1903 31.8241 24.6975C31.7821 25.2046 31.6288 25.6963 31.3751 26.1374C31.32 26.2334 31.3042 26.3471 31.3309 26.4545C31.3577 26.5619 31.4249 26.6549 31.5186 26.7139C32.1566 27.1186 32.6461 27.7193 32.9137 28.4258C33.1813 29.1324 33.2125 29.9066 33.0028 30.6324C32.793 31.3582 32.3535 31.9964 31.7502 32.4512C31.1469 32.906 30.4124 33.1529 29.6569 33.1548C29.5431 33.1548 29.4339 33.2 29.3534 33.2805C29.2729 33.361 29.2277 33.4702 29.2277 33.584V34.8922C29.2265 35.1246 29.1334 35.3472 28.9688 35.5112C28.8041 35.6753 28.5812 35.7676 28.3488 35.7679ZM25.7331 27.919C25.6767 27.9189 25.6208 27.9299 25.5686 27.9514C25.5165 27.973 25.4691 28.0046 25.4292 28.0444C25.3893 28.0843 25.3576 28.1317 25.336 28.1838C25.3144 28.2359 25.3032 28.2918 25.3032 28.3482V30.9645C25.3032 31.0209 25.3144 31.0768 25.336 31.1289C25.3576 31.181 25.3893 31.2284 25.4292 31.2682C25.4691 31.3081 25.5165 31.3397 25.5686 31.3612C25.6208 31.3828 25.6767 31.3938 25.7331 31.3937H29.6569C31.9568 31.3937 31.9536 27.919 29.6569 27.919H25.7331ZM25.7331 22.687C25.6767 22.6869 25.6208 22.6979 25.5686 22.7195C25.5165 22.741 25.4691 22.7726 25.4292 22.8125C25.3893 22.8523 25.3576 22.8997 25.336 22.9518C25.3144 23.0039 25.3032 23.0598 25.3032 23.1162V25.7325C25.3032 25.7889 25.3144 25.8448 25.336 25.8969C25.3576 25.949 25.3893 25.9964 25.4292 26.0362C25.4691 26.0761 25.5165 26.1077 25.5686 26.1292C25.6208 26.1508 25.6767 26.1618 25.7331 26.1617H28.3488C30.6486 26.1617 30.6454 22.687 28.3488 22.687H25.7331Z" fill="#FF9C35"/>
</g>
<defs>
<clipPath id="clip0_303_6017">
<rect width="41" height="41" fill="white"/>
</clipPath>
</defs>
</svg>
