<svg width="55" height="56" viewBox="0 0 55 56" fill="none" xmlns="http://www.w3.org/2000/svg">
<g clip-path="url(#clip0_303_9456)">
<path d="M26.6406 41.125H28.3594C28.8337 41.125 29.2188 41.5179 29.2188 42H30.9375C30.9375 40.5527 29.7808 39.375 28.3594 39.375V37.625H26.6406V39.375C25.2192 39.375 24.0625 40.5527 24.0625 42C24.0625 43.4472 25.2192 44.625 26.6406 44.625H28.3594C28.8337 44.625 29.2188 45.0179 29.2188 45.5C29.2188 45.9821 28.8337 46.375 28.3594 46.375H26.6406C26.1662 46.375 25.7812 45.9821 25.7812 45.5H24.0625C24.0625 46.9473 25.2192 48.125 26.6406 48.125V49.875H28.3594V48.125C29.7808 48.125 30.9375 46.9473 30.9375 45.5C30.9375 44.0528 29.7808 42.875 28.3594 42.875H26.6406C26.1662 42.875 25.7812 42.4821 25.7812 42C25.7812 41.5179 26.1662 41.125 26.6406 41.125Z" fill="#07A0E6"/>
<path d="M52.0008 37.2199L47.5071 31.5L49.8171 28.5591C50.3886 27.832 50.7031 26.9194 50.7031 25.9893C50.7031 23.9312 49.2061 22.2364 47.2656 21.9371V3.5C47.2656 2.05275 46.1089 0.875 44.6875 0.875H10.3125C8.89109 0.875 7.73438 2.05275 7.73438 3.5V23.625H7.58656C5.77328 23.625 4.29688 25.1274 4.29688 26.9754C4.29688 27.8696 4.63891 28.7105 5.26023 29.344L7.44219 31.5656L2.99922 37.2199C1.61992 38.9751 0.859375 41.1819 0.859375 43.4315C0.859375 48.9142 5.24047 53.375 10.6253 53.375H11.7176C14.367 53.375 16.8309 52.3022 18.6588 50.4053C20.3835 53.2324 23.4515 55.125 26.9534 55.125H28.0457C31.5477 55.125 34.6165 53.2324 36.3404 50.4053C38.1683 52.3022 40.6321 53.375 43.2816 53.375H44.3738C49.7595 53.375 54.1406 48.9142 54.1406 43.4315C54.1406 41.1819 53.3801 38.9751 52.0008 37.2199ZM48.9844 25.9893C48.9844 26.5239 48.8039 27.048 48.4748 27.4662L45.9929 30.625H41.6058L39.1316 28.1068C38.8352 27.804 38.6719 27.4024 38.6719 26.9754C38.6719 26.0925 39.3766 25.375 40.2428 25.375H40.5384C41.4047 25.375 42.1094 26.0925 42.1094 26.9754V27.125H43.8281V26.9754V25.9893C43.8281 24.6855 44.8697 23.625 46.1493 23.625H46.6632C47.9428 23.625 48.9844 24.6855 48.9844 25.9893ZM35.6563 37.219C35.4252 37.5121 35.2172 37.8228 35.0212 38.1404L31.179 33.25L33.489 30.3091C33.8224 29.8848 34.057 29.393 34.204 28.875H37.5392C37.6518 29.0404 37.7747 29.1987 37.9173 29.344L40.0993 31.5656L35.6563 37.219ZM19.9788 38.1404C19.7828 37.8228 19.5748 37.5121 19.3445 37.219L14.8509 31.5L16.9125 28.875H20.6396C20.6766 29.7124 21.0031 30.4964 21.5884 31.094L23.7703 33.3156L19.9788 38.1404ZM42.1094 24.0503C41.6402 23.7878 41.1099 23.625 40.5384 23.625H40.3906V7.875H35.2344V27.125H34.314C34.2091 26.4171 33.9281 25.7749 33.5156 25.2324V11.375H28.3594V23.9146C27.6727 24.1876 27.0858 24.6488 26.6406 25.2332V16.625H21.4844V26.4871C21.3125 26.6805 21.1673 26.8949 21.0427 27.125H19.7656V13.125H14.6094V21.9371C14.4109 21.9065 14.2132 21.875 14.007 21.875H13.493C13.2868 21.875 13.0883 21.9065 12.8906 21.9371V6.125H42.1094V24.0503ZM36.9531 26.9754C36.9531 27.0261 36.9652 27.0751 36.9677 27.125H36.9531V26.9754V9.625H38.6719V24.0503C37.6535 24.6199 36.9531 25.7101 36.9531 26.9754ZM31.7969 23.9146C31.3423 23.7335 30.8516 23.625 30.3351 23.625H30.0781V13.125H31.7969V23.9146ZM24.9219 25.459C24.6924 25.4065 24.4552 25.375 24.2103 25.375H23.9147C23.6698 25.375 23.4326 25.4065 23.2031 25.459V18.375H24.9219V25.459ZM16.3281 22.6327V14.875H18.0469V25.9893V27.125H17.8759C17.9798 26.7566 18.0469 26.376 18.0469 25.9893C18.0469 24.6015 17.3645 23.3783 16.3281 22.6327ZM25.2777 32.375L22.8035 29.8568C22.507 29.554 22.3438 29.1524 22.3438 28.7254C22.3438 27.8425 23.0484 27.125 23.9147 27.125H24.2103C25.0766 27.125 25.7812 27.8425 25.7812 28.7254V28.875H27.5V28.7254V27.7393C27.5 26.4355 28.5416 25.375 29.8212 25.375H30.3351C31.6147 25.375 32.6562 26.4355 32.6562 27.7393C32.6562 28.2739 32.4758 28.798 32.1466 29.2162L29.6648 32.375H25.2777ZM10.3125 2.625H44.6875C45.1619 2.625 45.5469 3.01787 45.5469 3.5V21.9371C44.9144 22.0342 44.3291 22.2722 43.8281 22.6327V4.375H11.1719V22.6327C10.5901 23.051 10.1252 23.6215 9.82609 24.2874C9.70836 24.199 9.58289 24.1229 9.45312 24.0511V3.5C9.45312 3.01787 9.83813 2.625 10.3125 2.625ZM6.01562 26.9754C6.01562 26.0925 6.72031 25.375 7.58656 25.375H7.88219C8.74844 25.375 9.45312 26.0925 9.45312 26.9754V27.125H11.1719V26.9754V25.9893C11.1719 24.6855 12.2134 23.625 13.493 23.625H14.007C15.2866 23.625 16.3281 24.6855 16.3281 25.9893C16.3281 26.5239 16.1477 27.048 15.8185 27.4662L13.3366 30.625H8.94953L6.47539 28.1068C6.17891 27.804 6.01562 27.4024 6.01562 26.9754ZM11.7184 51.625H10.6262C6.18836 51.625 2.57812 47.9491 2.57812 43.4315C2.57812 41.5774 3.20461 39.76 4.34242 38.3127L9.00625 32.375H13.3366L18.0022 38.3127C18.327 38.7266 18.5977 39.1799 18.8384 39.6489C17.7693 41.279 17.1875 43.2136 17.1875 45.1815C17.1875 46.4284 17.4238 47.6166 17.8372 48.7174C16.3015 50.5645 14.1023 51.625 11.7184 51.625ZM28.0466 53.375H26.9543C22.5165 53.375 18.9062 49.6991 18.9062 45.1815C18.9062 43.3274 19.5327 41.51 20.6705 40.0627L25.3344 34.125H29.6648L34.3295 40.0627C35.4673 41.51 36.0938 43.3274 36.0938 45.1815C36.0938 49.6991 32.4835 53.375 28.0466 53.375ZM44.3747 51.625H43.2824C40.8985 51.625 38.6994 50.5645 37.1637 48.7174C37.5762 47.6166 37.8125 46.4275 37.8125 45.1815C37.8125 43.2136 37.2307 41.279 36.1608 39.6497C36.4014 39.1807 36.6721 38.7275 36.9978 38.3127L41.6625 32.375H45.9929L50.6576 38.3127C51.7954 39.76 52.4219 41.5774 52.4219 43.4315C52.4219 47.9491 48.8116 51.625 44.3747 51.625Z" fill="#07A0E6"/>
<path d="M11.1719 37.625C12.1198 37.625 12.8906 38.4099 12.8906 39.375H14.6094C14.6094 37.4447 13.0677 35.875 11.1719 35.875C9.27609 35.875 7.73438 37.4447 7.73438 39.375H6.01562V41.125H7.73438V42.875H6.01562V44.625H7.73438C7.73438 46.5553 9.27609 48.125 11.1719 48.125C13.0677 48.125 14.6094 46.5553 14.6094 44.625H12.8906C12.8906 45.5901 12.1198 46.375 11.1719 46.375C10.224 46.375 9.45312 45.5901 9.45312 44.625H11.1719V42.875H9.45312V41.125H11.1719V39.375H9.45312C9.45312 38.4099 10.224 37.625 11.1719 37.625Z" fill="#07A0E6"/>
<path d="M48.7327 36.4936L47.5176 35.2563L43.8283 39.0127L40.139 35.2563L38.9238 36.4936L42.9689 40.6122V41.125H41.2502V42.875H42.9689V44.625H41.2502V46.375H42.9689V48.125H44.6877V46.375H46.4064V44.625H44.6877V42.875H46.4064V41.125H44.6877V40.6122L48.7327 36.4936Z" fill="#07A0E6"/>
</g>
<defs>
<clipPath id="clip0_303_9456">
<rect width="55" height="56" fill="white"/>
</clipPath>
</defs>
</svg>
