<svg width="34" height="34" viewBox="0 0 34 34" fill="none" xmlns="http://www.w3.org/2000/svg">
<g clip-path="url(#clip0_303_9358)">
<path d="M16.4688 24.9688H17.5312C17.8245 24.9688 18.0625 25.2073 18.0625 25.5H19.125C19.125 24.6213 18.4099 23.9062 17.5312 23.9062V22.8438H16.4688V23.9062C15.5901 23.9062 14.875 24.6213 14.875 25.5C14.875 26.3787 15.5901 27.0938 16.4688 27.0938H17.5312C17.8245 27.0938 18.0625 27.3323 18.0625 27.625C18.0625 27.9177 17.8245 28.1562 17.5312 28.1562H16.4688C16.1755 28.1562 15.9375 27.9177 15.9375 27.625H14.875C14.875 28.5037 15.5901 29.2188 16.4688 29.2188V30.2812H17.5312V29.2188C18.4099 29.2188 19.125 28.5037 19.125 27.625C19.125 26.7463 18.4099 26.0312 17.5312 26.0312H16.4688C16.1755 26.0312 15.9375 25.7927 15.9375 25.5C15.9375 25.2073 16.1755 24.9688 16.4688 24.9688Z" fill="white"/>
<path d="M32.1459 22.5978L29.368 19.125L30.796 17.3395C31.1493 16.898 31.3438 16.3439 31.3438 15.7792C31.3438 14.5297 30.4183 13.5007 29.2188 13.319V2.125C29.2188 1.24631 28.5037 0.53125 27.625 0.53125H6.375C5.49631 0.53125 4.78125 1.24631 4.78125 2.125V14.3438H4.68988C3.56894 14.3438 2.65625 15.2559 2.65625 16.3779C2.65625 16.9208 2.86769 17.4314 3.25178 17.816L4.60063 19.1648L1.85406 22.5978C1.00141 23.6635 0.53125 25.0033 0.53125 26.3691C0.53125 29.6979 3.23956 32.4062 6.56838 32.4062H7.24359C8.88144 32.4062 10.4045 31.7549 11.5345 30.6032C12.6007 32.3197 14.4973 33.4688 16.6621 33.4688H17.3373C19.5022 33.4688 21.3993 32.3197 22.465 30.6032C23.5949 31.7549 25.118 32.4062 26.7559 32.4062H27.4311C30.7604 32.4062 33.4688 29.6979 33.4688 26.3691C33.4688 25.0033 32.9986 23.6635 32.1459 22.5978ZM30.2812 15.7792C30.2812 16.1038 30.1697 16.422 29.9662 16.6759L28.432 18.5938H25.7199L24.1905 17.0648C24.0072 16.881 23.9062 16.6372 23.9062 16.3779C23.9062 15.8419 24.3419 15.4062 24.8774 15.4062H25.0601C25.5956 15.4062 26.0312 15.8419 26.0312 16.3779V16.4688H27.0938V16.3779V15.7792C27.0938 14.9876 27.7376 14.3438 28.5287 14.3438H28.8463C29.6374 14.3438 30.2812 14.9876 30.2812 15.7792ZM22.0421 22.5972C21.8992 22.7752 21.7706 22.9638 21.6495 23.1567L19.2743 20.1875L20.7023 18.402C20.9084 18.1443 21.0534 17.8458 21.1443 17.5312H23.2061C23.2757 17.6317 23.3516 17.7278 23.4398 17.816L24.7887 19.1648L22.0421 22.5972ZM12.3505 23.1567C12.2294 22.9638 12.1008 22.7752 11.9584 22.5972L9.18053 19.125L10.455 17.5312H12.759C12.7819 18.0397 12.9838 18.5157 13.3455 18.8785L14.6944 20.2273L12.3505 23.1567ZM26.0312 14.6019C25.7412 14.4426 25.4134 14.3438 25.0601 14.3438H24.9688V4.78125H21.7812V16.4688H21.2123C21.1475 16.039 20.9737 15.649 20.7188 15.3197V6.90625H17.5312V14.5196C17.1068 14.6853 16.7439 14.9653 16.4688 15.3202V10.0938H13.2812V16.0815C13.175 16.1989 13.0852 16.329 13.0082 16.4688H12.2188V7.96875H9.03125V13.319C8.90853 13.3004 8.78634 13.2812 8.65884 13.2812H8.34116C8.21366 13.2812 8.09094 13.3004 7.96875 13.319V3.71875H26.0312V14.6019ZM22.8438 16.3779C22.8438 16.4087 22.8512 16.4385 22.8528 16.4688H22.8438V16.3779V5.84375H23.9062V14.6019C23.2767 14.9478 22.8438 15.6097 22.8438 16.3779ZM19.6562 14.5196C19.3752 14.4096 19.0719 14.3438 18.7526 14.3438H18.5938V7.96875H19.6562V14.5196ZM15.4062 15.4573C15.2644 15.4254 15.1178 15.4062 14.9664 15.4062H14.7836C14.6322 15.4062 14.4856 15.4254 14.3438 15.4573V11.1562H15.4062V15.4573ZM10.0938 13.7413V9.03125H11.1562V15.7792V16.4688H11.0505C11.1148 16.2451 11.1562 16.014 11.1562 15.7792C11.1562 14.9366 10.7344 14.1939 10.0938 13.7413ZM15.6262 19.6562L14.0967 18.1273C13.9134 17.9435 13.8125 17.6997 13.8125 17.4404C13.8125 16.9044 14.2481 16.4688 14.7836 16.4688H14.9664C15.5019 16.4688 15.9375 16.9044 15.9375 17.4404V17.5312H17V17.4404V16.8417C17 16.0501 17.6439 15.4062 18.4349 15.4062H18.7526C19.5436 15.4062 20.1875 16.0501 20.1875 16.8417C20.1875 17.1663 20.0759 17.4845 19.8725 17.7384L18.3382 19.6562H15.6262ZM6.375 1.59375H27.625C27.9182 1.59375 28.1562 1.83228 28.1562 2.125V13.319C27.7652 13.3779 27.4035 13.5224 27.0938 13.7413V2.65625H6.90625V13.7413C6.54659 13.9952 6.25919 14.3416 6.07431 14.7459C6.00153 14.6923 5.92397 14.646 5.84375 14.6025V2.125C5.84375 1.83228 6.08175 1.59375 6.375 1.59375ZM3.71875 16.3779C3.71875 15.8419 4.15438 15.4062 4.68988 15.4062H4.87262C5.40812 15.4062 5.84375 15.8419 5.84375 16.3779V16.4688H6.90625V16.3779V15.7792C6.90625 14.9876 7.55013 14.3438 8.34116 14.3438H8.65884C9.44987 14.3438 10.0938 14.9876 10.0938 15.7792C10.0938 16.1038 9.98219 16.422 9.77872 16.6759L8.24447 18.5938H5.53244L4.00297 17.0648C3.81969 16.881 3.71875 16.6372 3.71875 16.3779ZM7.24412 31.3438H6.56891C3.82553 31.3438 1.59375 29.112 1.59375 26.3691C1.59375 25.2434 1.98103 24.14 2.68441 23.2613L5.5675 19.6562H8.24447L11.1286 23.2613C11.3294 23.5126 11.4968 23.7878 11.6455 24.0725C10.9847 25.0623 10.625 26.2368 10.625 27.4316C10.625 28.1887 10.7711 28.9101 11.0266 29.5784C10.0773 30.6999 8.71781 31.3438 7.24412 31.3438ZM17.3379 32.4062H16.6627C13.9193 32.4062 11.6875 30.1745 11.6875 27.4316C11.6875 26.3059 12.0748 25.2025 12.7782 24.3238L15.6613 20.7188H18.3382L21.2218 24.3238C21.9252 25.2025 22.3125 26.3059 22.3125 27.4316C22.3125 30.1745 20.0807 32.4062 17.3379 32.4062ZM27.4316 31.3438H26.7564C25.2827 31.3438 23.9233 30.6999 22.9739 29.5784C23.2289 28.9101 23.375 28.1881 23.375 27.4316C23.375 26.2368 23.0153 25.0623 22.3539 24.0731C22.5027 23.7883 22.67 23.5131 22.8714 23.2613L25.755 19.6562H28.432L31.3156 23.2613C32.019 24.14 32.4062 25.2434 32.4062 26.3691C32.4062 29.112 30.1745 31.3438 27.4316 31.3438Z" fill="white"/>
<path d="M6.90625 22.8438C7.49222 22.8438 7.96875 23.3203 7.96875 23.9062H9.03125C9.03125 22.7343 8.07819 21.7812 6.90625 21.7812C5.73431 21.7812 4.78125 22.7343 4.78125 23.9062H3.71875V24.9688H4.78125V26.0312H3.71875V27.0938H4.78125C4.78125 28.2657 5.73431 29.2188 6.90625 29.2188C8.07819 29.2188 9.03125 28.2657 9.03125 27.0938H7.96875C7.96875 27.6797 7.49222 28.1562 6.90625 28.1562C6.32028 28.1562 5.84375 27.6797 5.84375 27.0938H6.90625V26.0312H5.84375V24.9688H6.90625V23.9062H5.84375C5.84375 23.3203 6.32028 22.8438 6.90625 22.8438Z" fill="white"/>
<path d="M30.1262 22.1568L29.375 21.4056L27.0943 23.6863L24.8137 21.4056L24.0625 22.1568L26.5631 24.6574V24.9687H25.5006V26.0312H26.5631V27.0937H25.5006V28.1562H26.5631V29.2187H27.6256V28.1562H28.6881V27.0937H27.6256V26.0312H28.6881V24.9687H27.6256V24.6574L30.1262 22.1568Z" fill="white"/>
</g>
<defs>
<clipPath id="clip0_303_9358">
<rect width="34" height="34" fill="white"/>
</clipPath>
</defs>
</svg>
