<svg width="77" height="77" viewBox="0 0 77 77" fill="none" xmlns="http://www.w3.org/2000/svg">
<path d="M16.6919 62.1613C17.0762 62.546 17.5327 62.851 18.0351 63.0588C18.5376 63.2666 19.0762 63.3731 19.6199 63.3721H19.636C19.6332 63.9171 19.7382 64.4573 19.945 64.9616C20.1517 65.4659 20.4562 65.9243 20.8408 66.3105C21.2255 66.6967 21.6827 67.0029 22.1862 67.2117C22.6896 67.4205 23.2294 67.5276 23.7744 67.5269H23.7922V67.5432C23.7911 68.0868 23.8973 68.6253 24.1048 69.1278C24.3123 69.6303 24.617 70.0868 25.0014 70.4712C25.3858 70.8557 25.8424 71.1604 26.3448 71.3679C26.8473 71.5754 27.3858 71.6817 27.9294 71.6806H27.9455C27.9424 72.5006 28.1829 73.3031 28.6364 73.9864C29.0899 74.6696 29.7361 75.2027 30.493 75.5183C31.2499 75.8338 32.0835 75.9175 32.888 75.7587C33.6926 75.5999 34.4318 75.2057 35.0121 74.6263L36.8086 72.8297C37.1555 72.4835 37.4378 72.0781 37.6423 71.6326L40.962 74.0064C41.66 74.5077 42.4978 74.7772 43.3571 74.7767C43.5889 74.7766 43.8203 74.7574 44.0489 74.7194C44.5854 74.6314 45.0992 74.4384 45.5609 74.1513C46.0226 73.8643 46.4231 73.4888 46.7393 73.0466C47.0555 72.6044 47.2812 72.104 47.4035 71.5743C47.5259 71.0446 47.5424 70.4959 47.4521 69.9598C47.4512 69.9543 47.45 69.9487 47.4489 69.9431C47.9873 69.8571 48.5033 69.6652 48.9672 69.3787C49.431 69.0922 49.8336 68.7166 50.1515 68.2737C50.4695 67.8308 50.6966 67.3293 50.8197 66.7982C50.9429 66.2671 50.9596 65.7168 50.869 65.1792C50.8681 65.1736 50.8667 65.1682 50.8658 65.1625C51.4056 65.0762 51.923 64.8835 52.3878 64.5958C52.8526 64.308 53.2557 63.9309 53.5737 63.4862C53.8917 63.0415 54.1183 62.5381 54.2403 62.0052C54.3624 61.4723 54.3774 60.9205 54.2846 60.3817C54.2899 60.3808 54.2953 60.3807 54.3006 60.3798C55.2595 60.2226 56.1323 59.7321 56.7652 58.9947C57.3981 58.2573 57.7505 57.3203 57.7605 56.3486L63.4028 53.7646L64.1985 55.0029C64.2839 55.1358 64.3947 55.2506 64.5244 55.3408C64.6542 55.4309 64.8005 55.4946 64.9549 55.5282C65.1092 55.5618 65.2687 55.5647 65.4242 55.5367C65.5797 55.5086 65.7282 55.4503 65.8611 55.3649L76.4471 48.5631C76.58 48.4777 76.6948 48.367 76.785 48.2372C76.8751 48.1074 76.9388 47.9612 76.9724 47.8068C77.006 47.6524 77.0088 47.4929 76.9808 47.3374C76.9527 47.1819 76.8944 47.0335 76.809 46.9006L63.8042 26.6591C63.7188 26.5261 63.608 26.4112 63.4782 26.3211C63.3484 26.231 63.2022 26.1673 63.0477 26.1337C62.8933 26.1001 62.7338 26.0972 62.5783 26.1253C62.4228 26.1533 62.2743 26.2118 62.1413 26.2972L51.5552 33.0989C51.4223 33.1843 51.3075 33.2951 51.2174 33.4249C51.1272 33.5546 51.0635 33.7009 51.0299 33.8553C50.9963 34.0097 50.9935 34.1692 51.0215 34.3246C51.0496 34.4801 51.108 34.6286 51.1934 34.7615L51.5338 35.2913H36.7174C35.5466 35.2753 34.3849 35.4972 33.3024 35.9433C32.2199 36.3895 31.2392 37.0507 30.4198 37.8869L29.2244 39.0738L24.7102 36.4674L25.8062 34.7615C25.8916 34.6286 25.95 34.4801 25.9781 34.3246C26.0061 34.1692 26.0032 34.0097 25.9696 33.8553C25.936 33.7009 25.8724 33.5546 25.7822 33.4249C25.6921 33.2951 25.5773 33.1843 25.4444 33.0989L14.8585 26.2972C14.7256 26.2118 14.5772 26.1534 14.4217 26.1254C14.2662 26.0973 14.1067 26.1002 13.9523 26.1338C13.7979 26.1674 13.6517 26.2311 13.5219 26.3212C13.3921 26.4113 13.2814 26.5261 13.196 26.6591L0.190933 46.8998C0.105525 47.0327 0.0471345 47.1812 0.0190961 47.3367C-0.00894232 47.4922 -0.00607982 47.6517 0.0275202 47.806C0.0611202 47.9604 0.1248 48.1067 0.214923 48.2365C0.305046 48.3662 0.419847 48.477 0.552773 48.5624L11.1388 55.3641C11.2717 55.4495 11.4202 55.5079 11.5757 55.5359C11.7311 55.5639 11.8906 55.5611 12.045 55.5275C12.1994 55.4938 12.3457 55.4301 12.4754 55.34C12.6052 55.2499 12.7159 55.1351 12.8013 55.0021L13.5492 53.8382L16.374 56.6632C15.7458 57.4601 15.4312 58.4595 15.4898 59.4726C15.5484 60.4856 15.976 61.4421 16.6919 62.1613ZM18.3927 60.4598C18.0696 60.1333 17.8883 59.6926 17.8883 59.2332C17.8883 58.7739 18.0696 58.3331 18.3927 58.0066L20.8441 55.5553C21.005 55.3936 21.1963 55.2653 21.4069 55.1777C21.6175 55.09 21.8433 55.0448 22.0714 55.0445C22.2995 55.0443 22.5255 55.0891 22.7363 55.1762C22.9471 55.2634 23.1386 55.3913 23.2999 55.5526C23.4612 55.7139 23.5891 55.9055 23.6762 56.1163C23.7634 56.3271 23.8081 56.553 23.8079 56.7811C23.8076 57.0092 23.7624 57.235 23.6747 57.4456C23.5871 57.6562 23.4588 57.8475 23.2971 58.0084L20.8457 60.4598C20.5202 60.7846 20.0791 60.9669 19.6192 60.9669C19.1594 60.9669 18.7183 60.7846 18.3927 60.4598ZM22.5474 64.6145C22.2226 64.2889 22.0402 63.8478 22.0402 63.3879C22.0402 62.928 22.2226 62.4869 22.5474 62.1613L27.4501 57.2586C27.7763 56.9373 28.2163 56.7579 28.6741 56.7596C29.1319 56.7614 29.5705 56.944 29.8943 57.2678C30.218 57.5915 30.4006 58.0301 30.4023 58.488C30.404 58.9458 30.2246 59.3858 29.9033 59.7119L25.0006 64.6146C24.675 64.9392 24.234 65.1214 23.7743 65.1214C23.3145 65.1214 22.8736 64.9391 22.548 64.6145H22.5474ZM27.9285 69.2736C27.5862 69.2729 27.2517 69.1708 26.9672 68.9804C26.6828 68.79 26.461 68.5196 26.3298 68.2034C26.1987 67.8871 26.1641 67.5392 26.2303 67.2033C26.2965 66.8674 26.4606 66.5587 26.7019 66.3159L29.9584 63.0596C30.2839 62.7355 30.7247 62.5537 31.1841 62.5542C31.6435 62.5547 32.0839 62.7374 32.4088 63.0622C32.7336 63.387 32.9163 63.8275 32.9169 64.2868C32.9174 64.7462 32.7356 65.1871 32.4115 65.5126L30.9527 66.9714H30.952L29.1557 68.769C28.9948 68.93 28.8035 69.0575 28.593 69.1441C28.3824 69.2308 28.1568 69.2747 27.9291 69.2736H27.9285ZM35.1062 71.127L33.3104 72.9243C33.1498 73.0874 32.9584 73.217 32.7474 73.3058C32.5365 73.3946 32.31 73.4407 32.0811 73.4416C31.8522 73.4424 31.6254 73.3979 31.4138 73.3107C31.2021 73.2235 31.0098 73.0953 30.848 72.9334C30.6861 72.7716 30.5579 72.5793 30.4707 72.3676C30.3835 72.156 30.3391 71.9292 30.3399 71.7003C30.3408 71.4714 30.3869 71.2449 30.4757 71.0339C30.5645 70.823 30.6942 70.6316 30.8572 70.471L32.6531 68.6752C32.9786 68.3511 33.4194 68.1693 33.8788 68.1699C34.3382 68.1704 34.7786 68.3531 35.1035 68.6779C35.4283 69.0028 35.611 69.4432 35.6115 69.9026C35.612 70.362 35.4302 70.8028 35.1061 71.1284L35.1062 71.127ZM62.4295 28.9725L74.1337 47.1889L65.5721 52.69L53.8684 34.473L62.4295 28.9725ZM32.1153 39.5943C32.7112 38.9794 33.4273 38.4937 34.219 38.1674C35.0107 37.8411 35.8611 37.6812 36.7172 37.6976H53.0797L62.0881 51.7191L57.075 54.0157C56.7964 53.5928 56.4422 53.2249 56.0302 52.9305L43.8614 44.225C42.8429 43.4861 41.62 43.0822 40.3618 43.0691C39.1037 43.056 37.8726 43.4344 36.839 44.1519L32.376 47.2056C31.71 47.6796 30.9224 47.9536 30.106 47.9954C29.2895 48.0371 28.4781 47.8449 27.7672 47.4412L26.5401 46.7743C26.416 46.7068 26.3094 46.6113 26.2288 46.4953C26.1482 46.3793 26.0958 46.2461 26.0758 46.1063C26.0559 45.9665 26.0688 45.8239 26.1137 45.69C26.1586 45.5561 26.2342 45.4345 26.3344 45.335L32.1153 39.5943ZM11.4272 52.6894L2.86563 47.1883L14.5698 28.9719L23.1315 34.473L11.4272 52.6894ZM23.4079 38.4942L27.4553 40.831L24.6389 43.6282C24.2726 43.992 23.9964 44.4363 23.8323 44.9258C23.6682 45.4153 23.6208 45.9363 23.6938 46.4474C23.7669 46.9584 23.9584 47.4453 24.253 47.8692C24.5477 48.2931 24.9373 48.6423 25.3908 48.8889L26.6179 49.5559C27.7187 50.1695 28.97 50.4608 30.2286 50.3964C31.4873 50.3321 32.7023 49.9146 33.7348 49.1919L38.198 46.1382C38.823 45.6962 39.5715 45.4626 40.337 45.4707C41.1024 45.4788 41.8459 45.7282 42.4614 46.1834L54.6311 54.8886C55.0024 55.1573 55.2522 55.562 55.326 56.0143C55.3998 56.4666 55.2916 56.9297 55.0251 57.3025C54.7586 57.6753 54.3553 57.9275 53.9035 58.004C53.4516 58.0805 52.9879 57.975 52.6135 57.7107H52.6121L43.7436 51.3693C43.6151 51.2763 43.4696 51.2097 43.3153 51.1732C43.161 51.1367 43.001 51.1311 42.8445 51.1566C42.688 51.1822 42.5381 51.2384 42.4034 51.3221C42.2687 51.4058 42.1519 51.5152 42.0596 51.6442C41.9674 51.7732 41.9016 51.9192 41.866 52.0737C41.8303 52.2282 41.8256 52.3882 41.852 52.5446C41.8785 52.7009 41.9355 52.8505 42.02 52.9847C42.1044 53.1189 42.2146 53.2351 42.3441 53.3266L51.214 59.6689C51.5882 59.9365 51.8408 60.3418 51.9162 60.7956C51.9916 61.2495 51.8836 61.7147 51.616 62.0889C51.3484 62.4631 50.9431 62.7157 50.4893 62.7911C50.0355 62.8665 49.5703 62.7586 49.196 62.491L42.5115 57.7113C42.3831 57.6172 42.2373 57.5495 42.0826 57.5122C41.9278 57.4749 41.7672 57.4686 41.6101 57.4938C41.4529 57.519 41.3023 57.5751 41.167 57.6589C41.0317 57.7427 40.9143 57.8525 40.8217 57.9819C40.7291 58.1114 40.6632 58.258 40.6276 58.4131C40.5921 58.5683 40.5877 58.7289 40.6147 58.8858C40.6417 59.0426 40.6995 59.1926 40.7849 59.3269C40.8702 59.4613 40.9814 59.5774 41.1119 59.6684L47.7968 64.4486C47.9899 64.5778 48.1551 64.7445 48.2826 64.9389C48.4101 65.1332 48.4972 65.3511 48.5388 65.5797C48.5804 65.8084 48.5757 66.043 48.5248 66.2698C48.474 66.4966 48.3781 66.7108 48.2428 66.8998C48.1076 67.0888 47.9358 67.2486 47.7375 67.3699C47.5393 67.4912 47.3187 67.5714 47.0889 67.6058C46.8591 67.6402 46.6247 67.6281 46.3996 67.5701C46.1746 67.5121 45.9635 67.4096 45.7788 67.2684H45.7778L41.3198 64.0802C41.1913 63.9872 41.0457 63.9206 40.8914 63.8841C40.7371 63.8476 40.5771 63.8419 40.4206 63.8675C40.2641 63.893 40.1142 63.9493 39.9795 64.0329C39.8448 64.1166 39.728 64.2261 39.6358 64.3551C39.5436 64.4841 39.4777 64.63 39.4421 64.7845C39.4065 64.9391 39.4018 65.0991 39.4282 65.2554C39.4546 65.4118 39.5117 65.5614 39.5961 65.6956C39.6806 65.8298 39.7907 65.946 39.9202 66.0375L44.3793 69.2258C44.7525 69.4938 45.0041 69.8989 45.0789 70.3522C45.1537 70.8055 45.0457 71.2699 44.7784 71.6437C44.5112 72.0174 44.1066 72.2698 43.6535 72.3455C43.2003 72.4213 42.7356 72.3142 42.3614 72.0477L37.9817 68.9161C37.9503 68.8935 37.9181 68.8733 37.8853 68.8543C37.7034 68.1535 37.3404 67.5129 36.8327 66.9968C36.325 66.4806 35.6905 66.1071 34.9928 65.9137C35.2219 65.3787 35.3356 64.8013 35.3263 64.2193C35.3171 63.6374 35.1852 63.0639 34.9392 62.5364C34.6932 62.0089 34.3387 61.5392 33.8989 61.158C33.459 60.7768 32.9437 60.4927 32.3866 60.3243C32.8124 59.4667 32.9278 58.4881 32.7131 57.555C32.4984 56.6219 31.9669 55.7921 31.2091 55.2069C30.4513 54.6217 29.5141 54.3172 28.557 54.3454C27.6 54.3736 26.6823 54.7326 25.9602 55.3614C25.7208 54.7085 25.321 54.1263 24.7975 53.6684C24.274 53.2106 23.6437 52.8919 22.9647 52.7417C22.2857 52.5914 21.5798 52.6145 20.912 52.8087C20.2443 53.003 19.6361 53.3621 19.1436 53.8531L18.0555 54.9412L14.8803 51.7665L23.4079 38.4942ZM13.485 22.8521C13.4472 23.0276 13.4491 23.2093 13.4907 23.3839C13.5322 23.5586 13.6123 23.7217 13.7251 23.8614C13.8379 24.001 13.9805 24.1137 14.1425 24.1911C14.3045 24.2684 14.4817 24.3086 14.6612 24.3086H62.3387C62.5182 24.3086 62.6954 24.2684 62.8573 24.191C63.0193 24.1136 63.1619 24.001 63.2747 23.8613C63.3874 23.7216 63.4675 23.5585 63.509 23.3839C63.5506 23.2093 63.5525 23.0275 63.5147 22.8521C62.929 20.1485 61.4353 17.7269 59.2821 15.9901C57.1289 14.2533 54.4461 13.3061 51.6797 13.3059C49.3423 13.3007 47.0541 13.9775 45.0956 15.2534C43.1304 13.9823 40.8398 13.306 38.4994 13.3059C36.1589 13.3057 33.8683 13.9817 31.9029 15.2525C30.2584 14.1873 28.38 13.537 26.4288 13.3575C24.4777 13.178 22.5121 13.4747 20.7009 14.222C18.8897 14.9694 17.2868 16.1451 16.03 17.6482C14.7731 19.1514 13.8998 20.9371 13.485 22.8521ZM60.7248 21.9023H50.0884C49.5174 20.0027 48.4866 18.2733 47.0872 16.8674C48.4983 16.106 50.0771 15.7089 51.6805 15.7121C53.6344 15.7201 55.5411 16.3143 57.1535 17.4179C58.766 18.5216 60.0101 20.0838 60.7248 21.9023ZM47.5468 21.9023H29.4523C30.161 20.0791 31.404 18.5125 33.0184 17.4079C34.6329 16.3033 36.5434 15.7122 38.4996 15.7122C40.4557 15.7122 42.3662 16.3033 43.9807 17.4079C45.5951 18.5125 46.8382 20.0791 47.5468 21.9023ZM25.3202 15.7121C26.9226 15.7102 28.5003 16.107 29.9111 16.8667C28.5125 18.2731 27.4824 20.0027 26.9119 21.9023H16.2751C16.9898 20.0836 18.234 18.5214 19.8467 17.4177C21.4593 16.3141 23.3661 15.7199 25.3202 15.7121ZM30.7858 6.63123C30.7858 5.55023 30.4653 4.4935 29.8647 3.59468C29.2641 2.69586 28.4105 1.99532 27.4118 1.58163C26.4131 1.16795 25.3141 1.05971 24.2539 1.27061C23.1936 1.4815 22.2197 2.00205 21.4554 2.76644C20.691 3.53082 20.1704 4.50471 19.9595 5.56494C19.7486 6.62517 19.8569 7.72413 20.2706 8.72285C20.6842 9.72156 21.3848 10.5752 22.2836 11.1758C23.1824 11.7763 24.2392 12.0969 25.3202 12.0969C26.7692 12.0952 28.1585 11.5188 29.1831 10.4942C30.2078 9.46954 30.7841 8.0803 30.7858 6.63123ZM22.2608 6.63123C22.2608 6.02614 22.4402 5.43464 22.7764 4.93152C23.1125 4.42841 23.5903 4.03628 24.1494 3.80472C24.7084 3.57316 25.3236 3.51257 25.917 3.63062C26.5105 3.74867 27.0556 4.04005 27.4835 4.46791C27.9113 4.89578 28.2027 5.44091 28.3208 6.03437C28.4388 6.62784 28.3782 7.24298 28.1467 7.80201C27.9151 8.36104 27.523 8.83886 27.0199 9.17503C26.5168 9.5112 25.9252 9.69063 25.3202 9.69063C24.509 9.68971 23.7314 9.36709 23.1578 8.79354C22.5843 8.21999 22.2617 7.44235 22.2608 6.63123ZM57.1455 6.63123C57.1455 5.55019 56.825 4.49342 56.2244 3.59456C55.6239 2.69569 54.7702 1.9951 53.7715 1.58139C52.7728 1.16767 51.6738 1.05941 50.6135 1.27029C49.5532 1.48117 48.5793 2.00173 47.8149 2.76613C47.0505 3.53053 46.5299 4.50444 46.319 5.5647C46.1081 6.62497 46.2163 7.72396 46.63 8.72272C47.0437 9.72147 47.7442 10.5751 48.6431 11.1757C49.5419 11.7763 50.5987 12.0969 51.6797 12.0969C53.1288 12.0952 54.5181 11.5189 55.5428 10.4942C56.5675 9.46959 57.1438 8.08033 57.1455 6.63123ZM48.6203 6.63123C48.6203 6.0261 48.7997 5.43455 49.1359 4.93138C49.4721 4.42822 49.9499 4.03605 50.509 3.80446C51.068 3.57287 51.6832 3.51227 52.2767 3.63032C52.8702 3.74837 53.4154 4.03976 53.8433 4.46766C54.2712 4.89555 54.5626 5.44072 54.6806 6.03423C54.7987 6.62774 54.7381 7.24292 54.5065 7.80199C54.2749 8.36105 53.8827 8.83889 53.3796 9.17507C52.8764 9.51124 52.2849 9.69066 51.6797 9.69063C50.8686 9.68971 50.091 9.36709 49.5174 8.79354C48.9439 8.21999 48.6212 7.44235 48.6203 6.63123ZM43.9656 6.63123C43.9656 5.55023 43.645 4.4935 43.0445 3.59468C42.4439 2.69586 41.5903 1.99532 40.5916 1.58163C39.5928 1.16795 38.4939 1.05971 37.4336 1.27061C36.3734 1.4815 35.3995 2.00205 34.6351 2.76644C33.8708 3.53082 33.3502 4.50471 33.1393 5.56494C32.9284 6.62517 33.0367 7.72413 33.4503 8.72285C33.864 9.72156 34.5646 10.5752 35.4634 11.1758C36.3622 11.7763 37.4189 12.0969 38.4999 12.0969C39.949 12.0952 41.3383 11.5189 42.3629 10.4942C43.3876 9.46957 43.964 8.08031 43.9656 6.63123ZM35.4405 6.63123C35.4405 6.02614 35.62 5.43464 35.9561 4.93152C36.2923 4.42841 36.7701 4.03628 37.3292 3.80472C37.8882 3.57316 38.5033 3.51257 39.0968 3.63062C39.6903 3.74867 40.2354 4.04005 40.6633 4.46791C41.0911 4.89578 41.3825 5.44091 41.5006 6.03437C41.6186 6.62784 41.558 7.24298 41.3265 7.80201C41.0949 8.36104 40.7028 8.83886 40.1996 9.17503C39.6965 9.5112 39.105 9.69063 38.4999 9.69063C37.6888 9.68971 36.9112 9.36709 36.3376 8.79354C35.7641 8.21999 35.4415 7.44235 35.4405 6.63123Z" fill="#07A0E6"/>
</svg>
