<svg width="38" height="38" viewBox="0 0 38 38" fill="none" xmlns="http://www.w3.org/2000/svg">
<g clip-path="url(#clip0_303_7493)">
<path d="M25.8602 11.2219C26.7698 11.6729 27.5456 12.3541 28.1105 13.1978C28.6753 14.0415 29.0096 15.0184 29.0801 16.0312H27.9068C27.794 16.0313 27.6835 16.0635 27.5883 16.124C27.4931 16.1846 27.4172 16.271 27.3693 16.3732C27.3215 16.4754 27.3037 16.5891 27.3182 16.7009C27.3326 16.8128 27.3786 16.9183 27.4508 17.005L30.4196 20.5675C30.4753 20.6343 30.545 20.6881 30.6238 20.725C30.7026 20.7619 30.7885 20.781 30.8756 20.781C30.9626 20.781 31.0485 20.7619 31.1273 20.725C31.2061 20.6881 31.2758 20.6343 31.3316 20.5675L34.3003 17.005C34.3725 16.9183 34.4185 16.8128 34.433 16.7009C34.4474 16.5891 34.4296 16.4754 34.3818 16.3732C34.3339 16.271 34.258 16.1846 34.1628 16.124C34.0676 16.0635 33.9571 16.0313 33.8443 16.0312H32.6301C32.48 14.4093 31.73 12.9017 30.527 11.8036C29.324 10.7054 27.7544 10.0957 26.1256 10.0938C25.9917 10.0936 25.8617 10.1387 25.7567 10.2218C25.6517 10.3048 25.5778 10.4209 25.5471 10.5512C25.5164 10.6815 25.5306 10.8183 25.5874 10.9395C25.6442 11.0607 25.7403 11.1592 25.8602 11.2189V11.2219ZM31.4693 16.625C31.4693 16.7825 31.5319 16.9335 31.6432 17.0448C31.7546 17.1562 31.9056 17.2187 32.0631 17.2187H32.5767L30.8756 19.2601L29.1745 17.2187H29.6881C29.8455 17.2187 29.9966 17.1562 30.1079 17.0448C30.2193 16.9335 30.2818 16.7825 30.2818 16.625V16.4516C30.2867 14.7849 29.6972 13.1711 28.6193 11.8999C29.479 12.354 30.1987 13.0339 30.7009 13.8665C31.203 14.699 31.4687 15.6527 31.4693 16.625Z" fill="white"/>
<path d="M36.8125 23.1562H21.375C21.2175 23.1562 21.0665 23.2188 20.9552 23.3302C20.8438 23.4415 20.7812 23.5925 20.7812 23.75V36.8125C20.7812 36.97 20.8438 37.121 20.9552 37.2323C21.0665 37.3437 21.2175 37.4062 21.375 37.4062H36.8125C36.97 37.4062 37.121 37.3437 37.2323 37.2323C37.3437 37.121 37.4062 36.97 37.4062 36.8125V23.75C37.4062 23.5925 37.3437 23.4415 37.2323 23.3302C37.121 23.2188 36.97 23.1562 36.8125 23.1562ZM28.2031 24.3438H29.9844V26.0769L29.4643 25.6613C29.359 25.5773 29.2284 25.5315 29.0938 25.5315C28.9591 25.5315 28.8285 25.5773 28.7232 25.6613L28.2031 26.0769V24.3438ZM36.2188 36.2188H21.9688V24.3438H27.0156V27.3125C27.0156 27.4244 27.0472 27.534 27.1067 27.6287C27.1662 27.7234 27.2513 27.7994 27.3522 27.8479C27.453 27.8963 27.5655 27.9153 27.6767 27.9026C27.7878 27.89 27.8931 27.8461 27.9805 27.7762L29.0938 26.885L30.207 27.7756C30.2943 27.8455 30.3996 27.8893 30.5107 27.902C30.6218 27.9147 30.7342 27.8958 30.8351 27.8474C30.9359 27.799 31.021 27.7231 31.0806 27.6285C31.1402 27.5339 31.1718 27.4243 31.1719 27.3125V24.3438H36.2188V36.2188Z" fill="white"/>
<path d="M27.3125 31.4688H23.75C23.5925 31.4688 23.4415 31.5313 23.3302 31.6427C23.2188 31.754 23.1562 31.905 23.1562 32.0625C23.1562 32.22 23.2188 32.371 23.3302 32.4823C23.4415 32.5937 23.5925 32.6562 23.75 32.6562H27.3125C27.47 32.6562 27.621 32.5937 27.7323 32.4823C27.8437 32.371 27.9062 32.22 27.9062 32.0625C27.9062 31.905 27.8437 31.754 27.7323 31.6427C27.621 31.5313 27.47 31.4688 27.3125 31.4688Z" fill="white"/>
<path d="M27.3125 33.8438H23.75C23.5925 33.8438 23.4415 33.9063 23.3302 34.0177C23.2188 34.129 23.1562 34.28 23.1562 34.4375C23.1562 34.595 23.2188 34.746 23.3302 34.8573C23.4415 34.9687 23.5925 35.0312 23.75 35.0312H27.3125C27.47 35.0312 27.621 34.9687 27.7323 34.8573C27.8437 34.746 27.9062 34.595 27.9062 34.4375C27.9062 34.28 27.8437 34.129 27.7323 34.0177C27.621 33.9063 27.47 33.8438 27.3125 33.8438Z" fill="white"/>
<path d="M11.875 0.59375C9.64379 0.59375 7.46267 1.25538 5.60748 2.49498C3.75229 3.73458 2.30634 5.49647 1.45249 7.55785C0.598638 9.61923 0.375232 11.8875 0.810521 14.0759C1.24581 16.2642 2.32025 18.2743 3.89796 19.852C5.47567 21.4298 7.48579 22.5042 9.67414 22.9395C11.8625 23.3748 14.1308 23.1514 16.1922 22.2975C18.2535 21.4437 20.0154 19.9977 21.255 18.1425C22.4946 16.2873 23.1563 14.1062 23.1563 11.875C23.153 8.88404 21.9633 6.01653 19.8484 3.9016C17.7335 1.78667 14.866 0.59705 11.875 0.59375ZM11.875 21.9688C9.87865 21.9688 7.92713 21.3768 6.26722 20.2676C4.60731 19.1585 3.31357 17.5821 2.5496 15.7377C1.78562 13.8933 1.58573 11.8638 1.9752 9.90581C2.36467 7.94781 3.32601 6.14928 4.73765 4.73764C6.14928 3.326 7.94782 2.36467 9.90581 1.9752C11.8638 1.58573 13.8933 1.78562 15.7377 2.54959C17.5821 3.31356 19.1585 4.6073 20.2677 6.26721C21.3768 7.92712 21.9688 9.87864 21.9688 11.875C21.9658 14.5511 20.9014 17.1168 19.0091 19.0091C17.1168 20.9014 14.5511 21.9658 11.875 21.9688Z" fill="white"/>
<path d="M11.875 2.96875C10.1135 2.96875 8.39158 3.49109 6.92696 4.46972C5.46233 5.44836 4.32079 6.83932 3.6467 8.46673C2.97261 10.0941 2.79624 11.8849 3.13989 13.6125C3.48353 15.3402 4.33177 16.9271 5.57733 18.1727C6.8229 19.4182 8.40984 20.2665 10.1375 20.6101C11.8651 20.9538 13.6559 20.7774 15.2833 20.1033C16.9107 19.4292 18.3016 18.2877 19.2803 16.823C20.2589 15.3584 20.7813 13.6365 20.7813 11.875C20.7786 9.51374 19.8394 7.24995 18.1697 5.58028C16.5001 3.91061 14.2363 2.97142 11.875 2.96875ZM11.875 19.5938C10.3484 19.5938 8.85604 19.1411 7.5867 18.2929C6.31735 17.4448 5.32802 16.2393 4.74381 14.8288C4.15959 13.4184 4.00674 11.8664 4.30457 10.3691C4.6024 8.87186 5.33754 7.49651 6.41702 6.41702C7.49651 5.33753 8.87186 4.60239 10.3691 4.30456C11.8664 4.00673 13.4184 4.15959 14.8288 4.7438C16.2393 5.32802 17.4448 6.31735 18.2929 7.58669C19.1411 8.85603 19.5938 10.3484 19.5938 11.875C19.5914 13.9214 18.7774 15.8833 17.3304 17.3304C15.8833 18.7774 13.9214 19.5914 11.875 19.5938Z" fill="white"/>
<path d="M13.0625 6.53125H12.4688V5.9375C12.4688 5.78003 12.4062 5.62901 12.2948 5.51766C12.1835 5.40631 12.0325 5.34375 11.875 5.34375C11.7175 5.34375 11.5665 5.40631 11.4552 5.51766C11.3438 5.62901 11.2812 5.78003 11.2812 5.9375V6.53125H10.6875C10.2151 6.53125 9.76201 6.71892 9.42797 7.05297C9.09392 7.38702 8.90625 7.84008 8.90625 8.3125V10.6875C8.90625 11.1599 9.09392 11.613 9.42797 11.947C9.76201 12.2811 10.2151 12.4688 10.6875 12.4688H11.2812V16.0312H10.6875C10.53 16.0312 10.379 15.9687 10.2677 15.8573C10.1563 15.746 10.0938 15.595 10.0938 15.4375V14.25C10.0938 14.0925 10.0312 13.9415 9.91985 13.8302C9.8085 13.7188 9.65747 13.6562 9.5 13.6562C9.34253 13.6562 9.19151 13.7188 9.08016 13.8302C8.96881 13.9415 8.90625 14.0925 8.90625 14.25V15.4375C8.90625 15.9099 9.09392 16.363 9.42797 16.697C9.76201 17.0311 10.2151 17.2188 10.6875 17.2188H11.2812V17.8125C11.2812 17.97 11.3438 18.121 11.4552 18.2323C11.5665 18.3437 11.7175 18.4062 11.875 18.4062C12.0325 18.4062 12.1835 18.3437 12.2948 18.2323C12.4062 18.121 12.4688 17.97 12.4688 17.8125V17.2188H13.0625C13.5349 17.2188 13.988 17.0311 14.322 16.697C14.6561 16.363 14.8438 15.9099 14.8438 15.4375V13.0625C14.8438 12.5901 14.6561 12.137 14.322 11.803C13.988 11.4689 13.5349 11.2812 13.0625 11.2812H12.4688V7.71875H13.0625C13.22 7.71875 13.371 7.78131 13.4823 7.89266C13.5937 8.00401 13.6562 8.15503 13.6562 8.3125V9.5C13.6562 9.65747 13.7188 9.8085 13.8302 9.91985C13.9415 10.0312 14.0925 10.0938 14.25 10.0938C14.4075 10.0938 14.5585 10.0312 14.6698 9.91985C14.7812 9.8085 14.8438 9.65747 14.8438 9.5V8.3125C14.8438 7.84008 14.6561 7.38702 14.322 7.05297C13.988 6.71892 13.5349 6.53125 13.0625 6.53125ZM11.2812 11.2812H10.6875C10.53 11.2812 10.379 11.2187 10.2677 11.1073C10.1563 10.996 10.0938 10.845 10.0938 10.6875V8.3125C10.0938 8.15503 10.1563 8.00401 10.2677 7.89266C10.379 7.78131 10.53 7.71875 10.6875 7.71875H11.2812V11.2812ZM13.0625 12.4688C13.22 12.4688 13.371 12.5313 13.4823 12.6427C13.5937 12.754 13.6562 12.905 13.6562 13.0625V15.4375C13.6562 15.595 13.5937 15.746 13.4823 15.8573C13.371 15.9687 13.22 16.0312 13.0625 16.0312H12.4688V12.4688H13.0625Z" fill="white"/>
<path d="M16.8902 35.0936C15.9799 34.6427 15.2036 33.9611 14.6386 33.1167C14.0737 32.2724 13.7398 31.2948 13.6703 30.2813H14.8435C14.9564 30.2813 15.067 30.2492 15.1622 30.1887C15.2575 30.1282 15.3336 30.0418 15.3815 29.9396C15.4294 29.8374 15.4472 29.7237 15.4328 29.6117C15.4184 29.4998 15.3724 29.3943 15.3001 29.3075L12.3314 25.745C12.2756 25.6781 12.2059 25.6243 12.127 25.5873C12.0482 25.5503 11.9622 25.5312 11.8751 25.5312C11.788 25.5312 11.702 25.5503 11.6231 25.5873C11.5443 25.6243 11.4745 25.6781 11.4188 25.745L8.45003 29.3075C8.37782 29.3942 8.33181 29.4997 8.31738 29.6116C8.30295 29.7235 8.32069 29.8372 8.36854 29.9393C8.41639 30.0415 8.49235 30.1279 8.58754 30.1885C8.68273 30.249 8.79321 30.2812 8.90603 30.2813H10.1197C10.2699 31.9033 11.02 33.4109 12.2231 34.509C13.4262 35.6072 14.9958 36.2168 16.6248 36.2188C16.7597 36.2203 16.8912 36.1758 16.9975 36.0926C17.1038 36.0094 17.1785 35.8924 17.2094 35.761C17.2403 35.6297 17.2256 35.4917 17.1675 35.3698C17.1095 35.2479 17.0117 35.1495 16.8902 35.0907V35.0936ZM11.281 29.6875C11.281 29.5301 11.2185 29.379 11.1071 29.2677C10.9958 29.1563 10.8448 29.0938 10.6873 29.0938H10.1731L11.8748 27.0525L13.5759 29.0938H13.0623C12.9048 29.0938 12.7538 29.1563 12.6424 29.2677C12.5311 29.379 12.4685 29.5301 12.4685 29.6875V29.8609C12.4637 31.5276 13.0531 33.1414 14.131 34.4126C13.2713 33.9585 12.5517 33.2786 12.0496 32.446C11.5474 31.6135 11.2817 30.6598 11.281 29.6875Z" fill="white"/>
</g>
<defs>
<clipPath id="clip0_303_7493">
<rect width="38" height="38" fill="white"/>
</clipPath>
</defs>
</svg>
