<svg width="29" height="29" viewBox="0 0 29 29" fill="none" xmlns="http://www.w3.org/2000/svg">
<g clip-path="url(#clip0_303_5294)">
<path d="M19.7354 8.56406C20.4296 8.90827 21.0217 9.42815 21.4527 10.072C21.8838 10.7159 22.1389 11.4614 22.1927 12.2344H21.2973C21.2112 12.2344 21.1269 12.259 21.0542 12.3052C20.9816 12.3514 20.9236 12.4174 20.8871 12.4953C20.8506 12.5733 20.8371 12.6601 20.8481 12.7455C20.8591 12.8309 20.8942 12.9113 20.9493 12.9775L23.2149 15.6962C23.2574 15.7472 23.3107 15.7883 23.3708 15.8164C23.4309 15.8446 23.4965 15.8592 23.5629 15.8592C23.6293 15.8592 23.6949 15.8446 23.755 15.8164C23.8152 15.7883 23.8684 15.7472 23.9109 15.6962L26.1765 12.9775C26.2317 12.9113 26.2668 12.8309 26.2778 12.7455C26.2888 12.6601 26.2753 12.5733 26.2387 12.4953C26.2022 12.4174 26.1442 12.3514 26.0716 12.3052C25.999 12.259 25.9146 12.2344 25.8285 12.2344H24.9019C24.7874 10.9966 24.215 9.84606 23.2969 9.00798C22.3788 8.16991 21.181 7.70461 19.9379 7.70313C19.8358 7.70303 19.7366 7.73746 19.6564 7.80083C19.5763 7.8642 19.5199 7.95279 19.4965 8.05222C19.473 8.15165 19.4839 8.25609 19.5272 8.34859C19.5706 8.44109 19.6439 8.51623 19.7354 8.5618V8.56406ZM24.016 12.6875C24.016 12.8077 24.0638 12.9229 24.1488 13.0079C24.2337 13.0929 24.349 13.1406 24.4692 13.1406H24.8611L23.5629 14.6985L22.2647 13.1406H22.6567C22.7769 13.1406 22.8921 13.0929 22.9771 13.0079C23.0621 12.9229 23.1098 12.8077 23.1098 12.6875V12.5552C23.1135 11.2833 22.6637 10.0517 21.841 9.08153C22.4972 9.42806 23.0464 9.94692 23.4296 10.5823C23.8128 11.2177 24.0156 11.9455 24.016 12.6875Z" fill="#07A0E6"/>
<path d="M28.0938 17.6719H16.3125C16.1923 17.6719 16.0771 17.7196 15.9921 17.8046C15.9071 17.8896 15.8594 18.0048 15.8594 18.125V28.0938C15.8594 28.2139 15.9071 28.3292 15.9921 28.4142C16.0771 28.4991 16.1923 28.5469 16.3125 28.5469H28.0938C28.2139 28.5469 28.3292 28.4991 28.4142 28.4142C28.4991 28.3292 28.5469 28.2139 28.5469 28.0938V18.125C28.5469 18.0048 28.4991 17.8896 28.4142 17.8046C28.3292 17.7196 28.2139 17.6719 28.0938 17.6719ZM21.5234 18.5781H22.8828V19.9008L22.4859 19.5836C22.4056 19.5195 22.3059 19.4846 22.2031 19.4846C22.1004 19.4846 22.0007 19.5195 21.9204 19.5836L21.5234 19.9008V18.5781ZM27.6406 27.6406H16.7656V18.5781H20.6172V20.8438C20.6172 20.9291 20.6412 21.0128 20.6867 21.0851C20.7321 21.1574 20.7971 21.2153 20.874 21.2523C20.951 21.2893 21.0368 21.3038 21.1217 21.2941C21.2065 21.2845 21.2869 21.251 21.3535 21.1976L22.2031 20.5175L23.0527 21.1972C23.1194 21.2505 23.1997 21.284 23.2845 21.2937C23.3693 21.3034 23.4551 21.2889 23.532 21.252C23.609 21.215 23.6739 21.1571 23.7194 21.0849C23.7649 21.0127 23.789 20.9291 23.7891 20.8438V18.5781H27.6406V27.6406Z" fill="#07A0E6"/>
<path d="M20.8438 24.0156H18.125C18.0048 24.0156 17.8896 24.0634 17.8046 24.1483C17.7196 24.2333 17.6719 24.3486 17.6719 24.4688C17.6719 24.5889 17.7196 24.7042 17.8046 24.7892C17.8896 24.8741 18.0048 24.9219 18.125 24.9219H20.8438C20.9639 24.9219 21.0792 24.8741 21.1642 24.7892C21.2491 24.7042 21.2969 24.5889 21.2969 24.4688C21.2969 24.3486 21.2491 24.2333 21.1642 24.1483C21.0792 24.0634 20.9639 24.0156 20.8438 24.0156Z" fill="#07A0E6"/>
<path d="M20.8438 25.8281H18.125C18.0048 25.8281 17.8896 25.8759 17.8046 25.9608C17.7196 26.0458 17.6719 26.1611 17.6719 26.2812C17.6719 26.4014 17.7196 26.5167 17.8046 26.6017C17.8896 26.6866 18.0048 26.7344 18.125 26.7344H20.8438C20.9639 26.7344 21.0792 26.6866 21.1642 26.6017C21.2491 26.5167 21.2969 26.4014 21.2969 26.2812C21.2969 26.1611 21.2491 26.0458 21.1642 25.9608C21.0792 25.8759 20.9639 25.8281 20.8438 25.8281Z" fill="#07A0E6"/>
<path d="M9.0625 0.453125C7.35973 0.453125 5.6952 0.958056 4.27939 1.90407C2.86359 2.85008 1.7601 4.19468 1.10848 5.76783C0.456855 7.34099 0.286361 9.07205 0.618556 10.7421C0.95075 12.4122 1.77071 13.9462 2.97476 15.1502C4.1788 16.3543 5.71284 17.1743 7.3829 17.5064C9.05295 17.8386 10.784 17.6681 12.3572 17.0165C13.9303 16.3649 15.2749 15.2614 16.2209 13.8456C17.1669 12.4298 17.6719 10.7653 17.6719 9.0625C17.6694 6.77992 16.7615 4.59156 15.1475 2.97753C13.5334 1.36351 11.3451 0.455644 9.0625 0.453125ZM9.0625 16.7656C7.53897 16.7656 6.04965 16.3138 4.78288 15.4674C3.5161 14.621 2.52878 13.4179 1.94574 12.0104C1.36271 10.6028 1.21017 9.05395 1.50739 7.55969C1.80462 6.06543 2.53827 4.69287 3.61557 3.61557C4.69287 2.53827 6.06544 1.80462 7.5597 1.50739C9.05396 1.21016 10.6028 1.36271 12.0104 1.94574C13.4179 2.52877 14.621 3.5161 15.4674 4.78287C16.3138 6.04965 16.7656 7.53897 16.7656 9.0625C16.7633 11.1048 15.951 13.0628 14.5069 14.5069C13.0628 15.951 11.1048 16.7633 9.0625 16.7656Z" fill="#07A0E6"/>
<path d="M9.0625 2.26562C7.71821 2.26562 6.4041 2.66425 5.28636 3.41111C4.16862 4.15796 3.29745 5.21948 2.78301 6.46145C2.26857 7.70341 2.13397 9.07004 2.39623 10.3885C2.65849 11.707 3.30583 12.9181 4.25639 13.8686C5.20695 14.8192 6.41803 15.4665 7.7365 15.7288C9.05496 15.991 10.4216 15.8564 11.6636 15.342C12.9055 14.8276 13.967 13.9564 14.7139 12.8386C15.4607 11.7209 15.8594 10.4068 15.8594 9.0625C15.8573 7.26048 15.1406 5.53285 13.8664 4.25864C12.5921 2.98442 10.8645 2.26766 9.0625 2.26562ZM9.0625 14.9531C7.89745 14.9531 6.75855 14.6076 5.78985 13.9604C4.82114 13.3131 4.06612 12.3931 3.62028 11.3167C3.17443 10.2404 3.05777 9.05596 3.28506 7.9133C3.51236 6.77063 4.07338 5.72102 4.8972 4.8972C5.72102 4.07338 6.77063 3.51235 7.9133 3.28506C9.05597 3.05777 10.2404 3.17442 11.3167 3.62027C12.3931 4.06612 13.3131 4.82114 13.9604 5.78984C14.6076 6.75855 14.9531 7.89744 14.9531 9.0625C14.9513 10.6242 14.3301 12.1215 13.2258 13.2258C12.1215 14.3301 10.6242 14.9513 9.0625 14.9531Z" fill="#07A0E6"/>
<path d="M9.96875 4.98438H9.51562V4.53125C9.51562 4.41107 9.46789 4.29582 9.38291 4.21084C9.29793 4.12586 9.18268 4.07812 9.0625 4.07812C8.94232 4.07812 8.82707 4.12586 8.74209 4.21084C8.65711 4.29582 8.60938 4.41107 8.60938 4.53125V4.98438H8.15625C7.79572 4.98438 7.44996 5.12759 7.19503 5.38253C6.94009 5.63746 6.79688 5.98322 6.79688 6.34375V8.15625C6.79688 8.51678 6.94009 8.86254 7.19503 9.11747C7.44996 9.37241 7.79572 9.51562 8.15625 9.51562H8.60938V12.2344H8.15625C8.03607 12.2344 7.92082 12.1866 7.83584 12.1017C7.75086 12.0167 7.70312 11.9014 7.70312 11.7812V10.875C7.70312 10.7548 7.65539 10.6396 7.57041 10.5546C7.48543 10.4696 7.37018 10.4219 7.25 10.4219C7.12982 10.4219 7.01457 10.4696 6.92959 10.5546C6.84461 10.6396 6.79688 10.7548 6.79688 10.875V11.7812C6.79688 12.1418 6.94009 12.4875 7.19503 12.7425C7.44996 12.9974 7.79572 13.1406 8.15625 13.1406H8.60938V13.5938C8.60938 13.7139 8.65711 13.8292 8.74209 13.9142C8.82707 13.9991 8.94232 14.0469 9.0625 14.0469C9.18268 14.0469 9.29793 13.9991 9.38291 13.9142C9.46789 13.8292 9.51562 13.7139 9.51562 13.5938V13.1406H9.96875C10.3293 13.1406 10.675 12.9974 10.93 12.7425C11.1849 12.4875 11.3281 12.1418 11.3281 11.7812V9.96875C11.3281 9.60822 11.1849 9.26246 10.93 9.00753C10.675 8.75259 10.3293 8.60938 9.96875 8.60938H9.51562V5.89062H9.96875C10.0889 5.89062 10.2042 5.93836 10.2892 6.02334C10.3741 6.10832 10.4219 6.22357 10.4219 6.34375V7.25C10.4219 7.37018 10.4696 7.48543 10.5546 7.57041C10.6396 7.65539 10.7548 7.70312 10.875 7.70312C10.9952 7.70312 11.1104 7.65539 11.1954 7.57041C11.2804 7.48543 11.3281 7.37018 11.3281 7.25V6.34375C11.3281 5.98322 11.1849 5.63746 10.93 5.38253C10.675 5.12759 10.3293 4.98438 9.96875 4.98438ZM8.60938 8.60938H8.15625C8.03607 8.60938 7.92082 8.56164 7.83584 8.47666C7.75086 8.39168 7.70312 8.27643 7.70312 8.15625V6.34375C7.70312 6.22357 7.75086 6.10832 7.83584 6.02334C7.92082 5.93836 8.03607 5.89062 8.15625 5.89062H8.60938V8.60938ZM9.96875 9.51562C10.0889 9.51562 10.2042 9.56336 10.2892 9.64834C10.3741 9.73332 10.4219 9.84857 10.4219 9.96875V11.7812C10.4219 11.9014 10.3741 12.0167 10.2892 12.1017C10.2042 12.1866 10.0889 12.2344 9.96875 12.2344H9.51562V9.51562H9.96875Z" fill="#07A0E6"/>
<path d="M12.8899 26.7819C12.1952 26.4378 11.6027 25.9176 11.1716 25.2732C10.7404 24.6289 10.4856 23.8828 10.4326 23.1093H11.328C11.4141 23.1094 11.4985 23.0849 11.5712 23.0387C11.6439 22.9925 11.7019 22.9266 11.7385 22.8486C11.7751 22.7706 11.7887 22.6838 11.7777 22.5983C11.7667 22.5129 11.7315 22.4324 11.6764 22.3662L9.41078 19.6474C9.36826 19.5964 9.31502 19.5553 9.25484 19.5271C9.19466 19.4989 9.12902 19.4843 9.06256 19.4843C8.9961 19.4843 8.93045 19.4989 8.87027 19.5271C8.81009 19.5553 8.75685 19.5964 8.71433 19.6474L6.44871 22.3662C6.3936 22.4324 6.35849 22.5128 6.34747 22.5982C6.33646 22.6836 6.35 22.7704 6.38652 22.8484C6.42303 22.9263 6.48101 22.9923 6.55365 23.0385C6.6263 23.0847 6.71061 23.1093 6.79671 23.1093H7.72289C7.83755 24.3472 8.40997 25.4977 9.32815 26.3357C10.2463 27.1738 11.4442 27.6391 12.6873 27.6406C12.7903 27.6417 12.8907 27.6078 12.9718 27.5443C13.0529 27.4808 13.1099 27.3915 13.1335 27.2912C13.1571 27.191 13.1458 27.0857 13.1015 26.9927C13.0572 26.8997 12.9826 26.8245 12.8899 26.7796V26.7819ZM8.60921 22.6562C8.60921 22.536 8.56147 22.4208 8.47649 22.3358C8.39151 22.2508 8.27626 22.2031 8.15608 22.2031H7.76367L9.06233 20.6452L10.3605 22.2031H9.96858C9.8484 22.2031 9.73315 22.2508 9.64817 22.3358C9.56319 22.4208 9.51546 22.536 9.51546 22.6562V22.7885C9.51174 24.0604 9.96158 25.292 10.7842 26.2622C10.1281 25.9156 9.57894 25.3967 9.19571 24.7614C8.81248 24.126 8.60971 23.3982 8.60921 22.6562Z" fill="#07A0E6"/>
</g>
<defs>
<clipPath id="clip0_303_5294">
<rect width="29" height="29" fill="white"/>
</clipPath>
</defs>
</svg>
