<svg width="153" height="27" viewBox="0 0 153 27" fill="none" xmlns="http://www.w3.org/2000/svg">
<path d="M7.49609 6.7085L9.60791 8.82031L7.49609 10.9321L5.38428 8.82031L7.49609 6.7085ZM7.65479 20.1606C8.85921 20.1606 9.80729 19.9653 10.499 19.5747C11.1908 19.1841 11.679 18.6592 11.9639 18C12.2568 17.3408 12.4033 16.6043 12.4033 15.7905C12.4033 14.8953 12.265 13.9798 11.9883 13.0439C11.7116 12.1081 11.4105 11.2414 11.085 10.4438L14.1123 9.29639C14.568 10.4845 14.8895 11.5913 15.0767 12.6167C15.272 13.634 15.3696 14.6593 15.3696 15.6929C15.3696 17.2635 15.0807 18.6226 14.5029 19.77C13.9251 20.9256 13.0625 21.8167 11.915 22.4434C10.7757 23.0781 9.35563 23.3955 7.65479 23.3955C5.89697 23.3955 4.45654 23.0618 3.3335 22.3945C2.21859 21.7354 1.39258 20.8361 0.855469 19.6968C0.326497 18.5575 0.0620117 17.2798 0.0620117 15.8638C0.0620117 14.9116 0.163737 13.931 0.367188 12.9219C0.578776 11.9046 0.875814 10.8996 1.2583 9.90674L4.0293 10.981C3.74447 11.811 3.50439 12.637 3.30908 13.459C3.11377 14.2728 3.01611 15.0378 3.01611 15.7539C3.01611 16.5596 3.15446 17.2961 3.43115 17.9634C3.71598 18.6307 4.19613 19.1637 4.87158 19.5625C5.54704 19.9613 6.47477 20.1606 7.65479 20.1606ZM18.0918 0.824707H21.1802V12.2017C21.1802 13.1213 21.3185 13.7723 21.5952 14.1548C21.8719 14.5291 22.4131 14.7163 23.2188 14.7163H23.5117V18H23.2188C21.4528 18 20.1548 17.5402 19.3247 16.6206C18.5028 15.701 18.0918 14.3053 18.0918 12.4336V0.824707ZM27.186 6.61084C27.8127 7.00146 28.3823 7.36768 28.895 7.70947C29.4077 8.05127 29.8675 8.389 30.2744 8.72266C30.6895 9.04818 31.0597 9.3859 31.3853 9.73584C31.7108 10.0858 31.9997 10.4601 32.252 10.8589C32.5042 11.2576 32.728 11.7012 32.9233 12.1895C33.1756 12.7998 33.4198 13.2922 33.6558 13.6665C33.8918 14.0327 34.1888 14.3013 34.5469 14.4722C34.9049 14.6349 35.377 14.7163 35.9629 14.7163H36.3047V18H35.9629C35.0026 18 34.1888 17.8494 33.5215 17.5483C32.8623 17.2472 32.2967 16.7508 31.8247 16.0591C31.4259 16.5311 30.9784 16.9095 30.4819 17.1943C29.9937 17.4792 29.3955 17.6867 28.6875 17.8169C27.9795 17.939 27.0924 18 26.0264 18H23.0723V14.7163H26.0142C26.9175 14.7163 27.6621 14.6756 28.248 14.5942C28.8421 14.5047 29.2856 14.3501 29.5786 14.1304C29.8716 13.9106 30.0181 13.5933 30.0181 13.1782C30.0181 12.9259 29.8879 12.6493 29.6274 12.3481C29.367 12.047 29.0252 11.7337 28.6021 11.4082C28.1789 11.0827 27.715 10.7572 27.2104 10.4316C26.714 10.1061 26.2176 9.78467 25.7212 9.46729C25.2329 9.1499 24.7935 8.8488 24.4028 8.56396C24.0854 8.31169 23.8372 8.00244 23.6582 7.63623C23.4873 7.26188 23.4019 6.87126 23.4019 6.46436C23.4019 6.01676 23.5076 5.60579 23.7192 5.23145C23.939 4.8571 24.2604 4.58447 24.6836 4.41357L33.9854 0.617188V3.85205L27.186 6.61084ZM35.792 14.7163H36.7686V18H35.792V14.7163ZM40.2354 19.6357L42.2495 21.6377L40.2354 23.6641L38.2212 21.6377L40.2354 19.6357ZM36.1094 19.6357L38.1479 21.6377L36.1094 23.6641L34.1196 21.6377L36.1094 19.6357ZM37.8428 18H36.4878V14.7163H37.8184C38.6077 14.7163 39.1855 14.5739 39.5518 14.2891C39.9261 13.9961 40.1133 13.4631 40.1133 12.6899C40.1133 12.2424 40.0645 11.6605 39.9668 10.9443C39.8773 10.2282 39.7186 9.43066 39.4907 8.55176L42.4448 7.7583C42.6483 8.55583 42.7988 9.34115 42.8965 10.1143C43.0023 10.8792 43.0552 11.6117 43.0552 12.3115C43.0552 13.4508 42.8924 14.4478 42.5669 15.3022C42.2414 16.1486 41.7002 16.8118 40.9434 17.292C40.1865 17.764 39.153 18 37.8428 18ZM55.6528 4.09619L57.7646 6.20801L55.6528 8.31982L53.541 6.20801L55.6528 4.09619ZM50.9775 24.6406L49.8301 21.6377C51.0345 21.3691 52.0558 21.0111 52.894 20.5635C53.7404 20.124 54.3833 19.5422 54.8228 18.8179C55.2622 18.0936 55.4819 17.1903 55.4819 16.1079C55.4819 15.3755 55.3721 14.5617 55.1523 13.6665C54.9408 12.7713 54.7007 11.929 54.4321 11.1396L57.4717 10.1387C57.7891 11.0176 58.0291 11.9494 58.1919 12.9341C58.3547 13.9188 58.436 14.8628 58.436 15.7661C58.436 17.41 58.1349 18.8382 57.5327 20.0508C56.9305 21.2715 56.0719 22.2643 54.957 23.0293C53.8421 23.7943 52.5156 24.3314 50.9775 24.6406ZM64.2344 0.824707V17.9878H61.1338V0.824707H64.2344ZM70.1426 14.7651C70.8913 14.7651 71.5911 14.7082 72.2422 14.5942C72.8932 14.4803 73.4181 14.285 73.8169 14.0083C74.2157 13.7235 74.415 13.3288 74.415 12.8242C74.415 12.3115 74.1831 11.7703 73.7192 11.2007C73.2554 10.631 72.6247 10.0614 71.8271 9.4917C71.0296 8.9139 70.1304 8.38086 69.1294 7.89258L70.5332 4.96289C71.4365 5.41048 72.2951 5.89876 73.1089 6.42773C73.9227 6.95671 74.647 7.53857 75.2817 8.17334C75.9165 8.80811 76.417 9.50391 76.7832 10.2607C77.1494 11.0094 77.3325 11.8273 77.3325 12.7144C77.3325 13.9595 77.0477 14.9686 76.478 15.7417C75.9165 16.5148 75.1108 17.0804 74.061 17.4385C73.0194 17.7965 71.7743 17.9756 70.3257 17.9756C69.6991 17.9756 69.109 17.9552 68.5557 17.9146C68.0104 17.8657 67.4774 17.7843 66.9565 17.6704V14.3989C67.4855 14.5047 68.0389 14.5942 68.6167 14.6675C69.2026 14.7326 69.7113 14.7651 70.1426 14.7651ZM86.1582 18C85.7676 18 85.4054 17.9552 85.0718 17.8657C84.7381 17.7762 84.4614 17.6623 84.2417 17.5239C84.0464 18.7365 83.6436 19.827 83.0332 20.7954C82.4229 21.7638 81.605 22.5736 80.5796 23.2246C79.5623 23.8838 78.3376 24.3558 76.9053 24.6406L75.7822 21.6377C76.9867 21.3691 78.008 21.0111 78.8462 20.5635C79.6925 20.124 80.3354 19.5422 80.7749 18.8179C81.2144 18.0936 81.4341 17.1903 81.4341 16.1079C81.4341 15.3755 81.3242 14.5617 81.1045 13.6665C80.8929 12.7713 80.6528 11.929 80.3843 11.1396L83.4116 10.1387L84.1196 12.8608C84.2661 13.4224 84.4818 13.874 84.7666 14.2158C85.0596 14.5495 85.4787 14.7163 86.0239 14.7163H86.4878V18H86.1582ZM86.0117 14.7163H87.8062V18H86.0117V14.7163ZM88.8926 18H87.5376V14.7163H88.8682C89.6576 14.7163 90.2354 14.5739 90.6016 14.2891C90.9759 13.9961 91.1631 13.4631 91.1631 12.6899C91.1631 12.2424 91.1143 11.6605 91.0166 10.9443C90.9271 10.2282 90.7684 9.43066 90.5405 8.55176L93.4946 7.7583C93.6981 8.55583 93.8486 9.34115 93.9463 10.1143C94.0521 10.8792 94.105 11.6117 94.105 12.3115C94.105 13.4508 93.9422 14.4478 93.6167 15.3022C93.2912 16.1486 92.75 16.8118 91.9932 17.292C91.2363 17.764 90.2028 18 88.8926 18ZM89.1733 22.3823L91.0776 24.2866L89.1733 26.1909L87.269 24.2866L89.1733 22.3823ZM91.2974 19.2695L93.2017 21.1738L91.2974 23.0781L89.3931 21.1738L91.2974 19.2695ZM87.0493 19.2695L88.9536 21.1738L87.0493 23.0781L85.145 21.1738L87.0493 19.2695ZM122.511 0.714844L124.415 2.61914L122.511 4.52344L120.606 2.61914L122.511 0.714844ZM124.635 3.82764L126.539 5.73193L124.635 7.63623L122.73 5.73193L124.635 3.82764ZM120.387 3.82764L122.291 5.73193L120.387 7.63623L118.482 5.73193L120.387 3.82764ZM119.789 18C119.382 18 119.015 17.939 118.69 17.8169C118.373 17.6948 118.084 17.5524 117.823 17.3896C117.701 18.7894 117.327 20.002 116.7 21.0273C116.082 22.0609 115.219 22.8584 114.112 23.4199C113.014 23.9896 111.675 24.2744 110.096 24.2744C108.338 24.2744 106.898 23.9408 105.775 23.2734C104.66 22.6143 103.834 21.715 103.297 20.5757C102.768 19.4445 102.503 18.1668 102.503 16.7427C102.503 15.7905 102.605 14.8099 102.809 13.8008C103.02 12.7835 103.317 11.7785 103.7 10.7856L106.471 11.8599C106.186 12.6981 105.946 13.5282 105.75 14.3501C105.555 15.1639 105.458 15.9289 105.458 16.645C105.458 17.4425 105.596 18.175 105.873 18.8423C106.157 19.5096 106.638 20.0426 107.313 20.4414C107.988 20.8402 108.916 21.0396 110.096 21.0396C111.301 21.0396 112.249 20.8442 112.94 20.4536C113.632 20.063 114.12 19.5381 114.405 18.8789C114.698 18.2197 114.845 17.4832 114.845 16.6694C114.845 15.7743 114.706 14.8628 114.43 13.9351C114.153 12.9992 113.852 12.1284 113.526 11.3228L116.554 10.1753L117.372 12.6533C117.559 13.2555 117.844 13.752 118.226 14.1426C118.609 14.5251 119.138 14.7163 119.813 14.7163C120.521 14.7163 121.026 14.5007 121.327 14.0693C121.636 13.638 121.791 13.0521 121.791 12.3115C121.791 12.1813 121.782 11.9941 121.766 11.75C121.75 11.4977 121.729 11.217 121.705 10.9077C121.681 10.5903 121.656 10.277 121.632 9.96777L124.5 9.61377L124.757 12.6289C124.781 12.9788 124.85 13.3166 124.964 13.6421C125.078 13.9595 125.249 14.2199 125.477 14.4233C125.713 14.6187 126.014 14.7163 126.38 14.7163C126.722 14.7163 126.995 14.6187 127.198 14.4233C127.402 14.2199 127.548 13.9554 127.638 13.6299C127.727 13.2962 127.772 12.9341 127.772 12.5435C127.772 11.9901 127.703 11.3594 127.564 10.6514C127.426 9.93522 127.28 9.2679 127.125 8.64941L130.079 7.86816C130.274 8.59245 130.425 9.3208 130.531 10.0532C130.637 10.7775 130.689 11.5018 130.689 12.2261C130.689 13.2677 130.555 14.228 130.287 15.1069C130.018 15.9777 129.575 16.6776 128.956 17.2065C128.338 17.7274 127.491 17.9919 126.417 18C125.668 18 125.038 17.8494 124.525 17.5483C124.012 17.2391 123.589 16.8485 123.255 16.3765C122.832 16.8647 122.324 17.2594 121.729 17.5605C121.135 17.8535 120.488 18 119.789 18ZM134.95 4.09619L137.062 6.20801L134.95 8.31982L132.838 6.20801L134.95 4.09619ZM130.274 24.6406L129.127 21.6377C130.331 21.3691 131.353 21.0111 132.191 20.5635C133.037 20.124 133.68 19.5422 134.12 18.8179C134.559 18.0936 134.779 17.1903 134.779 16.1079C134.779 15.3755 134.669 14.5617 134.449 13.6665C134.238 12.7713 133.998 11.929 133.729 11.1396L136.769 10.1387C137.086 11.0176 137.326 11.9494 137.489 12.9341C137.652 13.9188 137.733 14.8628 137.733 15.7661C137.733 17.41 137.432 18.8382 136.83 20.0508C136.227 21.2715 135.369 22.2643 134.254 23.0293C133.139 23.7943 131.812 24.3314 130.274 24.6406ZM138.941 24.6406L137.794 21.6377C138.998 21.3691 140.02 21.0111 140.858 20.5635C141.704 20.124 142.347 19.5422 142.787 18.8179C143.226 18.0936 143.446 17.1903 143.446 16.1079C143.446 15.3755 143.336 14.5617 143.116 13.6665C142.905 12.7713 142.665 11.929 142.396 11.1396L145.436 10.1387C145.753 11.0176 145.993 11.9494 146.156 12.9341C146.319 13.9188 146.4 14.8628 146.4 15.7661C146.4 17.41 146.099 18.8382 145.497 20.0508C144.894 21.2715 144.036 22.2643 142.921 23.0293C141.806 23.7943 140.479 24.3314 138.941 24.6406ZM152.198 0.824707V17.9878H149.098V0.824707H152.198Z" fill="#0141AC"/>
</svg>
