<svg width="47" height="47" viewBox="0 0 47 47" fill="none" xmlns="http://www.w3.org/2000/svg">
<path d="M21.4347 2.67124C21.1868 2.71714 20.4616 2.79058 19.8282 2.84565C18.1392 2.98335 17.4232 3.07515 17.1386 3.19448C16.9917 3.25874 16.7255 3.30464 16.5327 3.30464C16.34 3.30464 16.1564 3.33218 16.1196 3.3689C16.0462 3.44233 15.321 3.64429 14.8253 3.7269C14.6784 3.75444 14.4214 3.83706 14.2562 3.9105C14.1001 3.98394 13.9073 4.03901 13.8247 4.03901C13.7421 4.03901 13.6779 4.07573 13.6779 4.13081C13.6779 4.17671 13.5769 4.22261 13.4575 4.22261C13.329 4.22261 13.2097 4.25933 13.1821 4.30523C13.1546 4.35112 12.9802 4.41538 12.8058 4.44292C12.6314 4.47964 12.4845 4.5439 12.4845 4.5898C12.4845 4.64487 12.4111 4.68159 12.3101 4.68159C12.2183 4.68159 12.0898 4.73667 12.0347 4.81011C11.9796 4.88355 11.796 4.9937 11.64 5.05796C11.4839 5.12222 11.2269 5.28745 11.0708 5.43433C10.9148 5.57202 10.7587 5.69136 10.7128 5.69136C10.6302 5.69136 10.1529 6.1687 10.0611 6.34312C10.0335 6.41655 9.92336 6.59097 9.83156 6.74702C9.63879 7.04077 9.55617 8.16987 9.72141 8.16987C9.7673 8.16987 9.83156 8.28921 9.86828 8.4269C9.89582 8.5646 10.006 8.73901 10.0978 8.81245C10.1988 8.88589 10.2814 8.99605 10.2814 9.0603C10.2814 9.12456 10.3181 9.17964 10.364 9.17964C10.4099 9.17964 10.6027 9.32651 10.7954 9.50093C10.979 9.67534 11.1626 9.82222 11.2085 9.82222C11.2452 9.82222 11.337 9.8773 11.4013 9.93237C11.5573 10.0884 12.5029 10.5566 12.6314 10.5566C12.6956 10.5566 12.7874 10.6208 12.8517 10.6943C12.9159 10.7677 13.0628 10.832 13.1821 10.832C13.3015 10.832 13.4025 10.8687 13.4025 10.9238C13.4025 10.9697 13.5126 11.0156 13.6595 11.0156C13.7972 11.0156 13.99 11.0798 14.0818 11.1533C14.1827 11.2267 14.3755 11.291 14.5132 11.291C14.6509 11.291 14.7886 11.3277 14.8253 11.3736C14.8529 11.4287 15.064 11.4929 15.2843 11.5296C15.5138 11.5572 15.7249 11.6214 15.7525 11.6673C15.78 11.7132 16.0003 11.75 16.2482 11.75C16.496 11.75 16.7163 11.7867 16.753 11.8326C16.7806 11.8876 17.0927 11.9519 17.4415 11.9886C17.7995 12.0253 18.1116 12.0896 18.1392 12.1263C18.1667 12.1722 18.4605 12.2089 18.8001 12.2089C19.1398 12.2181 19.663 12.2732 19.9659 12.3466C20.7554 12.5394 26.2448 12.5394 27.0343 12.3466C27.3372 12.2732 27.8605 12.2181 28.2001 12.2089C28.5398 12.2089 28.8335 12.1722 28.8611 12.1263C28.8886 12.0896 29.2007 12.0253 29.5587 11.9886C29.9075 11.9519 30.2197 11.8876 30.2472 11.8326C30.2839 11.7867 30.5042 11.75 30.7521 11.75C30.9999 11.75 31.2202 11.7132 31.2478 11.6673C31.2753 11.6214 31.4864 11.5572 31.7159 11.5296C31.9363 11.4929 32.1474 11.4287 32.1749 11.3736C32.2116 11.3277 32.3493 11.291 32.487 11.291C32.6247 11.291 32.8175 11.2267 32.9185 11.1533C33.0103 11.0798 33.203 11.0156 33.3499 11.0156C33.4876 11.0156 33.5978 10.9697 33.5978 10.9238C33.5978 10.8687 33.6988 10.832 33.8181 10.832C33.9374 10.832 34.0843 10.7677 34.1486 10.6943C34.2128 10.6208 34.3138 10.5566 34.3872 10.5566C34.4515 10.5566 34.8646 10.3546 35.296 10.1068C36.1405 9.61108 37.0402 8.78491 37.1411 8.40855C37.1687 8.28003 37.2329 8.16987 37.2788 8.16987C37.4441 8.16987 37.3523 7.03159 37.1687 6.74702C37.0769 6.59097 36.9667 6.41655 36.9392 6.34312C36.8474 6.1687 36.37 5.69136 36.2874 5.69136C36.2415 5.69136 36.0855 5.57202 35.9294 5.43433C35.7734 5.28745 35.4888 5.10386 35.3144 5.01206C35.1308 4.92944 34.9564 4.81929 34.9288 4.77339C34.9013 4.71831 34.7911 4.68159 34.6902 4.68159C34.5984 4.68159 34.5157 4.64487 34.5157 4.5898C34.5157 4.5439 34.3689 4.47964 34.1945 4.44292C34.02 4.41538 33.8456 4.35112 33.8181 4.30523C33.7905 4.25933 33.6712 4.22261 33.5427 4.22261C33.4234 4.22261 33.3224 4.17671 33.3224 4.13081C33.3224 4.07573 33.2581 4.03901 33.1755 4.03901C33.0929 4.03901 32.9001 3.98394 32.7441 3.9105C32.5788 3.83706 32.331 3.75444 32.1749 3.7269C31.6792 3.64429 30.954 3.44233 30.8806 3.3689C30.8439 3.33218 30.6511 3.30464 30.4583 3.30464C30.2564 3.30464 30.0085 3.25874 29.8984 3.19448C29.678 3.08433 28.962 2.98335 27.2179 2.85483C26.612 2.79976 25.896 2.71714 25.6206 2.67124C25.0515 2.5519 22.114 2.56108 21.4347 2.67124ZM19.2316 5.78315C19.2591 5.82905 19.4886 5.87495 19.7456 5.87495C19.9935 5.87495 20.1954 5.91167 20.1954 5.95757C20.1954 6.00347 20.2964 6.06772 20.4249 6.09526C20.5534 6.13198 20.6544 6.19624 20.6544 6.24214C20.6544 6.29722 20.737 6.33394 20.838 6.33394C20.939 6.33394 21.0491 6.39819 21.0767 6.47163C21.1134 6.54507 21.1868 6.60933 21.2603 6.60933C21.3337 6.60933 21.3888 6.6644 21.3888 6.73784C21.3888 6.81128 21.4347 6.88472 21.4898 6.90308C21.6091 6.9398 21.7101 7.62827 21.6366 7.91284C21.554 8.22495 20.9023 8.90425 20.682 8.90425C20.5718 8.90425 20.4708 8.96851 20.4341 9.04194C20.4066 9.11538 20.2689 9.17964 20.122 9.17964C19.9843 9.17964 19.8099 9.23472 19.7548 9.2898C19.6722 9.37241 19.2499 9.40913 18.3136 9.40913C17.3773 9.40913 16.955 9.37241 16.8816 9.2898C16.8173 9.23472 16.6521 9.17964 16.5144 9.17964C16.3767 9.17964 16.2206 9.11538 16.1564 9.04194C16.0921 8.96851 15.982 8.90425 15.9085 8.90425C15.6882 8.90425 15.0915 8.27085 14.963 7.90366C14.8712 7.61909 14.8712 7.49058 14.9722 7.19683C15.1099 6.81128 15.2568 6.60933 15.4128 6.60933C15.4679 6.60933 15.5138 6.55425 15.5138 6.48999C15.5138 6.42573 15.7249 6.29722 15.9728 6.19624C16.2298 6.09526 16.4318 5.98511 16.4318 5.94839C16.4318 5.91167 16.5878 5.87495 16.7806 5.86577C16.9642 5.86577 17.2029 5.82905 17.3038 5.78315C17.5609 5.673 19.1673 5.673 19.2316 5.78315Z" fill="#242424"/>
<path d="M17.3595 6.47159C17.1943 6.54502 16.9556 6.60928 16.8454 6.60928C16.4782 6.60928 15.9183 6.96729 15.6429 7.38038C15.5235 7.57315 15.5052 7.66495 15.5878 7.69248C15.6429 7.71084 15.698 7.7751 15.698 7.83018C15.7071 7.97706 16.3773 8.44522 16.5884 8.44522C16.6802 8.44522 16.8362 8.50948 16.928 8.58291C17.1943 8.78487 19.48 8.77569 19.6819 8.58291C19.7554 8.50948 19.8747 8.44522 19.9482 8.44522C20.1226 8.44522 20.655 8.15147 20.655 8.05049C20.655 8.01377 20.7193 7.98623 20.7927 7.98623C20.9763 7.98623 20.9763 7.30694 20.7927 7.1417C20.4714 6.85713 20.3796 6.79288 20.2511 6.79288C20.1776 6.79288 20.0859 6.74698 20.0583 6.70108C20.0308 6.646 19.9023 6.60928 19.7921 6.60928C19.6728 6.60928 19.4249 6.54502 19.2505 6.47159C18.8282 6.29717 17.7726 6.29717 17.3595 6.47159Z" fill="#242424"/>
<path d="M10.5566 16.0644V21.7466L10.2629 22.0496C9.82227 22.4902 9.63867 22.9033 9.63867 23.4265C9.63867 23.8855 9.87734 24.6015 10.0242 24.6015C10.0609 24.6015 10.0977 24.6382 10.0977 24.6933C10.0977 24.8126 10.6209 25.3359 10.7402 25.3359C10.7861 25.3359 10.832 25.3726 10.832 25.4277C10.832 25.4736 10.9789 25.5746 11.1533 25.6572C11.3277 25.7398 11.5113 25.8683 11.5756 25.9417C11.6307 26.0152 11.7316 26.0703 11.7959 26.0703C11.8602 26.0703 11.9611 26.1345 12.0254 26.2079C12.0896 26.2814 12.2182 26.3456 12.31 26.3456C12.4109 26.3456 12.4844 26.3824 12.4844 26.4374C12.4844 26.4833 12.5854 26.5292 12.7047 26.5292C12.824 26.5292 12.9709 26.5935 13.0352 26.6669C13.0994 26.7404 13.2371 26.8046 13.3473 26.8046C13.4574 26.8046 13.5859 26.8413 13.6318 26.8872C13.6869 26.9331 13.9715 27.0341 14.2744 27.1167C14.5773 27.2085 15.0088 27.3371 15.2383 27.4105C15.4678 27.4839 15.7432 27.539 15.8533 27.539C15.9635 27.539 16.0828 27.5757 16.1104 27.6308C16.2113 27.796 16.4316 27.7318 16.4316 27.5298C16.4316 27.4288 16.4959 27.282 16.5693 27.2085C16.6428 27.1259 16.707 26.9423 16.707 26.7954C16.707 26.6486 16.7529 26.5292 16.7988 26.5292C16.8539 26.5292 16.8906 26.4283 16.8906 26.3089C16.8906 26.1896 16.9549 26.0427 17.0283 25.9785C17.1018 25.9142 17.166 25.7673 17.166 25.6572C17.166 25.5378 17.1936 25.4277 17.2395 25.4093C17.3496 25.3634 17.625 24.7851 17.625 24.5923C17.625 24.5005 17.6617 24.4179 17.7168 24.4179C17.7627 24.4179 17.827 24.3169 17.8637 24.1884C17.8912 24.0599 17.9555 23.9589 18.0014 23.9589C18.0473 23.9589 18.084 23.8579 18.084 23.7294C18.084 23.5826 18.1391 23.4999 18.2217 23.4999C18.3043 23.4999 18.3594 23.4173 18.3594 23.2704C18.3594 23.1419 18.3961 23.041 18.442 23.041C18.4879 23.041 18.543 22.9675 18.5797 22.8757C18.6348 22.7105 18.8275 22.38 18.9193 22.3066C18.9561 22.279 19.002 22.1689 19.0387 22.0496C19.0754 21.9394 19.1488 21.8476 19.1947 21.8476C19.2406 21.8476 19.2773 21.7742 19.2773 21.6824C19.2773 21.5997 19.3783 21.4162 19.4977 21.2876C19.617 21.1591 19.7363 20.9663 19.773 20.8654C19.8098 20.7644 19.9107 20.6083 20.0117 20.5165C20.1127 20.4247 20.1953 20.2962 20.1953 20.2228C20.1953 20.1585 20.2596 20.0759 20.333 20.0484C20.4064 20.0117 20.4707 19.9382 20.4707 19.8648C20.4707 19.7913 20.5166 19.7363 20.5625 19.7363C20.6176 19.7363 20.6543 19.6812 20.6543 19.6169C20.6543 19.5619 20.8195 19.3232 21.0215 19.0937C21.2234 18.8642 21.3887 18.6255 21.3887 18.5613C21.3887 18.497 21.4529 18.4236 21.5264 18.396C21.5998 18.3593 21.6641 18.3042 21.6641 18.2583C21.6641 18.1665 21.9119 17.8544 22.1506 17.6341C22.2332 17.5607 22.3066 17.4413 22.3066 17.3679C22.3066 17.3037 22.3709 17.2302 22.4443 17.2027C22.5178 17.166 22.582 17.1109 22.582 17.065C22.582 16.964 23.3898 16.1562 23.4908 16.1562C23.6102 16.1562 23.959 16.4958 23.959 16.606C23.959 16.6611 24.0049 16.707 24.06 16.707C24.1609 16.707 24.418 16.9365 24.418 17.0283C24.418 17.0833 24.473 17.1568 24.8035 17.5515C25.2717 18.0931 25.3359 18.1849 25.3359 18.2583C25.3359 18.3042 25.4002 18.3593 25.4736 18.396C25.5471 18.4236 25.6113 18.497 25.6113 18.5613C25.6113 18.6255 25.7766 18.8642 25.9785 19.0937C26.1805 19.3232 26.3457 19.5619 26.3457 19.6169C26.3457 19.6812 26.3916 19.7363 26.4375 19.7363C26.4926 19.7363 26.5293 19.7822 26.5293 19.8281C26.5293 19.8831 26.5752 19.9749 26.6211 20.0392C26.9883 20.4798 27.2637 20.8837 27.2637 20.9847C27.2637 21.0581 27.3004 21.1132 27.3371 21.1132C27.383 21.1132 27.4932 21.2693 27.5941 21.4529C27.6859 21.6456 27.8236 21.8568 27.8879 21.921C27.943 21.9853 27.998 22.1046 27.998 22.1781C27.998 22.2515 28.0256 22.3066 28.0715 22.3066C28.1357 22.3066 28.301 22.582 28.4203 22.8757C28.4479 22.9675 28.5121 23.041 28.558 23.041C28.6039 23.041 28.6406 23.1419 28.6406 23.2704C28.6406 23.4173 28.6957 23.4999 28.7783 23.4999C28.8609 23.4999 28.916 23.5826 28.916 23.7294C28.916 23.8579 28.9527 23.9589 28.9986 23.9589C29.0445 23.9589 29.1088 24.0599 29.1363 24.1884C29.173 24.3169 29.2373 24.4179 29.2832 24.4179C29.3383 24.4179 29.375 24.5005 29.375 24.5923C29.375 24.7851 29.6504 25.3634 29.7697 25.4093C29.8064 25.4277 29.834 25.5378 29.834 25.6572C29.834 25.7673 29.8982 25.9142 29.9717 25.9785C30.0451 26.0427 30.1094 26.1896 30.1094 26.3089C30.1094 26.4283 30.1553 26.5292 30.2012 26.5292C30.2562 26.5292 30.293 26.6486 30.293 26.7954C30.293 26.9423 30.3572 27.1259 30.4307 27.2085C30.5041 27.282 30.5684 27.4288 30.5684 27.539C30.5684 27.7134 30.6051 27.7318 30.7795 27.6767C30.8896 27.6492 31.165 27.5757 31.3945 27.5206C31.624 27.4747 31.8443 27.3921 31.8994 27.3462C31.9453 27.3003 32.0555 27.2636 32.1564 27.2636C32.3676 27.2636 33.2488 26.9882 33.3682 26.8872C33.4141 26.8413 33.5426 26.8046 33.6527 26.8046C33.7629 26.8046 33.9006 26.7404 33.9648 26.6669C34.0291 26.5935 34.176 26.5292 34.2953 26.5292C34.4146 26.5292 34.5156 26.4833 34.5156 26.4374C34.5156 26.3824 34.5891 26.3456 34.69 26.3456C34.7818 26.3456 34.9104 26.2814 34.9746 26.2079C35.0389 26.1345 35.1307 26.0703 35.1766 26.0703C35.2225 26.0703 35.4795 25.905 35.7549 25.7031C36.0303 25.5011 36.2781 25.3359 36.3057 25.3359C36.3883 25.3359 36.9023 24.7851 36.9023 24.6933C36.9023 24.6382 36.9391 24.6015 36.985 24.6015C37.1227 24.6015 37.3613 23.8304 37.3613 23.3898C37.3613 22.9033 37.1686 22.481 36.7463 22.0496L36.4434 21.7466V16.0644C36.4434 12.9341 36.4158 10.373 36.3791 10.373C36.1771 10.373 35.709 10.6117 35.709 10.7126C35.709 10.7769 35.608 10.832 35.4795 10.832C35.351 10.832 35.25 10.8687 35.25 10.9238C35.25 10.9697 35.1674 11.0156 35.0664 11.0156C34.9654 11.0156 34.8553 11.0798 34.8277 11.1533C34.791 11.2267 34.6717 11.291 34.5523 11.291C34.433 11.291 34.332 11.3277 34.332 11.3828C34.332 11.4287 34.1852 11.4929 34.0107 11.5296C33.8363 11.5572 33.6619 11.6214 33.6344 11.6673C33.6068 11.7132 33.4875 11.7499 33.3682 11.7499C33.2488 11.7499 33.1295 11.7867 33.102 11.8326C33.0652 11.8785 32.8816 11.9427 32.6797 11.9794C32.4777 12.0162 32.2941 12.0804 32.2574 12.1263C32.2299 12.1722 32.0555 12.2089 31.8719 12.2089C31.6883 12.2089 31.4496 12.2732 31.3578 12.3466C31.2568 12.4201 30.9998 12.4843 30.7887 12.4843C30.5684 12.4843 30.3664 12.521 30.3389 12.5761C30.3113 12.622 30.0818 12.6679 29.834 12.6679C29.5861 12.6679 29.274 12.7138 29.1271 12.7781C28.9895 12.8331 28.4846 12.9158 28.0256 12.9617C27.5574 12.9984 26.768 13.0718 26.2814 13.1177C25.7857 13.1636 24.5373 13.2003 23.5 13.2003C22.4627 13.2003 21.2143 13.1636 20.7277 13.1177C20.232 13.0718 19.4426 12.9984 18.9836 12.9617C18.5154 12.9158 18.0105 12.8331 17.8729 12.7781C17.726 12.7138 17.4139 12.6679 17.166 12.6679C16.9182 12.6679 16.6887 12.622 16.6611 12.5761C16.6336 12.521 16.4316 12.4843 16.2113 12.4843C16.0002 12.4843 15.7432 12.4201 15.6422 12.3466C15.5504 12.2732 15.3117 12.2089 15.1281 12.2089C14.9445 12.2089 14.7701 12.1722 14.7426 12.1263C14.715 12.0804 14.5406 12.0162 14.357 11.9794C14.1734 11.9519 13.9531 11.8876 13.8705 11.8417C13.7879 11.805 13.485 11.6949 13.2004 11.6031C12.9066 11.5113 12.668 11.4011 12.668 11.3644C12.668 11.3277 12.567 11.291 12.4477 11.291C12.3283 11.291 12.209 11.2267 12.1723 11.1533C12.1447 11.0798 12.0346 11.0156 11.9336 11.0156C11.8326 11.0156 11.75 10.9697 11.75 10.9238C11.75 10.8687 11.649 10.832 11.5205 10.832C11.392 10.832 11.291 10.7953 11.291 10.7494C11.291 10.6667 10.7861 10.373 10.6301 10.373C10.5934 10.373 10.5566 12.9341 10.5566 16.0644Z" fill="#242424"/>
<path d="M23.1424 17.4872C23.023 17.6616 22.8945 17.8085 22.8486 17.8085C22.8027 17.8085 22.766 17.8728 22.766 17.9462C22.766 18.0196 22.7293 18.0839 22.6742 18.0839C22.6283 18.0839 22.5824 18.1481 22.5824 18.2216C22.5824 18.295 22.5182 18.3593 22.4447 18.3593C22.3713 18.3593 22.307 18.4052 22.307 18.4603C22.307 18.5429 22.1234 18.8183 21.7287 19.3231C21.4533 19.6812 20.9301 20.4981 20.9301 20.5624C20.9301 20.6175 20.875 20.6542 20.8107 20.6542C20.7465 20.6542 20.6272 20.8194 20.5354 21.0214C20.4527 21.2233 20.3518 21.3886 20.315 21.3886C20.2691 21.3886 20.159 21.5538 20.0672 21.7558C19.9662 21.9577 19.8561 22.1229 19.8102 22.1229C19.7734 22.1229 19.7367 22.1872 19.7367 22.279C19.7367 22.3616 19.6357 22.5636 19.5072 22.7288C19.3787 22.894 19.2777 23.0501 19.2777 23.0868C19.2777 23.1144 19.1768 23.2979 19.0482 23.4999C18.9197 23.7019 18.8188 23.9313 18.8188 24.0048C18.8188 24.0874 18.7545 24.17 18.6811 24.1976C18.6076 24.2343 18.5434 24.3536 18.5434 24.4729C18.5434 24.5923 18.5066 24.6933 18.4516 24.6933C18.4057 24.6933 18.3598 24.7759 18.3598 24.8769C18.3598 24.9778 18.2955 25.088 18.2221 25.1155C18.1486 25.1522 18.0844 25.2716 18.0844 25.3909C18.0844 25.5103 18.0477 25.6112 18.0018 25.6112C17.9559 25.6112 17.8916 25.7306 17.8549 25.8866C17.8182 26.0335 17.7539 26.1804 17.708 26.2079C17.6621 26.2446 17.6254 26.3823 17.6254 26.5384C17.6254 26.6853 17.5887 26.8046 17.5336 26.8046C17.4877 26.8046 17.4234 26.9515 17.3867 27.1259C17.3592 27.3003 17.2949 27.4472 17.249 27.4472C17.2031 27.4472 17.1664 27.5573 17.1664 27.7042C17.1664 27.8419 17.1113 28.0347 17.0379 28.1356C16.9186 28.3192 16.8727 28.5304 16.7166 29.6044C16.6707 29.9073 16.5881 30.2745 16.533 30.4122C16.377 30.8069 16.4045 32.7989 16.5697 33.2028C16.6432 33.3772 16.7074 33.6618 16.7074 33.8362C16.7074 34.0015 16.7533 34.1667 16.7992 34.1942C16.8543 34.2218 16.891 34.3687 16.891 34.5247C16.891 34.6716 16.9186 34.7909 16.9645 34.7909C17.0012 34.7909 17.1297 35.0021 17.249 35.2499C17.3684 35.5069 17.5061 35.7089 17.5428 35.7089C17.5887 35.7089 17.6254 35.7915 17.6254 35.8925C17.6254 35.9935 17.6897 36.1036 17.7631 36.1312C17.8365 36.1679 17.9008 36.2229 17.9008 36.278C17.9008 36.4708 19.4063 37.8202 19.6266 37.8202C19.6816 37.8202 19.7367 37.8845 19.7734 37.9579C19.801 38.0313 19.9111 38.0956 20.0121 38.0956C20.1131 38.0956 20.1957 38.1323 20.1957 38.1874C20.1957 38.2333 20.2691 38.2792 20.3701 38.2792C20.4619 38.2792 20.5904 38.3435 20.6547 38.4169C20.7189 38.4903 20.8475 38.5546 20.9393 38.5546C21.0402 38.5546 21.1871 38.5913 21.2789 38.6464C22.1326 39.1237 24.8682 39.1237 25.7219 38.6464C25.8137 38.5913 25.9605 38.5546 26.0615 38.5546C26.1533 38.5546 26.2818 38.4903 26.3461 38.4169C26.4104 38.3435 26.5389 38.2792 26.6307 38.2792C26.7316 38.2792 26.8051 38.2333 26.8051 38.1874C26.8051 38.1323 26.8877 38.0956 26.9887 38.0956C27.0896 38.0956 27.1998 38.0313 27.2273 37.9579C27.2641 37.8845 27.3191 37.8202 27.3742 37.8202C27.6863 37.8202 29.0908 36.4433 29.3479 35.8925C29.3846 35.819 29.4672 35.6997 29.5314 35.6354C29.5957 35.5712 29.6508 35.4519 29.6508 35.3784C29.6508 35.305 29.6875 35.2499 29.7334 35.2499C29.7793 35.2499 29.8436 35.1489 29.8711 35.0204C29.9078 34.8919 29.9721 34.7909 30.018 34.7909C30.073 34.7909 30.1098 34.6716 30.1098 34.5247C30.1098 34.3687 30.1557 34.2218 30.2016 34.1942C30.2566 34.1667 30.2934 33.9923 30.2934 33.8179C30.2934 33.6435 30.3576 33.3497 30.4311 33.1661C30.6238 32.7163 30.6238 30.8345 30.4311 30.2929C30.3576 30.0817 30.2934 29.7237 30.2934 29.5034C30.2934 29.2923 30.2566 29.0812 30.2016 29.0536C30.1557 29.0261 30.1098 28.8425 30.1098 28.6589C30.1098 28.4753 30.0455 28.2366 29.9721 28.1448C29.8986 28.0438 29.8344 27.8511 29.8344 27.7042C29.8344 27.5665 29.7977 27.4472 29.7518 27.4472C29.7059 27.4472 29.6416 27.3003 29.6141 27.1259C29.5773 26.9515 29.5131 26.8046 29.4672 26.8046C29.4121 26.8046 29.3754 26.7036 29.3754 26.5843C29.3754 26.4558 29.2744 26.162 29.1459 25.9233C29.0174 25.6847 28.9164 25.4185 28.9164 25.3358C28.9164 25.244 28.8521 25.1522 28.7787 25.1155C28.7053 25.088 28.641 24.9778 28.641 24.8769C28.641 24.7759 28.6043 24.6933 28.5492 24.6933C28.5033 24.6933 28.4574 24.5923 28.4574 24.4729C28.4574 24.3536 28.3932 24.2343 28.3197 24.1976C28.2463 24.17 28.182 24.069 28.182 23.9681C28.182 23.8671 28.1545 23.7753 28.1178 23.7569C28.0719 23.7386 27.9617 23.5642 27.8607 23.3622C27.7598 23.1603 27.5854 22.8665 27.4752 22.7104C27.3559 22.5544 27.2641 22.3616 27.2641 22.279C27.2641 22.1872 27.2273 22.1229 27.1906 22.1229C27.1447 22.1229 27.0346 21.9577 26.9336 21.7558C26.8418 21.5538 26.7316 21.3886 26.6857 21.3886C26.649 21.3886 26.548 21.2233 26.4654 21.0214C26.3736 20.8194 26.2543 20.6542 26.19 20.6542C26.1258 20.6542 26.0707 20.6175 26.0707 20.5624C26.0707 20.4981 25.5475 19.6812 25.2721 19.3231C24.8773 18.8183 24.6938 18.5429 24.6938 18.4603C24.6938 18.4052 24.6295 18.3593 24.5561 18.3593C24.4826 18.3593 24.4184 18.295 24.4184 18.2216C24.4184 18.1481 24.3816 18.0839 24.3266 18.0839C24.2807 18.0839 24.2348 18.0196 24.2348 17.9462C24.2348 17.8728 24.198 17.8085 24.1522 17.8085C24.1063 17.8085 23.9777 17.6616 23.8584 17.4872C23.7391 17.3128 23.5738 17.1659 23.5004 17.1659C23.427 17.1659 23.2617 17.3128 23.1424 17.4872Z" fill="#242424"/>
<path d="M10.6124 26.3272C10.5849 26.3548 10.5573 28.9067 10.5573 32.0003C10.5573 35.0938 10.5298 37.6366 10.4839 37.655C10.4013 37.6917 9.91475 38.3343 9.7587 38.6188C9.58428 38.9218 9.61182 39.7755 9.8046 40.1059C9.88721 40.262 9.98819 40.3905 10.0341 40.3905C10.0708 40.3905 10.0983 40.4456 10.0983 40.5099C10.0983 40.6475 11.053 41.5839 11.1999 41.5839C11.2458 41.5839 11.2917 41.6206 11.2917 41.6757C11.2917 41.7216 11.3927 41.7858 11.5212 41.8225C11.6497 41.8501 11.7507 41.9143 11.7507 41.9602C11.7507 42.0061 11.8241 42.0429 11.9251 42.0429C12.0169 42.0429 12.1454 42.1071 12.2097 42.1806C12.2739 42.254 12.4024 42.3182 12.4942 42.3182C12.5952 42.3182 12.6687 42.355 12.6687 42.3917C12.6687 42.4284 12.9073 42.5386 13.2011 42.6304C13.4857 42.7222 13.7978 42.8323 13.8804 42.8782C13.9722 42.9241 14.0915 42.9608 14.1466 42.9608C14.2017 42.9608 14.3761 43.0159 14.5321 43.0893C14.6974 43.1628 14.9544 43.2454 15.1013 43.2638C15.6796 43.3647 16.3038 43.5208 16.4507 43.6034C16.5425 43.6585 16.7995 43.6952 17.0382 43.6952C17.2677 43.6952 17.5431 43.7503 17.6532 43.8054C18.1489 44.0899 22.8398 44.3011 25.5478 44.1634C28.1181 44.0349 29.1095 43.9522 29.2839 43.8329C29.3573 43.787 29.6511 43.7136 29.9265 43.686C30.2019 43.6493 30.6976 43.5483 31.028 43.4657C31.3585 43.3831 31.7532 43.2913 31.9001 43.2638C32.0562 43.2454 32.304 43.1628 32.4692 43.0893C32.6253 43.0159 32.7997 42.9608 32.8548 42.9608C32.9099 42.9608 33.0292 42.9241 33.121 42.8782C33.2036 42.8323 33.5157 42.7222 33.8095 42.6304C34.094 42.5386 34.3327 42.4284 34.3327 42.3917C34.3327 42.355 34.4153 42.3182 34.5163 42.3182C34.6173 42.3182 34.7274 42.254 34.755 42.1806C34.7917 42.1071 34.911 42.0429 35.0304 42.0429C35.1497 42.0429 35.2507 42.0061 35.2507 41.9602C35.2507 41.9143 35.3241 41.8593 35.4159 41.8225C35.4985 41.795 35.6546 41.7216 35.7556 41.6573C36.0585 41.4554 36.903 40.6016 36.903 40.4915C36.903 40.4364 36.9398 40.3905 36.9948 40.3905C37.0407 40.3905 37.105 40.2895 37.1417 40.161C37.1692 40.0325 37.2335 39.9315 37.2794 39.9315C37.4263 39.9315 37.3712 38.9952 37.206 38.628C37.1233 38.4352 37.0224 38.2792 36.9765 38.2792C36.9398 38.2792 36.903 38.2241 36.903 38.1599C36.903 38.0864 36.8021 37.9395 36.6735 37.8202L36.444 37.6091L36.4257 31.9544C36.3982 26.3548 36.3982 26.2997 36.2146 26.3272C36.1136 26.3456 36.0218 26.4007 36.0034 26.4466C35.9851 26.4925 35.8933 26.5292 35.8015 26.5292C35.7097 26.5292 35.6087 26.5659 35.572 26.6118C35.4985 26.7403 34.3878 27.2636 34.2134 27.2636C34.1308 27.2636 34.0573 27.3003 34.0573 27.3554C34.0573 27.4013 33.9105 27.4655 33.736 27.5022C33.5616 27.5298 33.4148 27.594 33.4148 27.6399C33.4148 27.6858 33.3321 27.7225 33.222 27.7225C33.0108 27.7225 32.1663 27.9612 31.9276 28.0989C31.8358 28.1448 31.6247 28.1815 31.4595 28.1815C31.0831 28.1815 30.7894 28.4569 30.8903 28.7048C30.973 28.8975 31.0831 29.5952 31.2208 30.862C31.2942 31.5138 31.2942 31.9911 31.2208 32.6061C31.0556 33.9739 31.0097 34.185 30.9271 34.286C30.8812 34.3319 30.8444 34.4329 30.8444 34.5155C30.8444 34.589 30.7802 34.7725 30.7067 34.9194C30.6333 35.0571 30.569 35.2315 30.569 35.2958C30.569 35.36 30.5048 35.461 30.4314 35.5253C30.3579 35.5895 30.2937 35.7181 30.2937 35.8099C30.2937 35.9108 30.2569 35.9843 30.211 35.9843C30.1651 35.9843 30.1009 36.0669 30.0642 36.1587C30.0366 36.2505 29.8714 36.48 29.697 36.6727C29.5226 36.8563 29.3757 37.0307 29.3757 37.0491C29.3757 37.1042 28.8341 37.6366 28.7698 37.6366C28.678 37.6366 28.4577 37.8936 28.4577 37.9946C28.4577 38.0497 28.3935 38.0956 28.32 38.0956C28.2466 38.0956 28.1823 38.1323 28.1823 38.1782C28.1823 38.2241 28.1089 38.2792 28.0263 38.3159C27.8519 38.371 27.5214 38.5638 27.448 38.6556C27.4204 38.6831 27.2552 38.7749 27.0808 38.8483C26.9064 38.9309 26.6126 39.0595 26.4198 39.1421C26.2362 39.2247 26.0343 39.289 25.9608 39.289C25.8874 39.289 25.7956 39.3257 25.7405 39.3716C25.5937 39.5184 24.8685 39.5827 23.5007 39.5827C22.1329 39.5827 21.4077 39.5184 21.2608 39.3716C21.2058 39.3257 21.114 39.289 21.0405 39.289C20.9671 39.289 20.7835 39.2339 20.6274 39.1604C19.7554 38.7841 19.5993 38.7106 19.5534 38.6556C19.48 38.5638 19.1495 38.371 18.9843 38.3159C18.8925 38.2792 18.819 38.2241 18.819 38.1782C18.819 38.1323 18.7548 38.0956 18.6814 38.0956C18.6079 38.0956 18.5437 38.0313 18.5437 37.9579C18.5437 37.8845 18.5069 37.8202 18.4702 37.8202C18.3876 37.8202 17.6257 37.1409 17.6257 37.0675C17.6257 37.0491 17.4605 36.8472 17.2585 36.6268C17.0565 36.4065 16.8913 36.177 16.8913 36.1036C16.8913 36.0393 16.8546 35.9843 16.7995 35.9843C16.7536 35.9843 16.7077 35.9108 16.7077 35.8099C16.7077 35.7181 16.6435 35.5895 16.57 35.5253C16.4966 35.461 16.4323 35.3417 16.4323 35.2591C16.4323 35.1765 16.3681 35.0296 16.2946 34.9378C16.2212 34.8368 16.1569 34.6624 16.1569 34.5431C16.1569 34.4237 16.1202 34.3319 16.0743 34.3319C15.9917 34.3319 15.9642 34.1759 15.7806 32.6612C15.698 32.0003 15.698 31.5505 15.7714 30.8712C15.8999 29.7788 16.0284 28.9343 16.1019 28.6864C16.1478 28.5487 16.0927 28.4661 15.8815 28.3376C15.7163 28.255 15.4776 28.1815 15.3308 28.1815C15.1931 28.1815 14.9544 28.1173 14.8167 28.0438C14.6698 27.9704 14.4771 27.9061 14.3944 27.9061C14.3118 27.9061 14.2108 27.8602 14.1833 27.8143C14.1558 27.7593 14.0273 27.7225 13.9079 27.7225C13.7886 27.7225 13.6692 27.6858 13.6417 27.6399C13.6142 27.594 13.4398 27.5298 13.2653 27.5022C13.0909 27.4655 12.944 27.4013 12.944 27.3554C12.944 27.3003 12.8614 27.2636 12.7696 27.2636C12.5769 27.2636 11.9985 26.9882 11.9526 26.8688C11.9343 26.8321 11.8425 26.8046 11.7507 26.8046C11.6681 26.8046 11.5396 26.7403 11.4753 26.6669C11.411 26.5934 11.2825 26.5292 11.1907 26.5292C11.0898 26.5292 11.0163 26.4925 11.0163 26.4466C11.0163 26.3548 10.6858 26.2538 10.6124 26.3272Z" fill="#242424"/>
</svg>
