<svg width="27" height="25" viewBox="0 0 27 25" fill="none" xmlns="http://www.w3.org/2000/svg">
<path d="M7.59375 1.5625C7.36997 1.5625 7.15536 1.64481 6.99713 1.79132C6.83889 1.93784 6.75 2.13655 6.75 2.34375V3.125H5.0625C3.20735 3.125 1.6875 4.53227 1.6875 6.25V20.3125C1.6875 22.0302 3.20735 23.4375 5.0625 23.4375H12.6562C12.88 23.4375 13.0946 23.3552 13.2529 23.2087C13.4111 23.0622 13.5 22.8635 13.5 22.6562C13.5 22.449 13.4111 22.2503 13.2529 22.1038C13.0946 21.9573 12.88 21.875 12.6562 21.875H5.0625C4.11303 21.875 3.375 21.1916 3.375 20.3125V9.375H23.625V11.7188C23.625 11.926 23.7139 12.1247 23.8721 12.2712C24.0304 12.4177 24.245 12.5 24.4688 12.5C24.6925 12.5 24.9071 12.4177 25.0654 12.2712C25.2236 12.1247 25.3125 11.926 25.3125 11.7188V6.25C25.3125 4.53227 23.7927 3.125 21.9375 3.125H20.25V2.34375C20.25 2.13655 20.1611 1.93784 20.0029 1.79132C19.8446 1.64481 19.63 1.5625 19.4062 1.5625C19.1825 1.5625 18.9679 1.64481 18.8096 1.79132C18.6514 1.93784 18.5625 2.13655 18.5625 2.34375V3.125H14.3438V2.34375C14.3438 2.13655 14.2549 1.93784 14.0966 1.79132C13.9384 1.64481 13.7238 1.5625 13.5 1.5625C13.2762 1.5625 13.0616 1.64481 12.9034 1.79132C12.7451 1.93784 12.6562 2.13655 12.6562 2.34375V3.125H8.4375V2.34375C8.4375 2.13655 8.34861 1.93784 8.19037 1.79132C8.03214 1.64481 7.81753 1.5625 7.59375 1.5625ZM5.0625 4.6875H6.75V5.46875C6.75 5.67595 6.83889 5.87466 6.99713 6.02118C7.15536 6.16769 7.36997 6.25 7.59375 6.25C7.81753 6.25 8.03214 6.16769 8.19037 6.02118C8.34861 5.87466 8.4375 5.67595 8.4375 5.46875V4.6875H12.6562V5.46875C12.6562 5.67595 12.7451 5.87466 12.9034 6.02118C13.0616 6.16769 13.2762 6.25 13.5 6.25C13.7238 6.25 13.9384 6.16769 14.0966 6.02118C14.2549 5.87466 14.3438 5.67595 14.3438 5.46875V4.6875H18.5625V5.46875C18.5625 5.67595 18.6514 5.87466 18.8096 6.02118C18.9679 6.16769 19.1825 6.25 19.4062 6.25C19.63 6.25 19.8446 6.16769 20.0029 6.02118C20.1611 5.87466 20.25 5.67595 20.25 5.46875V4.6875H21.9375C22.887 4.6875 23.625 5.37086 23.625 6.25V7.8125H3.375V6.25C3.375 5.37086 4.11303 4.6875 5.0625 4.6875Z" fill="white"/>
<path d="M19.4062 12.5C16.1543 12.5 13.5 14.9577 13.5 17.9688C13.5 20.9798 16.1543 23.4375 19.4062 23.4375C22.6582 23.4375 25.3125 20.9798 25.3125 17.9688C25.3125 14.9577 22.6582 12.5 19.4062 12.5ZM19.4062 14.0625C21.7462 14.0625 23.625 15.8021 23.625 17.9688C23.625 20.1354 21.7462 21.875 19.4062 21.875C17.0663 21.875 15.1875 20.1354 15.1875 17.9688C15.1875 15.8021 17.0663 14.0625 19.4062 14.0625Z" fill="white"/>
<path d="M19.4062 15.625C19.1825 15.625 18.9679 15.7073 18.8096 15.8538C18.6514 16.0003 18.5625 16.199 18.5625 16.4062V17.9688C18.5625 18.1759 18.6514 18.3746 18.8097 18.5212C18.9679 18.6677 19.1825 18.75 19.4062 18.75H21.0938C21.3175 18.75 21.5321 18.6677 21.6904 18.5212C21.8486 18.3747 21.9375 18.176 21.9375 17.9688C21.9375 17.7615 21.8486 17.5628 21.6904 17.4163C21.5321 17.2698 21.3175 17.1875 21.0938 17.1875H20.25V16.4062C20.25 16.199 20.1611 16.0003 20.0029 15.8538C19.8446 15.7073 19.63 15.625 19.4062 15.625Z" fill="white"/>
</svg>
